<?xml version="1.0" standalone="no"?>
<!DOCTYPE svg PUBLIC "-//W3C//DTD SVG 1.1//EN" "http://www.w3.org/Graphics/SVG/1.1/DTD/svg11.dtd" >
<svg xmlns="http://www.w3.org/2000/svg" xmlns:xlink="http://www.w3.org/1999/xlink" version="1.1">
<metadata>
Created by FontForge 20190801 at Fri Jan  1 00:00:00 1904
 By root
Copyright 2013 (c) Rick Banks / Face37. All rights reserved.
</metadata>
<defs>
<font id="F37GingerThin" horiz-adv-x="614" >
  <font-face 
    font-family="F37 Ginger Thin"
    font-weight="100"
    font-stretch="normal"
    units-per-em="1000"
    panose-1="2 0 5 3 3 0 0 2 0 4"
    ascent="800"
    descent="-200"
    x-height="475"
    cap-height="740"
    bbox="-153 -262 1243 969"
    underline-thickness="50"
    underline-position="-100"
    stemh="26"
    stemv="28"
    unicode-range="U+0020-FB02"
  />
<missing-glyph horiz-adv-x="729" 
d="M100 0v740h529v-740h-529zM599 713h-469v-686h469v686z" />
    <glyph glyph-name=".notdef" horiz-adv-x="729" 
d="M100 0v740h529v-740h-529zM599 713h-469v-686h469v686z" />
    <glyph glyph-name="controlHT" unicode=" " horiz-adv-x="270" 
 />
    <glyph glyph-name="nbspace" unicode="&#xa0;" horiz-adv-x="270" 
 />
    <glyph glyph-name="A" unicode="A" horiz-adv-x="673" 
d="M636 0l-96 228h-408l-96 -228h-31l311 740h39l313 -740h-32zM336 713l-193 -458h385z" />
    <glyph glyph-name="B" unicode="B" horiz-adv-x="593" 
d="M257 0h-167v740h159c194 0 275 -60 275 -191c0 -82 -32 -142 -126 -162c97 -21 155 -84 155 -185c0 -137 -108 -202 -296 -202zM120 401h193c106 0 181 27 181 148c0 95 -47 164 -244 164h-130v-312zM120 27h137c170 0 266 58 266 178c0 121 -97 169 -211 169h-192v-347z
" />
    <glyph glyph-name="C" unicode="C" horiz-adv-x="717" 
d="M666 112l22 -17c-69 -67 -160 -108 -266 -108c-213 0 -387 166 -387 382c0 211 166 384 386 384c110 0 206 -44 276 -116l-24 -16c-64 64 -151 105 -252 105c-207 0 -356 -167 -356 -358c0 -195 156 -354 357 -354c97 0 181 38 244 98z" />
    <glyph glyph-name="D" unicode="D" horiz-adv-x="718" 
d="M90 740h197c220 0 396 -138 396 -370s-176 -370 -396 -370h-197v740zM288 27c208 0 365 137 365 342c0 204 -157 344 -365 344h-168v-686h168z" />
    <glyph glyph-name="E" unicode="E" horiz-adv-x="541" 
d="M486 0h-396v740h396v-27h-366v-313h325v-27h-325v-346h366v-27z" />
    <glyph glyph-name="F" unicode="F" horiz-adv-x="541" 
d="M120 0h-30v740h411v-27h-381v-313h340v-27h-340v-373z" />
    <glyph glyph-name="G" unicode="G" horiz-adv-x="829" 
d="M401 373v27h363v-25c0 -236 -131 -388 -343 -388c-223 0 -386 168 -386 380c0 214 166 386 386 386c117 0 221 -49 291 -128l-20 -20c-64 74 -161 121 -271 121c-207 0 -356 -167 -356 -359s148 -353 356 -353c191 0 313 137 313 351v8h-333z" />
    <glyph glyph-name="H" unicode="H" horiz-adv-x="751" 
d="M661 0h-30v373h-511v-373h-30v740h30v-340h511v340h30v-740z" />
    <glyph glyph-name="I" unicode="I" horiz-adv-x="210" 
d="M120 0h-30v740h30v-740z" />
    <glyph glyph-name="J" unicode="J" horiz-adv-x="224" 
d="M-37 -212v27c121 21 141 103 141 220v705h30v-704c0 -137 -28 -226 -171 -248z" />
    <glyph glyph-name="K" unicode="K" horiz-adv-x="554" 
d="M505 0l-385 363v-363h-30v740h30v-355l361 355h43l-373 -365l398 -375h-44z" />
    <glyph glyph-name="L" unicode="L" horiz-adv-x="537" 
d="M517 0h-427v740h30v-713h397v-27z" />
    <glyph glyph-name="M" unicode="M" horiz-adv-x="895" 
d="M805 0h-30v709l-316 -409h-27l-312 409v-709h-30v740h47l309 -411l312 411h47v-740z" />
    <glyph glyph-name="N" unicode="N" horiz-adv-x="795" 
d="M705 0h-38l-547 710v-710h-30v740h45l540 -700v700h30v-740z" />
    <glyph glyph-name="O" unicode="O" horiz-adv-x="843" 
d="M808 370c0 -214 -171 -383 -386 -383c-213 0 -387 166 -387 382c0 211 166 384 386 384c217 0 387 -169 387 -383zM422 14c202 0 356 161 356 355c0 193 -153 357 -357 357c-207 0 -356 -167 -356 -358c0 -195 156 -354 357 -354z" />
    <glyph glyph-name="P" unicode="P" horiz-adv-x="595" 
d="M120 0h-30v740h184c180 0 276 -76 276 -221c0 -146 -96 -221 -276 -221h-154v-298zM120 713v-388h154c160 0 246 67 246 194s-86 194 -246 194h-154z" />
    <glyph glyph-name="Q" unicode="Q" horiz-adv-x="826" 
d="M808 374c0 -169 -104 -298 -247 -347h247v-27h-387c-213 0 -386 154 -386 373c0 214 166 380 385 380c218 0 388 -164 388 -379zM422 27c202 0 356 149 356 345c0 195 -152 354 -358 354s-355 -160 -355 -354c0 -198 156 -345 357 -345z" />
    <glyph glyph-name="R" unicode="R" horiz-adv-x="623" 
d="M603 0h-33l-208 349c-14 -1 -28 -1 -43 -1h-199v-348h-30v740h229c180 0 266 -56 266 -196c0 -115 -62 -176 -190 -192zM120 713v-338h199c160 0 236 47 236 169s-76 169 -236 169h-199z" />
    <glyph glyph-name="S" unicode="S" horiz-adv-x="519" 
d="M30 107l20 23c43 -68 130 -116 208 -116c91 0 191 63 191 175c0 218 -381 142 -381 378c0 98 66 186 218 186c72 0 124 -20 178 -70l-19 -23c-40 45 -98 66 -160 66c-100 0 -187 -54 -187 -155c0 -211 381 -140 381 -379c0 -122 -100 -205 -219 -205
c-104 0 -193 63 -230 120z" />
    <glyph glyph-name="T" unicode="T" horiz-adv-x="573" 
d="M302 0h-30v713h-257v27h543v-27h-256v-713z" />
    <glyph glyph-name="U" unicode="U" horiz-adv-x="762" 
d="M652 348v392h30v-393c0 -249 -120 -360 -301 -360s-301 111 -301 360v393h30v-392c0 -254 131 -334 271 -334c139 0 271 80 271 334z" />
    <glyph glyph-name="V" unicode="V" horiz-adv-x="690" 
d="M680 740l-325 -740h-21l-324 740h34l301 -690l301 690h34z" />
    <glyph glyph-name="W" unicode="W" horiz-adv-x="1013" 
d="M725 0l-219 688l-218 -688h-21l-257 740h34l234 -685l212 685h33l212 -685l234 685h34l-257 -740h-21z" />
    <glyph glyph-name="glyph26" horiz-adv-x="954" 
d="M638 740l-146 -353l137 -337l281 690h34l-305 -740h-21l-142 347l-143 -347h-21l-302 740h34l279 -690l137 337l-144 353h34l126 -313l128 313h34z" />
    <glyph glyph-name="X" unicode="X" horiz-adv-x="624" 
d="M609 740l-280 -380l265 -360h-35l-248 336l-247 -336h-35l265 360l-279 380h35l261 -356l263 356h35z" />
    <glyph glyph-name="Y" unicode="Y" horiz-adv-x="610" 
d="M600 740l-280 -402v-338h-30v338l-280 402h34l261 -370l261 370h34z" />
    <glyph glyph-name="Z" unicode="Z" horiz-adv-x="647" 
d="M593 0h-553v14l511 699h-500v27h546v-14l-511 -699h507v-27z" />
    <glyph glyph-name="Eth" unicode="&#xd0;" horiz-adv-x="718" 
d="M287 0h-197v359h-74v27h74v354h197c220 0 396 -138 396 -370c0 -199 -129 -328 -304 -362c-9 -2 -19 -3 -28 -4c-21 -3 -42 -4 -64 -4h-197v18h328c-13 -4 -26 -7 -39 -10c-9 -2 -19 -3 -28 -4c-21 -3 -42 -4 -64 -4zM288 27c208 0 365 137 365 342
c0 204 -157 344 -365 344h-168v-327h254v-27h-254v-332h168z" />
    <glyph glyph-name="Thorn" unicode="&#xde;" horiz-adv-x="585" 
d="M120 0h-30v740h30v-149h154c180 0 276 -76 276 -221c0 -146 -96 -221 -276 -221h-154v-149zM274 564h-154v-388h154c160 0 246 67 246 194s-86 194 -246 194z" />
    <glyph glyph-name="AE" unicode="&#xc6;" horiz-adv-x="944" 
d="M889 0h-396v228h-302l-148 -228h-38l482 740h402v-27h-366v-313h325v-27h-325v-346h366v-27zM208 255h285v439z" />
    <glyph glyph-name="OE" unicode="&#x152;" horiz-adv-x="1229" 
d="M1174 0h-396v220c-58 -138 -195 -233 -356 -233c-213 0 -387 166 -387 382c0 211 166 384 386 384c162 0 299 -95 357 -233v220h396v-27h-366v-313h325v-27h-325v-346h366v-27zM422 14c202 0 356 161 356 355c0 193 -153 357 -357 357c-207 0 -356 -167 -356 -358
c0 -195 156 -354 357 -354z" />
    <glyph glyph-name="a" unicode="a" 
d="M529 0h-28v130c-34 -86 -115 -143 -210 -143c-139 0 -246 111 -246 247c0 133 103 250 246 250c96 0 176 -58 210 -144v135h28v-475zM292 13c129 0 205 112 209 216v8c0 110 -82 221 -210 221c-131 0 -218 -107 -218 -223c0 -118 89 -222 219 -222z" />
    <glyph glyph-name="b" unicode="b" 
d="M113 0h-28v740h28v-390c39 76 115 134 215 134c143 0 241 -117 241 -250c0 -136 -102 -247 -241 -247c-99 0 -176 57 -215 134v-121zM327 13c130 0 214 104 214 222c0 116 -82 223 -213 223c-130 0 -211 -106 -215 -213v-8c0 -106 76 -224 214 -224z" />
    <glyph glyph-name="c" unicode="c" horiz-adv-x="529" 
d="M480 120l24 -13c-44 -72 -123 -120 -212 -120c-134 0 -247 111 -247 247c0 134 109 250 246 250c89 0 168 -49 212 -120l-23 -13c-38 64 -107 107 -188 107c-127 0 -219 -107 -219 -223c0 -118 95 -222 220 -222c82 0 150 45 187 107z" />
    <glyph glyph-name="d" unicode="d" 
d="M529 0h-28v130c-34 -86 -115 -143 -210 -143c-139 0 -246 111 -246 247c0 133 103 250 246 250c96 0 177 -58 210 -144v400h28v-740zM292 13c133 0 209 118 209 224c0 110 -82 221 -210 221c-131 0 -218 -107 -218 -223c0 -118 89 -222 219 -222z" />
    <glyph glyph-name="e" unicode="e" horiz-adv-x="572" 
d="M471 105l21 -15c-45 -62 -118 -103 -200 -103c-134 0 -247 111 -247 248c0 133 106 249 243 249c136 0 244 -114 244 -249v-7h-459c3 -115 96 -215 220 -215c76 0 139 37 178 92zM289 458c-120 0 -207 -96 -216 -204h430c-8 112 -97 204 -214 204z" />
    <glyph glyph-name="f" unicode="f" horiz-adv-x="290" 
d="M113 475h162v-26h-162v-449h-28v449h-70v26h70v96c0 124 49 169 136 169c22 0 43 -3 64 -10v-25c-20 7 -42 9 -61 9c-57 0 -111 -18 -111 -148v-91z" />
    <glyph glyph-name="g" unicode="g" 
d="M501 475h28v-448c0 -204 -106 -280 -233 -280c-98 0 -172 46 -219 120l25 12c38 -60 97 -106 193 -106c117 0 206 68 206 253v94c-39 -76 -115 -133 -212 -133c-136 0 -244 111 -244 247c0 133 104 250 244 250c98 0 173 -58 212 -134v125zM290 13c132 0 207 112 211 216
v16c-4 107 -85 213 -212 213c-128 0 -216 -107 -216 -223c0 -118 90 -222 217 -222z" />
    <glyph glyph-name="glyph41" horiz-adv-x="504" 
d="M445 -115c0 -78 -72 -143 -188 -143s-183 64 -183 143c0 34 12 66 36 91c-25 17 -42 44 -42 78c0 33 16 63 42 80c-38 36 -60 89 -60 150c0 118 83 200 198 200c22 0 43 -3 63 -9h151v-26h-95c54 -36 88 -97 88 -168c0 -107 -77 -201 -203 -201c-46 0 -87 12 -119 34
c-22 -10 -37 -32 -37 -60c0 -27 14 -49 35 -59c30 21 72 34 124 34c117 0 190 -66 190 -144zM427 281c0 101 -75 177 -178 177c-100 0 -171 -71 -171 -175c0 -101 68 -177 174 -177c110 0 175 81 175 175zM417 -114c0 65 -62 116 -162 116c-104 0 -153 -54 -153 -117
c0 -64 49 -117 153 -117c106 0 162 56 162 118z" />
    <glyph glyph-name="glyph42" horiz-adv-x="533" 
d="M478 -82c0 -112 -97 -176 -212 -176c-114 0 -211 64 -211 176c0 76 54 139 132 164c-80 27 -137 95 -137 193c0 117 95 209 215 209c22 0 43 -3 63 -9h154v-26h-95c57 -37 96 -100 96 -173c0 -99 -58 -167 -138 -194c77 -25 133 -86 133 -164zM266 95h8
c106 3 182 77 182 182c0 103 -84 181 -190 181c-109 0 -188 -82 -188 -183c0 -110 81 -180 188 -180zM267 -232c105 0 180 59 180 151c0 87 -80 151 -181 151h-8c-100 -4 -172 -70 -172 -152c0 -95 78 -150 181 -150z" />
    <glyph glyph-name="h" unicode="h" horiz-adv-x="576" 
d="M501 0h-28v252c0 97 -25 206 -172 206c-130 0 -188 -91 -188 -225v-233h-28v740h28v-377c27 80 102 121 191 121c121 0 197 -71 197 -220v-264z" />
    <glyph glyph-name="i" unicode="i" horiz-adv-x="198" 
d="M113 0h-28v475h28v-475zM99 586c-12 0 -21 9 -21 21c0 13 9 22 21 22c13 0 22 -9 22 -22c0 -12 -9 -21 -22 -21z" />
    <glyph glyph-name="dotlessi" unicode="&#x131;" horiz-adv-x="198" 
d="M113 0h-28v475h28v-475z" />
    <glyph glyph-name="j" unicode="j" horiz-adv-x="198" 
d="M113 -253h-28v728h28v-728zM99 586c-12 0 -21 9 -21 21c0 13 9 22 21 22c13 0 22 -9 22 -22c0 -12 -9 -21 -22 -21z" />
    <glyph glyph-name="k" unicode="k" horiz-adv-x="416" 
d="M349 475h45l-258 -217l275 -258h-45l-253 240v-240h-28v740h28v-465z" />
    <glyph glyph-name="l" unicode="l" horiz-adv-x="248" 
d="M113 740v-609c0 -81 17 -118 74 -118c16 0 32 2 52 9v-25c-21 -7 -32 -10 -53 -10c-88 0 -101 65 -101 139v614h28z" />
    <glyph glyph-name="m" unicode="m" horiz-adv-x="838" 
d="M763 0h-28v252c0 94 -17 206 -138 206c-102 0 -159 -79 -159 -215v-243h-28v252c0 100 -28 206 -137 206c-95 0 -160 -81 -160 -230v-228h-28v475h28v-119c24 79 87 128 161 128c66 0 138 -38 152 -141c28 111 109 141 173 141c91 0 164 -61 164 -210v-274z" />
    <glyph glyph-name="n" unicode="n" horiz-adv-x="576" 
d="M501 0h-28v252c0 97 -25 206 -172 206c-130 0 -188 -91 -188 -225v-233h-28v475h28v-119c27 87 102 128 191 128c121 0 197 -71 197 -220v-264z" />
    <glyph glyph-name="o" unicode="o" horiz-adv-x="585" 
d="M540 235c0 -136 -113 -248 -248 -248c-134 0 -247 111 -247 247c0 134 109 250 246 250c136 0 249 -114 249 -249zM293 13c128 0 219 109 219 223c0 120 -97 222 -220 222c-127 0 -219 -107 -219 -224s95 -221 220 -221z" />
    <glyph glyph-name="p" unicode="p" 
d="M113 -253h-28v728h28v-125c39 76 115 134 215 134c143 0 241 -117 241 -250c0 -136 -102 -247 -241 -247c-99 0 -176 57 -215 134v-374zM327 13c130 0 214 104 214 222c0 116 -82 223 -213 223c-130 0 -211 -106 -215 -213v-8c0 -106 76 -224 214 -224z" />
    <glyph glyph-name="q" unicode="q" 
d="M529 -253h-28v373c-39 -76 -115 -133 -210 -133c-139 0 -246 111 -246 247c0 133 103 250 246 250c96 0 171 -58 210 -134v125h28v-728zM292 13c129 0 205 112 209 216v8c0 110 -82 221 -210 221c-131 0 -218 -107 -218 -223c0 -118 89 -222 219 -222z" />
    <glyph glyph-name="r" unicode="r" horiz-adv-x="329" 
d="M113 0h-28v475h28v-83c34 73 92 92 169 92c12 0 24 0 37 -1v-27c-16 1 -29 2 -42 2c-99 0 -164 -63 -164 -179v-279z" />
    <glyph glyph-name="s" unicode="s" horiz-adv-x="404" 
d="M40 56l16 22c55 -53 104 -65 151 -65c98 0 129 53 129 99c0 139 -285 83 -285 245c0 73 59 127 155 127c46 0 88 -13 139 -49l-14 -22c-41 33 -81 45 -127 45c-113 0 -125 -72 -125 -100c0 -134 285 -81 285 -246c0 -80 -68 -125 -158 -125c-60 0 -113 20 -166 69z" />
    <glyph glyph-name="t" unicode="t" horiz-adv-x="287" 
d="M272 449h-154v-338c0 -71 24 -98 83 -98c16 0 39 2 59 9v-25c-21 -7 -42 -10 -63 -10c-88 0 -107 55 -107 119v343h-75v26h75v161h28v-161h154v-26z" />
    <glyph glyph-name="u" unicode="u" horiz-adv-x="574" 
d="M468 200v275h28v-274c0 -149 -77 -214 -209 -214s-209 65 -209 214v274h28v-275c0 -132 68 -187 181 -187s181 55 181 187z" />
    <glyph glyph-name="v" unicode="v" horiz-adv-x="478" 
d="M468 475l-211 -475h-36l-211 475h29l200 -442l200 442h29z" />
    <glyph glyph-name="w" unicode="w" horiz-adv-x="774" 
d="M396 475l165 -442l172 442h31l-187 -475h-32l-158 428l-158 -428h-32l-187 475h31l172 -442l165 442h18z" />
    <glyph glyph-name="x" unicode="x" horiz-adv-x="434" 
d="M401 475l-168 -226l186 -249h-30l-172 229l-170 -229h-32l187 249l-169 226h32l152 -205l154 205h30z" />
    <glyph glyph-name="y" unicode="y" horiz-adv-x="457" 
d="M114 -253l102 245l-206 483h31l189 -450l187 450h30l-304 -728h-29z" />
    <glyph glyph-name="z" unicode="z" horiz-adv-x="471" 
d="M421 0h-371v24l335 425h-335v26h371v-27l-335 -422h335v-26z" />
    <glyph glyph-name="eth" unicode="&#xf0;" horiz-adv-x="587" 
d="M381 721l-74 -58c149 -99 235 -243 235 -404c0 -167 -117 -272 -252 -272c-131 0 -245 111 -245 247c0 134 109 250 246 250c88 0 171 -47 218 -134c-29 106 -100 215 -223 296l-82 -65l-14 19l75 60c-37 23 -80 43 -126 60l15 20c48 -18 92 -40 132 -64l79 63zM293 13
c128 0 219 109 219 223c0 120 -97 222 -220 222c-127 0 -219 -107 -219 -224s95 -221 220 -221z" />
    <glyph glyph-name="thorn" unicode="&#xfe;" 
d="M113 -253h-28v993h28v-390c39 76 115 134 215 134c143 0 241 -117 241 -250c0 -136 -102 -247 -241 -247c-99 0 -176 57 -215 134v-374zM327 13c130 0 214 104 214 222c0 116 -82 223 -213 223c-130 0 -211 -106 -215 -213v-8c0 -106 76 -224 214 -224z" />
    <glyph glyph-name="ae" unicode="&#xe6;" horiz-adv-x="1028" 
d="M529 0h-28v130c-34 -86 -115 -143 -210 -143c-139 0 -246 111 -246 247c0 133 103 250 246 250c96 0 177 -58 210 -144v135h28v-135c35 88 120 144 215 144c136 0 244 -114 244 -249v-7h-459c3 -115 96 -215 220 -215c76 0 139 37 178 92l21 -15
c-45 -62 -118 -103 -200 -103c-94 0 -183 54 -219 144v-131zM292 13c133 0 209 118 209 224c0 110 -82 221 -210 221c-131 0 -218 -107 -218 -223c0 -118 89 -222 219 -222zM745 458c-120 0 -207 -96 -216 -204h430c-8 112 -97 204 -214 204z" />
    <glyph glyph-name="oe" unicode="&#x153;" horiz-adv-x="1039" 
d="M938 105l21 -15c-45 -62 -118 -103 -200 -103c-107 0 -203 70 -233 176c-31 -106 -128 -176 -234 -176c-134 0 -247 111 -247 247c0 134 109 250 246 250c107 0 205 -72 235 -178c29 106 124 178 232 178c136 0 241 -114 241 -249v-7h-459c3 -115 96 -215 220 -215
c76 0 139 37 178 92zM293 13c125 0 219 104 219 224c0 119 -97 221 -220 221c-127 0 -219 -107 -219 -224s95 -221 220 -221zM759 458c-120 0 -209 -96 -219 -204h430c-8 112 -94 204 -211 204z" />
    <glyph glyph-name="fi" unicode="&#xfb01;" horiz-adv-x="450" 
d="M368 0h-28v449h-227v-449h-28v449h-70v26h70v96c0 124 49 169 136 169c22 0 43 -3 64 -10v-25c-20 7 -42 9 -61 9c-57 0 -111 -18 -111 -148v-91h255v-475zM354 586c-12 0 -21 9 -21 21c0 13 9 22 21 22c13 0 22 -9 22 -22c0 -12 -9 -21 -22 -21z" />
    <glyph glyph-name="fl" unicode="&#xfb02;" horiz-adv-x="543" 
d="M408 740v-609c0 -81 17 -118 74 -118c16 0 32 2 52 9v-25c-21 -7 -32 -10 -53 -10c-88 0 -101 65 -101 139v323h-267v-449h-28v449h-70v26h70v96c0 124 49 169 136 169c22 0 43 -3 64 -10v-25c-20 7 -42 9 -61 9c-57 0 -111 -18 -111 -148v-91h267v265h28z" />
    <glyph glyph-name="germandbls" unicode="&#xdf;" horiz-adv-x="571" 
d="M526 200c0 -121 -97 -200 -212 -200h-99v26h99c106 0 184 59 184 174c0 111 -73 177 -203 177h-80v26h80c70 0 149 39 149 148c0 102 -71 163 -166 163c-59 0 -102 -23 -129 -61c-32 -45 -36 -109 -36 -193v-460h-28v460c0 87 5 153 38 203c32 48 87 77 155 77
c117 0 194 -85 194 -188c0 -60 -27 -130 -104 -160c105 -17 158 -103 158 -192z" />
    <glyph glyph-name="ampersand" unicode="&#x26;" horiz-adv-x="617" 
d="M567 0h-267c-166 0 -245 85 -245 209c0 82 34 152 116 187c-58 26 -98 88 -98 169c0 113 77 188 190 188c52 0 103 -16 138 -43l-14 -22c-38 30 -77 39 -114 39c-93 0 -170 -55 -170 -163c0 -101 67 -154 134 -154h202v148h30v-148h98v-28h-98v-355h98v-27zM439 27v355
h-201c-89 0 -152 -69 -152 -172c0 -101 61 -183 214 -183h139z" />
    <glyph glyph-name="glyph71" horiz-adv-x="637" 
d="M55 204c0 91 34 156 116 192c-58 26 -98 88 -98 169c0 113 77 188 190 188c52 0 103 -16 138 -43l-14 -22c-38 30 -77 39 -114 39c-93 0 -170 -55 -170 -163c0 -101 67 -154 134 -154h222v148h30v-148h98v-28h-98v-181c0 -149 -91 -214 -216 -214
c-133 0 -218 74 -218 217zM86 203c0 -124 74 -189 189 -189c101 0 184 51 184 186v182h-221c-89 0 -152 -65 -152 -179z" />
    <glyph glyph-name="glyph72" horiz-adv-x="620" 
d="M449 500l23 -14c-31 -56 -92 -95 -159 -95c-48 0 -92 19 -125 50c-64 -43 -104 -118 -104 -196c0 -121 100 -231 229 -231c134 0 228 115 228 232c0 40 -11 78 -29 111l23 15c22 -38 35 -81 35 -127c0 -142 -117 -258 -257 -258c-141 0 -258 115 -258 258
c0 88 45 168 115 215c-24 31 -38 70 -38 112c0 98 80 182 180 182c66 0 124 -37 156 -90l-24 -16c-26 46 -75 79 -131 79c-90 0 -153 -76 -153 -155c0 -80 67 -154 153 -154c61 0 111 35 136 82z" />
    <glyph glyph-name="numbersign" unicode="#" horiz-adv-x="560" 
d="M535 525v-23h-130l-31 -222h127v-23h-129l-27 -191h-24l26 191h-154l-26 -191h-25l27 191h-144v23h147l31 222h-146v23h150l27 192h24l-27 -192h154l27 192h24l-27 -192h126zM382 502h-154l-32 -222h154z" />
    <glyph glyph-name="zero" unicode="0" horiz-adv-x="586" 
d="M293 -13c-70 0 -238 45 -238 255v256c0 161 109 255 238 255s238 -94 238 -255v-256c0 -210 -171 -255 -238 -255zM85 498v-256c0 -181 135 -228 208 -228s208 47 208 228v256c0 117 -64 228 -208 228s-208 -111 -208 -228z" />
    <glyph glyph-name="one" unicode="1" horiz-adv-x="351" 
d="M231 0h-30v713h-171v27h201v-740z" />
    <glyph glyph-name="two" unicode="2" horiz-adv-x="547" 
d="M482 547c0 -84 -43 -150 -109 -217l-298 -303h395v-27h-435v27l318 325c64 65 99 126 99 196c0 109 -83 178 -187 178c-91 0 -174 -53 -187 -187h-30c15 160 124 214 221 214c118 0 213 -80 213 -206z" />
    <glyph glyph-name="three" unicode="3" horiz-adv-x="573" 
d="M55 214h30c2 -107 87 -200 206 -200c114 0 198 86 198 201c0 85 -46 169 -142 169h-77v27h75c94 0 128 83 128 146c0 88 -68 170 -173 170s-178 -81 -178 -191l-28 1c0 131 88 216 206 216s201 -86 201 -195c0 -73 -37 -131 -92 -160c62 -26 109 -89 109 -183
c0 -141 -107 -228 -228 -228c-129 0 -232 100 -235 227z" />
    <glyph glyph-name="four" unicode="4" horiz-adv-x="582" 
d="M442 0h-30v164h-377v27l366 549h41v-549h95v-27h-95v-164zM412 191v514l-342 -514h342z" />
    <glyph glyph-name="five" unicode="5" horiz-adv-x="588" 
d="M45 215h33c21 -120 94 -201 215 -201c135 0 225 101 225 229c0 111 -68 223 -214 223c-58 0 -133 -18 -181 -80l-20 12l58 342h322v-27h-294l-48 -276c56 45 120 57 167 57c146 0 240 -118 240 -252c0 -145 -111 -255 -252 -255c-132 0 -233 98 -251 228z" />
    <glyph glyph-name="six" unicode="6" horiz-adv-x="585" 
d="M540 225c0 -136 -113 -238 -248 -238c-134 0 -247 102 -247 236c0 59 22 109 48 158l189 359h33l-165 -315c36 32 87 49 142 49c135 0 248 -114 248 -249zM293 14c127 0 217 99 217 213c0 118 -96 220 -218 220c-126 0 -217 -108 -217 -223c0 -116 94 -210 218 -210z" />
    <glyph glyph-name="seven" unicode="7" horiz-adv-x="503" 
d="M108 0h-31l339 713h-396v27h428v-27z" />
    <glyph glyph-name="eight" unicode="8" horiz-adv-x="622" 
d="M567 243c0 -140 -117 -256 -256 -256s-256 115 -256 256c0 87 45 167 114 214c-25 31 -40 70 -40 113c0 97 81 183 181 183c99 0 183 -84 183 -183c0 -42 -15 -82 -41 -113c69 -47 115 -127 115 -214zM311 14c133 0 226 113 226 230c0 124 -100 230 -226 230
c-132 0 -226 -111 -226 -231c0 -121 97 -229 226 -229zM310 501c42 0 82 -11 118 -30c23 28 36 64 36 99c0 84 -68 156 -153 156c-89 0 -153 -76 -153 -156c0 -37 12 -71 35 -98c35 18 74 29 117 29z" />
    <glyph glyph-name="nine" unicode="9" horiz-adv-x="585" 
d="M45 515c0 136 113 238 248 238c134 0 247 -102 247 -236c0 -59 -22 -109 -48 -158l-189 -359h-33l165 315c-36 -32 -87 -49 -142 -49c-135 0 -248 114 -248 249zM292 726c-127 0 -217 -99 -217 -213c0 -118 96 -220 218 -220c126 0 217 108 217 223
c0 116 -94 210 -218 210z" />
    <glyph glyph-name="glyph84" horiz-adv-x="585" 
d="M540 235c0 -136 -113 -248 -248 -248c-134 0 -247 111 -247 247c0 134 109 250 246 250c136 0 249 -114 249 -249zM293 13c128 0 219 109 219 223c0 120 -97 222 -220 222c-127 0 -219 -107 -219 -224s95 -221 220 -221z" />
    <glyph glyph-name="glyph85" horiz-adv-x="274" 
d="M189 0h-28v449h-146v26h174v-475z" />
    <glyph glyph-name="glyph86" horiz-adv-x="413" 
d="M378 0h-337v27c72 46 305 160 305 311c0 79 -57 119 -131 119c-67 0 -129 -40 -143 -129h-29c16 104 84 156 175 156c85 0 157 -47 157 -145c0 -157 -209 -268 -289 -312h292v-27z" />
    <glyph glyph-name="glyph87" horiz-adv-x="495" 
d="M40 18h29c2 -89 75 -170 175 -170c95 0 168 72 168 171c0 72 -40 144 -120 144h-66v26h65c77 0 106 73 106 125c0 73 -57 144 -146 144c-86 0 -150 -66 -150 -162l-27 1c0 114 77 187 176 187c104 0 175 -81 175 -171c0 -60 -32 -111 -79 -136c54 -22 94 -77 94 -158
c0 -122 -92 -197 -197 -197c-111 0 -200 86 -203 196z" />
    <glyph glyph-name="glyph88" horiz-adv-x="486" 
d="M369 -165h-28v165h-306v26l296 451h38v-451h77v-26h-77v-165zM341 26v416l-272 -416h272z" />
    <glyph glyph-name="glyph89" horiz-adv-x="517" 
d="M417 449h-266l-43 -225c54 48 117 59 159 59c131 0 215 -110 215 -227c0 -132 -105 -234 -229 -234c-120 0 -222 96 -228 217h27c5 -101 80 -191 199 -191c122 0 203 94 203 208c0 112 -77 200 -191 200c-59 0 -120 -23 -163 -74l-23 14l47 279h293v-26z" />
    <glyph glyph-name="glyph90" horiz-adv-x="528" 
d="M483 207c0 -120 -101 -220 -219 -220c-112 0 -219 91 -219 216c0 36 9 67 19 93c33 87 102 200 186 366h32l-150 -282c34 31 82 47 130 47c121 0 221 -100 221 -220zM264 13c112 0 192 95 192 196c0 104 -85 193 -193 193c-111 0 -192 -94 -192 -196
c0 -103 84 -193 193 -193z" />
    <glyph glyph-name="glyph91" horiz-adv-x="413" 
d="M97 -168h-29l295 617h-358v26h388v-26z" />
    <glyph glyph-name="glyph92" horiz-adv-x="549" 
d="M504 217c0 -126 -105 -230 -229 -230c-125 0 -230 103 -230 230c0 78 40 150 102 192c-22 27 -35 63 -35 101c0 87 72 164 162 164c89 0 164 -75 164 -164c0 -38 -14 -73 -37 -102c61 -42 103 -113 103 -191zM275 13c118 0 201 101 201 205c0 110 -89 205 -201 205
c-118 0 -202 -99 -202 -206c0 -108 87 -204 202 -204zM274 448c37 0 72 -9 103 -26c21 25 33 56 33 88c0 75 -60 138 -135 138c-79 0 -135 -67 -135 -138c0 -32 12 -63 32 -87c30 15 65 25 102 25z" />
    <glyph glyph-name="glyph93" horiz-adv-x="528" 
d="M45 264c0 120 101 220 219 220c112 0 219 -91 219 -216c0 -36 -9 -67 -19 -93c-33 -87 -102 -200 -186 -366h-32l150 282c-34 -31 -82 -47 -130 -47c-121 0 -221 100 -221 220zM264 458c-112 0 -192 -95 -192 -196c0 -104 85 -193 193 -193c111 0 192 94 192 196
c0 103 -84 193 -193 193z" />
    <glyph glyph-name="ordfeminine" unicode="&#xaa;" horiz-adv-x="448" 
d="M398 407h-28v74c-27 -52 -84 -82 -146 -82c-95 0 -174 73 -174 169c0 94 75 173 174 173c61 0 119 -30 146 -82v73h28v-325zM225 425c84 0 145 67 145 144c0 89 -62 146 -146 146c-86 0 -146 -66 -146 -146s62 -144 147 -144z" />
    <glyph glyph-name="ordmasculine" unicode="&#xba;" horiz-adv-x="448" 
d="M398 570c0 -94 -76 -171 -174 -171c-95 0 -174 73 -174 169c0 94 75 173 174 173c96 0 174 -75 174 -171zM225 425c86 0 145 65 145 145s-60 145 -146 145s-146 -66 -146 -146s62 -144 147 -144z" />
    <glyph glyph-name="onesuperior" unicode="&#xb9;" horiz-adv-x="225" 
d="M175 296h-28v418h-107v26h135v-444z" />
    <glyph glyph-name="twosuperior" unicode="&#xb2;" horiz-adv-x="371" 
d="M326 296h-286v23l200 193c41 39 55 70 55 105c0 49 -27 106 -109 106c-73 0 -110 -46 -114 -131h-28c0 107 68 156 145 156c78 0 134 -50 134 -128c0 -50 -23 -86 -64 -126l-180 -173h247v-25z" />
    <glyph glyph-name="threesuperior" unicode="&#xb3;" horiz-adv-x="378" 
d="M328 426c0 -75 -58 -136 -138 -136c-71 0 -139 49 -140 149h28c3 -100 70 -124 115 -124c64 0 107 50 107 109c0 51 -33 97 -119 97h-7v25h7c81 0 105 57 105 95c0 41 -28 81 -85 81c-52 0 -88 -34 -89 -81h-28c3 76 60 106 116 106c70 0 114 -48 114 -108
c0 -57 -41 -94 -71 -103c47 -13 85 -49 85 -110z" />
    <glyph glyph-name="onequarter" unicode="&#xbc;" horiz-adv-x="725" 
d="M607 0h-28v87h-232v21l226 326h34v-321h58v-26h-58v-87zM579 113v286l-198 -286h198zM158 0h-29l406 740h29zM175 296h-28v418h-107v26h135v-444z" />
    <glyph glyph-name="onehalf" unicode="&#xbd;" horiz-adv-x="792" 
d="M175 296h-28v418h-107v26h135v-444zM732 0h-286v23l200 193c41 39 55 70 55 105c0 49 -27 106 -109 106c-73 0 -110 -46 -114 -131h-28c0 107 68 156 145 156c78 0 134 -50 134 -128c0 -50 -23 -86 -64 -126l-180 -173h247v-25zM152 0h-29l406 740h29z" />
    <glyph glyph-name="threequarters" unicode="&#xbe;" horiz-adv-x="836" 
d="M718 0h-28v87h-232v21l226 326h34v-321h58v-26h-58v-87zM690 113v286l-198 -286h198zM328 426c0 -75 -58 -136 -138 -136c-71 0 -139 49 -140 149h28c3 -100 70 -124 115 -124c64 0 107 50 107 109c0 51 -33 97 -119 97h-7v25h7c81 0 105 57 105 95c0 41 -28 81 -85 81
c-52 0 -88 -34 -89 -81h-28c3 76 60 106 116 106c70 0 114 -48 114 -108c0 -57 -41 -94 -71 -103c47 -13 85 -49 85 -110zM264 0h-29l406 740h29z" />
    <glyph glyph-name="percent" unicode="%" horiz-adv-x="869" 
d="M428 567c0 -103 -86 -187 -189 -187s-189 84 -189 187s86 187 189 187s189 -84 189 -187zM239 406c91 0 161 72 161 161s-70 162 -161 162s-161 -73 -161 -162s70 -161 161 -161zM819 173c0 -103 -86 -187 -189 -187s-189 84 -189 187s86 187 189 187s189 -84 189 -187z
M630 12c91 0 161 72 161 161s-70 162 -161 162s-161 -73 -161 -162s70 -161 161 -161zM246 0h-29l406 740h29z" />
    <glyph glyph-name="perthousand" unicode="&#x2030;" horiz-adv-x="1293" 
d="M428 567c0 -103 -86 -187 -189 -187s-189 84 -189 187s86 187 189 187s189 -84 189 -187zM239 406c91 0 161 72 161 161s-70 162 -161 162s-161 -73 -161 -162s70 -161 161 -161zM818 173c0 -103 -86 -187 -189 -187s-189 84 -189 187s86 187 189 187s189 -84 189 -187z
M629 12c91 0 161 72 161 161s-70 162 -161 162s-161 -73 -161 -162s70 -161 161 -161zM245 0h-29l406 740h29zM1243 173c0 -103 -86 -187 -189 -187s-189 84 -189 187s86 187 189 187s189 -84 189 -187zM1054 12c91 0 161 72 161 161s-70 162 -161 162s-161 -73 -161 -162
s70 -161 161 -161z" />
    <glyph glyph-name="plus" unicode="+" horiz-adv-x="604" 
d="M316 93h-28v239h-238v28h238v239h28v-239h238v-28h-238v-239z" />
    <glyph glyph-name="minus" unicode="&#x2212;" horiz-adv-x="604" 
d="M50 360h504v-28h-504v28z" />
    <glyph glyph-name="multiply" unicode="&#xd7;" horiz-adv-x="488" 
d="M75 157l-20 20l169 169l-168 168l20 20l168 -168l169 169l20 -20l-169 -169l168 -168l-20 -20l-168 168z" />
    <glyph glyph-name="divide" unicode="&#xf7;" horiz-adv-x="604" 
d="M50 360h504v-28h-504v28zM302 144c-12 0 -21 9 -21 21c0 13 9 22 21 22c13 0 22 -9 22 -22c0 -12 -9 -21 -22 -21zM302 505c-12 0 -21 9 -21 21c0 13 9 22 21 22c13 0 22 -9 22 -22c0 -12 -9 -21 -22 -21z" />
    <glyph glyph-name="plusminus" unicode="&#xb1;" 
d="M55 28h504v-28h-504v28zM321 135h-28v239h-238v28h238v239h28v-239h238v-28h-238v-239z" />
    <glyph glyph-name="equal" unicode="=" 
d="M559 433h-504v28h504v-28zM559 231h-504v28h504v-28z" />
    <glyph glyph-name="dollar" unicode="$" horiz-adv-x="539" 
d="M40 107l20 23c43 -68 130 -116 208 -116h1v357c-96 38 -191 77 -191 196c0 92 58 175 191 185v69h28v-68c71 0 123 -20 177 -70l-19 -23c-40 44 -97 65 -158 66v-334c95 -38 192 -80 192 -200c0 -113 -85 -192 -192 -203v-69h-28v67c-104 1 -192 63 -229 120zM459 189
c0 98 -77 136 -162 171v-344c82 11 162 73 162 173zM108 571c0 -95 76 -133 161 -167v320c-89 -8 -161 -61 -161 -153z" />
    <glyph glyph-name="cent" unicode="&#xa2;" horiz-adv-x="589" 
d="M323 0h-28v123c-127 9 -230 117 -230 247c0 128 100 241 230 249v121h28v-121c84 -4 158 -51 200 -119l-23 -13c-37 61 -101 103 -177 107v-445c77 3 141 47 177 107l24 -13c-42 -69 -117 -116 -201 -120v-123zM93 371c0 -113 86 -212 202 -222v444
c-118 -9 -202 -111 -202 -222z" />
    <glyph glyph-name="sterling" unicode="&#xa3;" horiz-adv-x="573" 
d="M130 543c0 -62 25 -114 46 -166h236v-27h-226c9 -27 16 -54 16 -82c0 -85 -60 -195 -134 -241h452v-27h-490v32c100 53 143 164 143 234c0 29 -7 56 -17 84h-97v27h87c-21 52 -46 105 -46 168c0 105 69 208 209 208c128 0 200 -85 214 -210h-28c-13 80 -46 183 -186 183
c-148 0 -179 -115 -179 -183z" />
    <glyph glyph-name="Euro" unicode="&#x20ac;" horiz-adv-x="583" 
d="M405 290h-288v-28c0 -201 135 -248 208 -248c72 0 158 34 179 155h29c-24 -148 -130 -182 -208 -182c-70 0 -238 45 -238 275v28h-87l10 27h77v106h-77l10 27h67v28c0 181 109 275 238 275c128 0 191 -67 208 -183h-29c-12 87 -55 156 -179 156
c-144 0 -208 -111 -208 -248v-28h341l-10 -27h-331v-106h298z" />
    <glyph glyph-name="yen" unicode="&#xa5;" horiz-adv-x="610" 
d="M559 218h-239v-218h-30v218h-239v29h239v91l-35 50h-204v29h184l-225 323h34l261 -370l261 370h34l-225 -323h184v-29h-204l-35 -50v-91h239v-29z" />
    <glyph glyph-name="florin" unicode="&#x192;" horiz-adv-x="265" 
d="M240 449h-133v-402c0 -113 -18 -187 -105 -210v29c65 23 78 88 78 180v403h-60v26h60v14c0 137 26 216 169 218v-27c-121 -1 -142 -73 -142 -190v-15h133v-26z" />
    <glyph glyph-name="currency" unicode="&#xa4;" horiz-adv-x="566" 
d="M498 110l-76 76c-40 -32 -88 -51 -139 -51c-52 0 -101 20 -139 51l-77 -76l-20 21l77 77c-36 40 -56 88 -56 140c0 53 20 101 54 138l-77 77l21 21l77 -77c40 35 89 54 140 54c52 0 101 -19 140 -53l76 76l22 -21l-76 -77c33 -37 53 -84 53 -138c0 -53 -20 -101 -56 -140
l77 -77zM98 348c0 -101 88 -183 185 -183c99 0 185 82 185 183c0 103 -86 183 -185 183c-97 0 -185 -79 -185 -183z" />
    <glyph glyph-name="exclam" unicode="!" horiz-adv-x="243" 
d="M133 163h-19l-6 295v282h30v-282zM121 -5c-12 0 -21 9 -21 21c0 13 9 22 21 22c13 0 22 -9 22 -22c0 -12 -9 -21 -22 -21z" />
    <glyph glyph-name="exclamdown" unicode="&#xa1;" horiz-adv-x="203" 
d="M90 385h19l6 -295v-282h-30v282zM102 553c12 0 21 -9 21 -21c0 -13 -9 -22 -21 -22c-13 0 -22 9 -22 22c0 12 9 21 22 21z" />
    <glyph glyph-name="question" unicode="?" horiz-adv-x="508" 
d="M468 571c0 -108 -77 -154 -148 -187c-56 -26 -100 -48 -100 -133v-86h-30v84c0 87 31 116 118 160c53 27 130 60 130 159c0 91 -65 153 -171 153c-93 0 -167 -47 -172 -186h-30c7 168 105 217 202 217c112 0 201 -65 201 -181zM205 -5c-12 0 -21 9 -21 21
c0 13 9 22 21 22c13 0 22 -9 22 -22c0 -12 -9 -21 -22 -21z" />
    <glyph glyph-name="questiondown" unicode="&#xbf;" horiz-adv-x="473" 
d="M50 -23c0 108 77 154 148 187c56 26 100 48 100 133v86h30v-84c0 -87 -31 -116 -118 -160c-53 -27 -130 -60 -130 -159c0 -91 65 -153 171 -153c93 0 167 47 172 186h30c-7 -168 -105 -217 -202 -217c-112 0 -201 65 -201 181zM313 553c12 0 21 -9 21 -21
c0 -13 -9 -22 -21 -22c-13 0 -22 9 -22 22c0 12 9 21 22 21z" />
    <glyph glyph-name="quoteright" unicode="'" horiz-adv-x="201" 
d="M110 484h-20l-10 256h41z" />
    <glyph glyph-name="quotedbl" unicode="&#x22;" horiz-adv-x="317" 
d="M110 484h-20l-10 256h41zM226 484h-20l-10 256h41z" />
    <glyph glyph-name="quoteleft" unicode="&#x2018;" horiz-adv-x="142" 
d="M88 740v-14c-9 -3 -25 -16 -25 -45c2 1 5 2 8 2c13 0 21 -10 21 -21c0 -12 -8 -22 -21 -22c-15 0 -24 11 -24 35c0 32 15 61 41 65z" />
    <glyph glyph-name="quoteright" unicode="&#x2019;" horiz-adv-x="142" 
d="M54 640v14c9 3 25 16 25 45c-2 -1 -5 -2 -8 -2c-13 0 -21 10 -21 21c0 12 8 22 21 22c15 0 24 -11 24 -35c0 -32 -15 -61 -41 -65z" />
    <glyph glyph-name="quotedblleft" unicode="&#x201c;" horiz-adv-x="242" 
d="M188 740v-14c-9 -3 -25 -16 -25 -45c2 1 5 2 8 2c13 0 21 -10 21 -21c0 -12 -8 -22 -21 -22c-15 0 -24 11 -24 35c0 32 15 61 41 65zM88 740v-14c-9 -3 -25 -16 -25 -45c2 1 5 2 8 2c13 0 21 -10 21 -21c0 -12 -8 -22 -21 -22c-15 0 -24 11 -24 35c0 32 15 61 41 65z" />
    <glyph glyph-name="quotedblright" unicode="&#x201d;" horiz-adv-x="242" 
d="M54 640v14c9 3 25 16 25 45c-2 -1 -5 -2 -8 -2c-13 0 -21 10 -21 21c0 12 8 22 21 22c15 0 24 -11 24 -35c0 -32 -15 -61 -41 -65zM154 640v14c9 3 25 16 25 45c-2 -1 -5 -2 -8 -2c-13 0 -21 10 -21 21c0 12 8 22 21 22c15 0 24 -11 24 -35c0 -32 -15 -61 -41 -65z" />
    <glyph glyph-name="quotesinglbase" unicode="&#x201a;" horiz-adv-x="142" 
d="M54 -62v14c9 3 25 16 25 45c-2 -1 -5 -2 -8 -2c-13 0 -21 10 -21 21c0 12 8 22 21 22c15 0 24 -11 24 -35c0 -32 -15 -61 -41 -65z" />
    <glyph glyph-name="quotedblbase" unicode="&#x201e;" horiz-adv-x="242" 
d="M54 -62v14c9 3 25 16 25 45c-2 -1 -5 -2 -8 -2c-13 0 -21 10 -21 21c0 12 8 22 21 22c15 0 24 -11 24 -35c0 -32 -15 -61 -41 -65zM154 -62v14c9 3 25 16 25 45c-2 -1 -5 -2 -8 -2c-13 0 -21 10 -21 21c0 12 8 22 21 22c15 0 24 -11 24 -35c0 -32 -15 -61 -41 -65z" />
    <glyph glyph-name="guilsinglleft" unicode="&#x2039;" horiz-adv-x="241" 
d="M201 52h-34l-127 201l127 199h32l-124 -199z" />
    <glyph glyph-name="guilsinglright" unicode="&#x203a;" horiz-adv-x="241" 
d="M74 52h-34l126 201l-124 199h32l127 -199z" />
    <glyph glyph-name="guillemotleft" unicode="&#xab;" horiz-adv-x="379" 
d="M201 52h-34l-127 201l127 199h32l-124 -199zM339 52h-34l-127 201l127 199h32l-124 -199z" />
    <glyph glyph-name="guillemotright" unicode="&#xbb;" horiz-adv-x="379" 
d="M74 52h-34l126 201l-124 199h32l127 -199zM212 52h-34l126 201l-124 199h32l127 -199z" />
    <glyph glyph-name="dagger" unicode="&#x2020;" horiz-adv-x="534" 
d="M282 -253h-30v728h-202v27h202v238h30v-238h202v-27h-202v-728z" />
    <glyph glyph-name="daggerdbl" unicode="&#x2021;" horiz-adv-x="554" 
d="M292 -253h-30v285h-202v27h202v445h-202v27h202v209h30v-209h202v-27h-202v-445h202v-27h-202v-285z" />
    <glyph glyph-name="parenleft" unicode="(" horiz-adv-x="337" 
d="M327 -178l-13 -23c-124 73 -264 228 -264 477c0 248 140 404 264 476l13 -22c-124 -72 -245 -248 -245 -454c0 -208 121 -381 245 -454z" />
    <glyph glyph-name="parenright" unicode=")" horiz-adv-x="337" 
d="M23 -201l-13 23c124 73 245 246 245 454c0 206 -121 382 -245 454l13 22c124 -72 264 -228 264 -476c0 -249 -140 -404 -264 -477z" />
    <glyph glyph-name="bracketleft" unicode="[" horiz-adv-x="247" 
d="M237 -177v-25h-177v942h177v-26h-146v-891h146z" />
    <glyph glyph-name="bracketright" unicode="]" horiz-adv-x="247" 
d="M10 -202v25h146v891h-146v26h177v-942h-177z" />
    <glyph glyph-name="braceleft" unicode="{" horiz-adv-x="268" 
d="M258 -203h-53c-73 0 -76 66 -76 131v202c0 73 -28 116 -109 119v38c79 3 109 48 109 120v202c0 65 3 131 76 131h53v-26h-50c-43 0 -48 -54 -48 -86v-224c0 -75 -29 -117 -97 -135c67 -11 97 -70 97 -150v-210c0 -32 5 -86 48 -86h50v-26z" />
    <glyph glyph-name="braceright" unicode="}" horiz-adv-x="268" 
d="M63 -203h-53v26h50c43 0 48 54 48 86v210c0 80 30 139 97 150c-68 18 -97 60 -97 135v224c0 32 -5 86 -48 86h-50v26h53c73 0 76 -66 76 -131v-202c0 -72 30 -117 109 -120v-38c-81 -3 -109 -46 -109 -119v-202c0 -65 -3 -131 -76 -131z" />
    <glyph glyph-name="less" unicode="&#x3c;" horiz-adv-x="408" 
d="M368 29l-25 -23l-343 340l343 340l23 -22l-322 -318z" />
    <glyph glyph-name="greater" unicode="&#x3e;" horiz-adv-x="408" 
d="M65 6l-25 23l324 317l-322 318l23 22l343 -340z" />
    <glyph glyph-name="bar" unicode="|" horiz-adv-x="170" 
d="M100 -140h-30v880h30v-880z" />
    <glyph glyph-name="brokenbar" unicode="&#xa6;" horiz-adv-x="170" 
d="M100 390h-30v350h30v-350zM100 -140h-30v350h30v-350z" />
    <glyph glyph-name="slash" unicode="/" horiz-adv-x="435" 
d="M29 0h-29l406 740h29z" />
    <glyph glyph-name="backslash" unicode="\" horiz-adv-x="435" 
d="M435 0h-29l-406 740h29z" />
    <glyph glyph-name="fraction" unicode="&#x2044;" horiz-adv-x="128" 
d="M-124 0h-29l406 740h29z" />
    <glyph glyph-name="period" unicode="." horiz-adv-x="243" 
d="M121 -5c-12 0 -21 9 -21 21c0 13 9 22 21 22c13 0 22 -9 22 -22c0 -12 -9 -21 -22 -21z" />
    <glyph glyph-name="comma" unicode="," horiz-adv-x="242" 
d="M104 -62v14c9 3 25 16 25 45c-2 -1 -5 -2 -8 -2c-13 0 -21 10 -21 21c0 12 8 22 21 22c15 0 24 -11 24 -35c0 -32 -15 -61 -41 -65z" />
    <glyph glyph-name="colon" unicode=":" horiz-adv-x="243" 
d="M121 -5c-12 0 -21 9 -21 21c0 13 9 22 21 22c13 0 22 -9 22 -22c0 -12 -9 -21 -22 -21zM121 432c-12 0 -21 9 -21 21c0 13 9 22 21 22c13 0 22 -9 22 -22c0 -12 -9 -21 -22 -21z" />
    <glyph glyph-name="semicolon" unicode=";" horiz-adv-x="242" 
d="M104 -62v14c9 3 25 16 25 45c-2 -1 -5 -2 -8 -2c-13 0 -21 10 -21 21c0 12 8 22 21 22c15 0 24 -11 24 -35c0 -32 -15 -61 -41 -65zM121 432c-12 0 -21 9 -21 21c0 13 9 22 21 22c13 0 22 -9 22 -22c0 -12 -9 -21 -22 -21z" />
    <glyph glyph-name="ellipsis" unicode="&#x2026;" horiz-adv-x="729" 
d="M121 -5c-12 0 -21 9 -21 21c0 13 9 22 21 22c13 0 22 -9 22 -22c0 -12 -9 -21 -22 -21zM364 -5c-12 0 -21 9 -21 21c0 13 9 22 21 22c13 0 22 -9 22 -22c0 -12 -9 -21 -22 -21zM607 -5c-12 0 -21 9 -21 21c0 13 9 22 21 22c13 0 22 -9 22 -22c0 -12 -9 -21 -22 -21z" />
    <glyph glyph-name="periodcentered" unicode="&#xb7;" horiz-adv-x="243" 
d="M121 233c-12 0 -21 9 -21 21c0 13 9 22 21 22c13 0 22 -9 22 -22c0 -12 -9 -21 -22 -21z" />
    <glyph glyph-name="bullet" unicode="&#x2022;" horiz-adv-x="375" 
d="M188 257c-66 0 -118 55 -118 120c0 66 52 120 119 120c65 0 116 -56 116 -120c0 -65 -52 -120 -117 -120z" />
    <glyph glyph-name="hyphen" unicode="-" horiz-adv-x="392" 
d="M332 243h-272v29h272v-29z" />
    <glyph glyph-name="endash" unicode="&#x2013;" horiz-adv-x="569" 
d="M549 243h-529v29h529v-29z" />
    <glyph glyph-name="emdash" unicode="&#x2014;" horiz-adv-x="1014" 
d="M994 243h-974v29h974v-29z" />
    <glyph glyph-name="underscore" unicode="_" horiz-adv-x="563" 
d="M543 -29h-523v29h523v-29z" />
    <glyph glyph-name="logicalnot" unicode="&#xac;" horiz-adv-x="620" 
d="M50 360h510v-267h-28v239h-482v28z" />
    <glyph glyph-name="mu" unicode="&#xb5;" horiz-adv-x="581" 
d="M113 -253h-28v728h28v-275c0 -132 68 -187 181 -187s181 55 181 187v275h28v-274c0 -149 -77 -214 -209 -214c-86 0 -153 27 -181 96v-336z" />
    <glyph glyph-name="degree" unicode="&#xb0;" horiz-adv-x="380" 
d="M340 570c0 -83 -67 -150 -150 -150s-150 67 -150 150s67 150 150 150s150 -67 150 -150zM312 570c0 68 -54 122 -122 122s-122 -54 -122 -122s54 -122 122 -122s122 54 122 122z" />
    <glyph glyph-name="asterisk" unicode="*" horiz-adv-x="352" 
d="M312 530l-14 -24l-108 61v-123h-29v124l-106 -62l-15 25l107 62l-107 60l15 26l106 -62v123h29v-123l106 62l14 -25l-105 -61z" />
    <glyph glyph-name="asciicircum" unicode="^" horiz-adv-x="522" 
d="M487 336h-32l-195 371l-193 -371h-32l209 404h32z" />
    <glyph glyph-name="asciitilde" unicode="~" horiz-adv-x="542" 
d="M468 368h22c1 -11 2 -12 2 -21c0 -46 -25 -86 -93 -86c-97 0 -155 80 -257 80c-53 0 -69 -22 -69 -60c0 -6 0 -12 1 -19h-22c-1 9 -2 17 -2 25c0 35 19 82 97 82c101 0 162 -80 255 -80c53 0 67 26 67 61c0 6 0 12 -1 18z" />
    <glyph glyph-name="section" unicode="&#xa7;" horiz-adv-x="495" 
d="M450 236c0 -79 -39 -119 -95 -153c54 -31 86 -66 86 -120c0 -92 -94 -136 -178 -136c-68 0 -211 29 -211 196h28c0 -105 68 -166 179 -166c89 0 154 40 154 104c0 65 -67 97 -120 122l-147 68c-25 11 -101 53 -101 154c0 63 29 116 99 152c-51 30 -66 81 -66 118
c0 86 78 148 182 148s179 -62 179 -169h-28c-9 108 -74 139 -150 139c-94 0 -155 -48 -155 -122c0 -54 32 -86 123 -130l102 -49c66 -32 119 -64 119 -156zM422 234c0 73 -47 105 -83 122l-172 83c-54 -26 -94 -67 -94 -132c0 -55 30 -103 77 -125l177 -82
c36 16 95 52 95 134z" />
    <glyph glyph-name="at" unicode="@" horiz-adv-x="965" 
d="M734 -157l16 -23c-57 -43 -139 -82 -256 -82c-241 0 -444 164 -444 448c0 300 226 451 450 451c209 0 415 -131 415 -399c0 -187 -101 -275 -181 -275c-53 0 -97 38 -97 108v18c-35 -71 -107 -103 -175 -103c-114 0 -196 88 -196 206c0 119 82 207 199 207
c65 0 128 -27 173 -99v91h28v-318c0 -54 30 -82 69 -82c66 0 150 81 150 249c0 265 -209 370 -384 370c-190 0 -421 -123 -421 -424c0 -284 206 -421 417 -421c72 0 163 16 237 78zM465 11c102 0 173 83 173 182c0 100 -72 180 -172 180c-99 0 -173 -79 -173 -182
c0 -105 75 -180 172 -180z" />
    <glyph glyph-name="copyright" unicode="&#xa9;" horiz-adv-x="864" 
d="M608 275l21 -15c-38 -62 -106 -103 -192 -103c-115 0 -201 95 -201 212c0 114 83 214 200 214c86 0 154 -42 192 -103l-20 -17c-33 55 -92 94 -171 94c-105 0 -173 -92 -173 -188c0 -97 71 -186 174 -186c80 0 138 39 170 92zM814 370c0 -210 -171 -382 -382 -382
c-210 0 -382 170 -382 382s172 382 383 382s381 -172 381 -382zM432 15c198 0 354 159 354 355s-156 355 -354 355s-354 -158 -354 -355c0 -196 156 -355 354 -355z" />
    <glyph glyph-name="registered" unicode="&#xae;" horiz-adv-x="864" 
d="M814 370c0 -210 -171 -382 -382 -382c-210 0 -382 170 -382 382s172 382 383 382s381 -172 381 -382zM432 15c198 0 354 159 354 355s-156 355 -354 355s-354 -158 -354 -355c0 -196 156 -355 354 -355zM618 150h-31l-123 206h-14h-133v-206h-28v438h161
c107 0 158 -33 158 -116c0 -69 -37 -105 -114 -114zM317 562v-180h133c95 0 130 28 130 90s-35 90 -130 90h-133z" />
    <glyph glyph-name="trademark" unicode="&#x2122;" horiz-adv-x="748" 
d="M678 740v-342h-28v306l-126 -123h-12l-125 122v-305h-28v342h30l129 -130l137 130h23zM178 398h-28v318h-100v24h227v-24h-99v-318z" />
    <glyph glyph-name="quoteleft" unicode="`" horiz-adv-x="312" 
d="M248 540l-198 105l16 28l195 -110z" />
    <glyph glyph-name="acute" unicode="&#xb4;" horiz-adv-x="312" 
d="M262 645l-198 -105l-13 23l195 110z" />
    <glyph glyph-name="circumflex" unicode="&#x2c6;" horiz-adv-x="420" 
d="M211 697l159 -137l-19 -19l-140 124l-142 -124l-19 19z" />
    <glyph glyph-name="tilde" unicode="&#x2dc;" horiz-adv-x="423" 
d="M349 600l24 -16c-27 -25 -57 -43 -95 -43c-56 0 -99 41 -143 41c-25 0 -46 -13 -64 -30l-21 21c22 21 51 35 87 35c62 0 99 -41 143 -41c24 0 48 12 69 33z" />
    <glyph glyph-name="macron" unicode="&#xaf;" horiz-adv-x="438" 
d="M388 558h-338v27h338v-27z" />
    <glyph glyph-name="breve" unicode="&#x2d8;" horiz-adv-x="433" 
d="M207 566c51 0 86 32 87 77h27c-1 -58 -48 -103 -113 -103c-67 0 -114 47 -114 103h27c1 -43 35 -77 86 -77z" />
    <glyph glyph-name="dotaccent" unicode="&#x2d9;" horiz-adv-x="143" 
d="M71 560c-12 0 -21 9 -21 21c0 13 9 22 21 22c13 0 22 -9 22 -22c0 -12 -9 -21 -22 -21z" />
    <glyph glyph-name="dieresis" unicode="&#xa8;" horiz-adv-x="260" 
d="M71 541c-12 0 -21 9 -21 21c0 13 9 22 21 22c13 0 22 -9 22 -22c0 -12 -9 -21 -22 -21zM188 541c-12 0 -21 9 -21 21c0 13 9 22 21 22c13 0 22 -9 22 -22c0 -12 -9 -21 -22 -21z" />
    <glyph glyph-name="ring" unicode="&#x2da;" horiz-adv-x="307" 
d="M257 601c0 -58 -47 -104 -103 -104c-57 0 -104 47 -104 103s46 104 104 104c56 0 103 -46 103 -103zM153 523c41 0 76 32 76 77s-34 78 -75 78c-43 0 -76 -36 -76 -78c0 -43 34 -77 75 -77z" />
    <glyph glyph-name="cedilla" unicode="&#xb8;" horiz-adv-x="293" 
d="M141 -71h-57l25 71h27l-17 -47h24c50 0 100 -15 100 -80c0 -67 -49 -90 -96 -90c-39 0 -84 24 -97 80h27c11 -42 38 -58 73 -58c39 0 66 20 66 64c0 32 -14 60 -75 60z" />
    <glyph glyph-name="hungarumlaut" unicode="&#x2dd;" horiz-adv-x="431" 
d="M231 675l-163 -134l-18 20l160 138zM381 675l-163 -134l-18 20l160 138z" />
    <glyph glyph-name="ogonek" unicode="&#x2db;" horiz-adv-x="248" 
d="M198 -157v-24c-15 -5 -29 -7 -43 -7c-54 0 -105 31 -105 98c0 31 11 66 29 90h31c-15 -21 -29 -48 -29 -80c0 -51 37 -82 80 -82c7 0 24 1 37 5z" />
    <glyph glyph-name="caron" unicode="&#x2c7;" horiz-adv-x="420" 
d="M370 678l-160 -137l-160 137l19 19l141 -124l141 124z" />
    <glyph glyph-name="paragraph" unicode="&#xb6;" horiz-adv-x="618" 
d="M474 -193h-30v906h-161v-906h-30v488c-155 15 -223 121 -223 223c0 113 83 222 233 222h335v-27h-124v-906zM253 322v391c-145 0 -194 -119 -194 -195c0 -74 47 -185 194 -196z" />
    <glyph glyph-name="Agrave" unicode="&#xc0;" horiz-adv-x="673" 
d="M636 0l-96 228h-408l-96 -228h-31l311 740h39l313 -740h-32zM336 713l-193 -458h385zM399 805l-198 105l16 28l195 -110z" />
    <glyph glyph-name="Aacute" unicode="&#xc1;" horiz-adv-x="673" 
d="M636 0l-96 228h-408l-96 -228h-31l311 740h39l313 -740h-32zM336 713l-193 -458h385zM442 910l-198 -105l-13 23l195 110z" />
    <glyph glyph-name="Acircumflex" unicode="&#xc2;" horiz-adv-x="673" 
d="M636 0l-96 228h-408l-96 -228h-31l311 740h39l313 -740h-32zM336 713l-193 -458h385zM337 962l159 -137l-19 -19l-140 124l-142 -124l-19 19z" />
    <glyph glyph-name="Atilde" unicode="&#xc3;" horiz-adv-x="673" 
d="M636 0l-96 228h-408l-96 -228h-31l311 740h39l313 -740h-32zM336 713l-193 -458h385zM474 865l24 -16c-27 -25 -57 -43 -95 -43c-56 0 -99 41 -143 41c-25 0 -46 -13 -64 -30l-21 21c22 21 51 35 87 35c62 0 99 -41 143 -41c24 0 48 12 69 33z" />
    <glyph glyph-name="Adieresis" unicode="&#xc4;" horiz-adv-x="673" 
d="M636 0l-96 228h-408l-96 -228h-31l311 740h39l313 -740h-32zM336 713l-193 -458h385zM277 806c-12 0 -21 9 -21 21c0 13 9 22 21 22c13 0 22 -9 22 -22c0 -12 -9 -21 -22 -21zM394 806c-12 0 -21 9 -21 21c0 13 9 22 21 22c13 0 22 -9 22 -22c0 -12 -9 -21 -22 -21z" />
    <glyph glyph-name="Aring" unicode="&#xc5;" horiz-adv-x="673" 
d="M636 0l-96 228h-408l-96 -228h-31l311 740h39l313 -740h-32zM336 713l-193 -458h385zM440 866c0 -58 -47 -104 -103 -104c-57 0 -104 47 -104 103s46 104 104 104c56 0 103 -46 103 -103zM336 788c41 0 76 32 76 77s-34 78 -75 78c-43 0 -76 -36 -76 -78
c0 -43 34 -77 75 -77z" />
    <glyph glyph-name="agrave" unicode="&#xe0;" 
d="M529 0h-28v130c-34 -86 -115 -143 -210 -143c-139 0 -246 111 -246 247c0 133 103 250 246 250c96 0 176 -58 210 -144v135h28v-475zM292 13c129 0 205 112 209 216v8c0 110 -82 221 -210 221c-131 0 -218 -107 -218 -223c0 -118 89 -222 219 -222zM379 540l-198 105
l16 28l195 -110z" />
    <glyph glyph-name="aacute" unicode="&#xe1;" 
d="M529 0h-28v130c-34 -86 -115 -143 -210 -143c-139 0 -246 111 -246 247c0 133 103 250 246 250c96 0 176 -58 210 -144v135h28v-475zM292 13c129 0 205 112 209 216v8c0 110 -82 221 -210 221c-131 0 -218 -107 -218 -223c0 -118 89 -222 219 -222zM422 645l-198 -105
l-13 23l195 110z" />
    <glyph glyph-name="acircumflex" unicode="&#xe2;" 
d="M529 0h-28v130c-34 -86 -115 -143 -210 -143c-139 0 -246 111 -246 247c0 133 103 250 246 250c96 0 176 -58 210 -144v135h28v-475zM292 13c129 0 205 112 209 216v8c0 110 -82 221 -210 221c-131 0 -218 -107 -218 -223c0 -118 89 -222 219 -222zM288 697l159 -137
l-19 -19l-140 124l-142 -124l-19 19z" />
    <glyph glyph-name="atilde" unicode="&#xe3;" 
d="M529 0h-28v130c-34 -86 -115 -143 -210 -143c-139 0 -246 111 -246 247c0 133 103 250 246 250c96 0 176 -58 210 -144v135h28v-475zM292 13c129 0 205 112 209 216v8c0 110 -82 221 -210 221c-131 0 -218 -107 -218 -223c0 -118 89 -222 219 -222zM424 600l24 -16
c-27 -25 -57 -43 -95 -43c-56 0 -99 41 -143 41c-25 0 -46 -13 -64 -30l-21 21c22 21 51 35 87 35c62 0 99 -41 143 -41c24 0 48 12 69 33z" />
    <glyph glyph-name="adieresis" unicode="&#xe4;" 
d="M529 0h-28v130c-34 -86 -115 -143 -210 -143c-139 0 -246 111 -246 247c0 133 103 250 246 250c96 0 176 -58 210 -144v135h28v-475zM292 13c129 0 205 112 209 216v8c0 110 -82 221 -210 221c-131 0 -218 -107 -218 -223c0 -118 89 -222 219 -222zM228 541
c-12 0 -21 9 -21 21c0 13 9 22 21 22c13 0 22 -9 22 -22c0 -12 -9 -21 -22 -21zM345 541c-12 0 -21 9 -21 21c0 13 9 22 21 22c13 0 22 -9 22 -22c0 -12 -9 -21 -22 -21z" />
    <glyph glyph-name="aring" unicode="&#xe5;" 
d="M529 0h-28v130c-34 -86 -115 -143 -210 -143c-139 0 -246 111 -246 247c0 133 103 250 246 250c96 0 176 -58 210 -144v135h28v-475zM292 13c129 0 205 112 209 216v8c0 110 -82 221 -210 221c-131 0 -218 -107 -218 -223c0 -118 89 -222 219 -222zM386 611
c0 -58 -47 -104 -103 -104c-57 0 -104 47 -104 103s46 104 104 104c56 0 103 -46 103 -103zM282 533c41 0 76 32 76 77s-34 78 -75 78c-43 0 -76 -36 -76 -78c0 -43 34 -77 75 -77z" />
    <glyph glyph-name="Ccedilla" unicode="&#xc7;" horiz-adv-x="717" 
d="M431 -78h-57l23 66c-202 12 -362 173 -362 381c0 211 166 384 386 384c110 0 206 -44 276 -116l-24 -16c-64 64 -151 105 -252 105c-207 0 -356 -167 -356 -358c0 -195 156 -354 357 -354c97 0 181 38 244 98l22 -17c-69 -67 -159 -107 -264 -108l-15 -41h24
c50 0 100 -15 100 -80c0 -67 -49 -90 -96 -90c-39 0 -84 24 -97 80h27c11 -42 38 -58 73 -58c39 0 66 20 66 64c0 32 -14 60 -75 60z" />
    <glyph glyph-name="ccedilla" unicode="&#xe7;" horiz-adv-x="529" 
d="M304 -71h-57l21 60c-124 11 -223 117 -223 245c0 134 109 250 246 250c89 0 168 -49 212 -120l-23 -13c-38 64 -107 107 -188 107c-127 0 -219 -107 -219 -223c0 -118 95 -222 220 -222c82 0 150 45 187 107l24 -13c-44 -72 -122 -119 -210 -120l-12 -34h24
c50 0 100 -15 100 -80c0 -67 -49 -90 -96 -90c-39 0 -84 24 -97 80h27c11 -42 38 -58 73 -58c39 0 66 20 66 64c0 32 -14 60 -75 60z" />
    <glyph glyph-name="Egrave" unicode="&#xc8;" horiz-adv-x="541" 
d="M486 0h-396v740h396v-27h-366v-313h325v-27h-325v-346h366v-27zM363 805l-198 105l16 28l195 -110z" />
    <glyph glyph-name="Eacute" unicode="&#xc9;" horiz-adv-x="541" 
d="M486 0h-396v740h396v-27h-366v-313h325v-27h-325v-346h366v-27zM426 910l-198 -105l-13 23l195 110z" />
    <glyph glyph-name="Ecircumflex" unicode="&#xca;" horiz-adv-x="541" 
d="M486 0h-396v740h396v-27h-366v-313h325v-27h-325v-346h366v-27zM284 962l159 -137l-19 -19l-140 124l-142 -124l-19 19z" />
    <glyph glyph-name="Edieresis" unicode="&#xcb;" horiz-adv-x="541" 
d="M486 0h-396v740h396v-27h-366v-313h325v-27h-325v-346h366v-27zM241 806c-12 0 -21 9 -21 21c0 13 9 22 21 22c13 0 22 -9 22 -22c0 -12 -9 -21 -22 -21zM358 806c-12 0 -21 9 -21 21c0 13 9 22 21 22c13 0 22 -9 22 -22c0 -12 -9 -21 -22 -21z" />
    <glyph glyph-name="egrave" unicode="&#xe8;" horiz-adv-x="572" 
d="M471 105l21 -15c-45 -62 -118 -103 -200 -103c-134 0 -247 111 -247 248c0 133 106 249 243 249c136 0 244 -114 244 -249v-7h-459c3 -115 96 -215 220 -215c76 0 139 37 178 92zM289 458c-120 0 -207 -96 -216 -204h430c-8 112 -97 204 -214 204zM348 540l-198 105
l16 28l195 -110z" />
    <glyph glyph-name="eacute" unicode="&#xe9;" horiz-adv-x="572" 
d="M471 105l21 -15c-45 -62 -118 -103 -200 -103c-134 0 -247 111 -247 248c0 133 106 249 243 249c136 0 244 -114 244 -249v-7h-459c3 -115 96 -215 220 -215c76 0 139 37 178 92zM289 458c-120 0 -207 -96 -216 -204h430c-8 112 -97 204 -214 204zM401 645l-198 -105
l-13 23l195 110z" />
    <glyph glyph-name="ecircumflex" unicode="&#xea;" horiz-adv-x="572" 
d="M471 105l21 -15c-45 -62 -118 -103 -200 -103c-134 0 -247 111 -247 248c0 133 106 249 243 249c136 0 244 -114 244 -249v-7h-459c3 -115 96 -215 220 -215c76 0 139 37 178 92zM289 458c-120 0 -207 -96 -216 -204h430c-8 112 -97 204 -214 204zM287 697l159 -137
l-19 -19l-140 124l-142 -124l-19 19z" />
    <glyph glyph-name="edieresis" unicode="&#xeb;" horiz-adv-x="572" 
d="M471 105l21 -15c-45 -62 -118 -103 -200 -103c-134 0 -247 111 -247 248c0 133 106 249 243 249c136 0 244 -114 244 -249v-7h-459c3 -115 96 -215 220 -215c76 0 139 37 178 92zM289 458c-120 0 -207 -96 -216 -204h430c-8 112 -97 204 -214 204zM227 541
c-12 0 -21 9 -21 21c0 13 9 22 21 22c13 0 22 -9 22 -22c0 -12 -9 -21 -22 -21zM344 541c-12 0 -21 9 -21 21c0 13 9 22 21 22c13 0 22 -9 22 -22c0 -12 -9 -21 -22 -21z" />
    <glyph glyph-name="Igrave" unicode="&#xcc;" horiz-adv-x="210" 
d="M120 0h-30v740h30v-740zM194 805l-198 105l16 28l195 -110z" />
    <glyph glyph-name="Iacute" unicode="&#xcd;" horiz-adv-x="210" 
d="M120 0h-30v740h30v-740zM215 910l-198 -105l-13 23l195 110z" />
    <glyph glyph-name="Icircumflex" unicode="&#xce;" horiz-adv-x="210" 
d="M120 0h-30v740h30v-740zM106 962l159 -137l-19 -19l-140 124l-142 -124l-19 19z" />
    <glyph glyph-name="Idieresis" unicode="&#xcf;" horiz-adv-x="210" 
d="M120 0h-30v740h30v-740zM46 806c-12 0 -21 9 -21 21c0 13 9 22 21 22c13 0 22 -9 22 -22c0 -12 -9 -21 -22 -21zM163 806c-12 0 -21 9 -21 21c0 13 9 22 21 22c13 0 22 -9 22 -22c0 -12 -9 -21 -22 -21z" />
    <glyph glyph-name="igrave" unicode="&#xec;" horiz-adv-x="198" 
d="M113 0h-28v475h28v-475zM192 540l-198 105l16 28l195 -110z" />
    <glyph glyph-name="iacute" unicode="&#xed;" horiz-adv-x="198" 
d="M113 0h-28v475h28v-475zM205 645l-198 -105l-13 23l195 110z" />
    <glyph glyph-name="icircumflex" unicode="&#xee;" horiz-adv-x="198" 
d="M113 0h-28v475h28v-475zM100 697l159 -137l-19 -19l-140 124l-142 -124l-19 19z" />
    <glyph glyph-name="idieresis" unicode="&#xef;" horiz-adv-x="198" 
d="M113 0h-28v475h28v-475zM40 541c-12 0 -21 9 -21 21c0 13 9 22 21 22c13 0 22 -9 22 -22c0 -12 -9 -21 -22 -21zM157 541c-12 0 -21 9 -21 21c0 13 9 22 21 22c13 0 22 -9 22 -22c0 -12 -9 -21 -22 -21z" />
    <glyph glyph-name="Lslash" unicode="&#x141;" horiz-adv-x="537" 
d="M517 0h-427v283l-78 -56v33l78 56v424h30v-402l197 143v-33l-197 -143v-278h397v-27z" />
    <glyph glyph-name="lslash" unicode="&#x142;" horiz-adv-x="248" 
d="M113 740v-387l107 78v-30l-107 -78v-192c0 -81 17 -118 74 -118c16 0 32 2 52 9v-25c-21 -7 -32 -10 -53 -10c-88 0 -101 65 -101 139v177l-70 -50v30l70 50v407h28z" />
    <glyph glyph-name="Ntilde" unicode="&#xd1;" horiz-adv-x="795" 
d="M705 0h-38l-547 710v-710h-30v740h45l540 -700v700h30v-740zM550 865l24 -16c-27 -25 -57 -43 -95 -43c-56 0 -99 41 -143 41c-25 0 -46 -13 -64 -30l-21 21c22 21 51 35 87 35c62 0 99 -41 143 -41c24 0 48 12 69 33z" />
    <glyph glyph-name="ntilde" unicode="&#xf1;" horiz-adv-x="576" 
d="M501 0h-28v252c0 97 -25 206 -172 206c-130 0 -188 -91 -188 -225v-233h-28v475h28v-119c27 87 102 128 191 128c121 0 197 -71 197 -220v-264zM426 600l24 -16c-27 -25 -57 -43 -95 -43c-56 0 -99 41 -143 41c-25 0 -46 -13 -64 -30l-21 21c22 21 51 35 87 35
c62 0 99 -41 143 -41c24 0 48 12 69 33z" />
    <glyph glyph-name="Ograve" unicode="&#xd2;" horiz-adv-x="843" 
d="M808 370c0 -214 -171 -383 -386 -383c-213 0 -387 166 -387 382c0 211 166 384 386 384c217 0 387 -169 387 -383zM422 14c202 0 356 161 356 355c0 193 -153 357 -357 357c-207 0 -356 -167 -356 -358c0 -195 156 -354 357 -354zM494 805l-198 105l16 28l195 -110z" />
    <glyph glyph-name="Oacute" unicode="&#xd3;" horiz-adv-x="843" 
d="M808 370c0 -214 -171 -383 -386 -383c-213 0 -387 166 -387 382c0 211 166 384 386 384c217 0 387 -169 387 -383zM422 14c202 0 356 161 356 355c0 193 -153 357 -357 357c-207 0 -356 -167 -356 -358c0 -195 156 -354 357 -354zM547 910l-198 -105l-13 23l195 110z" />
    <glyph glyph-name="Ocircumflex" unicode="&#xd4;" horiz-adv-x="843" 
d="M808 370c0 -214 -171 -383 -386 -383c-213 0 -387 166 -387 382c0 211 166 384 386 384c217 0 387 -169 387 -383zM422 14c202 0 356 161 356 355c0 193 -153 357 -357 357c-207 0 -356 -167 -356 -358c0 -195 156 -354 357 -354zM422 962l159 -137l-19 -19l-140 124
l-142 -124l-19 19z" />
    <glyph glyph-name="Otilde" unicode="&#xd5;" horiz-adv-x="843" 
d="M808 370c0 -214 -171 -383 -386 -383c-213 0 -387 166 -387 382c0 211 166 384 386 384c217 0 387 -169 387 -383zM422 14c202 0 356 161 356 355c0 193 -153 357 -357 357c-207 0 -356 -167 -356 -358c0 -195 156 -354 357 -354zM559 865l24 -16
c-27 -25 -57 -43 -95 -43c-56 0 -99 41 -143 41c-25 0 -46 -13 -64 -30l-21 21c22 21 51 35 87 35c62 0 99 -41 143 -41c24 0 48 12 69 33z" />
    <glyph glyph-name="Odieresis" unicode="&#xd6;" horiz-adv-x="843" 
d="M808 370c0 -214 -171 -383 -386 -383c-213 0 -387 166 -387 382c0 211 166 384 386 384c217 0 387 -169 387 -383zM422 14c202 0 356 161 356 355c0 193 -153 357 -357 357c-207 0 -356 -167 -356 -358c0 -195 156 -354 357 -354zM362 806c-12 0 -21 9 -21 21
c0 13 9 22 21 22c13 0 22 -9 22 -22c0 -12 -9 -21 -22 -21zM479 806c-12 0 -21 9 -21 21c0 13 9 22 21 22c13 0 22 -9 22 -22c0 -12 -9 -21 -22 -21z" />
    <glyph glyph-name="Oslash" unicode="&#xd8;" horiz-adv-x="843" 
d="M214 -34l-23 10l34 63c-113 65 -190 186 -190 330c0 211 166 384 386 384c63 0 122 -15 174 -40l34 62l23 -11l-35 -63c115 -66 191 -188 191 -331c0 -214 -171 -383 -386 -383c-63 0 -122 14 -175 40zM422 14c202 0 356 161 356 355c0 128 -69 244 -174 307l-343 -625
c48 -24 102 -37 161 -37zM65 368c0 -130 68 -244 173 -305l343 625c-47 24 -102 38 -160 38c-207 0 -356 -167 -356 -358z" />
    <glyph glyph-name="ograve" unicode="&#xf2;" horiz-adv-x="585" 
d="M540 235c0 -136 -113 -248 -248 -248c-134 0 -247 111 -247 247c0 134 109 250 246 250c136 0 249 -114 249 -249zM293 13c128 0 219 109 219 223c0 120 -97 222 -220 222c-127 0 -219 -107 -219 -224s95 -221 220 -221zM365 540l-198 105l16 28l195 -110z" />
    <glyph glyph-name="oacute" unicode="&#xf3;" horiz-adv-x="585" 
d="M540 235c0 -136 -113 -248 -248 -248c-134 0 -247 111 -247 247c0 134 109 250 246 250c136 0 249 -114 249 -249zM293 13c128 0 219 109 219 223c0 120 -97 222 -220 222c-127 0 -219 -107 -219 -224s95 -221 220 -221zM418 645l-198 -105l-13 23l195 110z" />
    <glyph glyph-name="ocircumflex" unicode="&#xf4;" horiz-adv-x="585" 
d="M540 235c0 -136 -113 -248 -248 -248c-134 0 -247 111 -247 247c0 134 109 250 246 250c136 0 249 -114 249 -249zM293 13c128 0 219 109 219 223c0 120 -97 222 -220 222c-127 0 -219 -107 -219 -224s95 -221 220 -221zM293 697l159 -137l-19 -19l-140 124l-142 -124
l-19 19z" />
    <glyph glyph-name="otilde" unicode="&#xf5;" horiz-adv-x="585" 
d="M540 235c0 -136 -113 -248 -248 -248c-134 0 -247 111 -247 247c0 134 109 250 246 250c136 0 249 -114 249 -249zM293 13c128 0 219 109 219 223c0 120 -97 222 -220 222c-127 0 -219 -107 -219 -224s95 -221 220 -221zM430 600l24 -16c-27 -25 -57 -43 -95 -43
c-56 0 -99 41 -143 41c-25 0 -46 -13 -64 -30l-21 21c22 21 51 35 87 35c62 0 99 -41 143 -41c24 0 48 12 69 33z" />
    <glyph glyph-name="odieresis" unicode="&#xf6;" horiz-adv-x="585" 
d="M540 235c0 -136 -113 -248 -248 -248c-134 0 -247 111 -247 247c0 134 109 250 246 250c136 0 249 -114 249 -249zM293 13c128 0 219 109 219 223c0 120 -97 222 -220 222c-127 0 -219 -107 -219 -224s95 -221 220 -221zM233 541c-12 0 -21 9 -21 21c0 13 9 22 21 22
c13 0 22 -9 22 -22c0 -12 -9 -21 -22 -21zM350 541c-12 0 -21 9 -21 21c0 13 9 22 21 22c13 0 22 -9 22 -22c0 -12 -9 -21 -22 -21z" />
    <glyph glyph-name="oslash" unicode="&#xf8;" horiz-adv-x="585" 
d="M172 -74l-23 10l33 77c-81 40 -137 125 -137 221c0 134 109 250 246 250c30 0 60 -6 87 -17l34 80l23 -11l-34 -79c82 -41 139 -126 139 -222c0 -136 -113 -248 -248 -248c-31 0 -60 6 -87 16zM293 13c128 0 219 109 219 223c0 85 -49 161 -121 198l-175 -407
c24 -9 49 -14 77 -14zM73 234c0 -83 47 -159 119 -197l176 407c-24 9 -49 14 -76 14c-127 0 -219 -107 -219 -224z" />
    <glyph glyph-name="Scaron" unicode="&#x160;" horiz-adv-x="519" 
d="M30 107l20 23c43 -68 130 -116 208 -116c91 0 191 63 191 175c0 218 -381 142 -381 378c0 98 66 186 218 186c72 0 124 -20 178 -70l-19 -23c-40 45 -98 66 -160 66c-100 0 -187 -54 -187 -155c0 -211 381 -140 381 -379c0 -122 -100 -205 -219 -205
c-104 0 -193 63 -230 120zM429 943l-160 -137l-160 137l19 19l141 -124l141 124z" />
    <glyph glyph-name="scaron" unicode="&#x161;" horiz-adv-x="404" 
d="M40 56l16 22c55 -53 104 -65 151 -65c98 0 129 53 129 99c0 139 -285 83 -285 245c0 73 59 127 155 127c46 0 88 -13 139 -49l-14 -22c-41 33 -81 45 -127 45c-113 0 -125 -72 -125 -100c0 -134 285 -81 285 -246c0 -80 -68 -125 -158 -125c-60 0 -113 20 -166 69z
M362 678l-160 -137l-160 137l19 19l141 -124l141 124z" />
    <glyph glyph-name="Ugrave" unicode="&#xd9;" horiz-adv-x="762" 
d="M652 348v392h30v-393c0 -249 -120 -360 -301 -360s-301 111 -301 360v393h30v-392c0 -254 131 -334 271 -334c139 0 271 80 271 334zM458 805l-198 105l16 28l195 -110z" />
    <glyph glyph-name="Uacute" unicode="&#xda;" horiz-adv-x="762" 
d="M652 348v392h30v-393c0 -249 -120 -360 -301 -360s-301 111 -301 360v393h30v-392c0 -254 131 -334 271 -334c139 0 271 80 271 334zM501 910l-198 -105l-13 23l195 110z" />
    <glyph glyph-name="Ucircumflex" unicode="&#xdb;" horiz-adv-x="762" 
d="M652 348v392h30v-393c0 -249 -120 -360 -301 -360s-301 111 -301 360v393h30v-392c0 -254 131 -334 271 -334c139 0 271 80 271 334zM382 962l159 -137l-19 -19l-140 124l-142 -124l-19 19z" />
    <glyph glyph-name="Udieresis" unicode="&#xdc;" horiz-adv-x="762" 
d="M652 348v392h30v-393c0 -249 -120 -360 -301 -360s-301 111 -301 360v393h30v-392c0 -254 131 -334 271 -334c139 0 271 80 271 334zM322 806c-12 0 -21 9 -21 21c0 13 9 22 21 22c13 0 22 -9 22 -22c0 -12 -9 -21 -22 -21zM439 806c-12 0 -21 9 -21 21c0 13 9 22 21 22
c13 0 22 -9 22 -22c0 -12 -9 -21 -22 -21z" />
    <glyph glyph-name="ugrave" unicode="&#xf9;" horiz-adv-x="574" 
d="M468 200v275h28v-274c0 -149 -77 -214 -209 -214s-209 65 -209 214v274h28v-275c0 -132 68 -187 181 -187s181 55 181 187zM365 540l-198 105l16 28l195 -110z" />
    <glyph glyph-name="uacute" unicode="&#xfa;" horiz-adv-x="574" 
d="M468 200v275h28v-274c0 -149 -77 -214 -209 -214s-209 65 -209 214v274h28v-275c0 -132 68 -187 181 -187s181 55 181 187zM412 645l-198 -105l-13 23l195 110z" />
    <glyph glyph-name="ucircumflex" unicode="&#xfb;" horiz-adv-x="574" 
d="M468 200v275h28v-274c0 -149 -77 -214 -209 -214s-209 65 -209 214v274h28v-275c0 -132 68 -187 181 -187s181 55 181 187zM288 697l159 -137l-19 -19l-140 124l-142 -124l-19 19z" />
    <glyph glyph-name="udieresis" unicode="&#xfc;" horiz-adv-x="574" 
d="M468 200v275h28v-274c0 -149 -77 -214 -209 -214s-209 65 -209 214v274h28v-275c0 -132 68 -187 181 -187s181 55 181 187zM228 541c-12 0 -21 9 -21 21c0 13 9 22 21 22c13 0 22 -9 22 -22c0 -12 -9 -21 -22 -21zM345 541c-12 0 -21 9 -21 21c0 13 9 22 21 22
c13 0 22 -9 22 -22c0 -12 -9 -21 -22 -21z" />
    <glyph glyph-name="Yacute" unicode="&#xdd;" horiz-adv-x="610" 
d="M600 740l-280 -402v-338h-30v338l-280 402h34l261 -370l261 370h34zM440 910l-198 -105l-13 23l195 110z" />
    <glyph glyph-name="Ydieresis" unicode="&#x178;" horiz-adv-x="610" 
d="M600 740l-280 -402v-338h-30v338l-280 402h34l261 -370l261 370h34zM246 806c-12 0 -21 9 -21 21c0 13 9 22 21 22c13 0 22 -9 22 -22c0 -12 -9 -21 -22 -21zM363 806c-12 0 -21 9 -21 21c0 13 9 22 21 22c13 0 22 -9 22 -22c0 -12 -9 -21 -22 -21z" />
    <glyph glyph-name="yacute" unicode="&#xfd;" horiz-adv-x="457" 
d="M114 -253l102 245l-206 483h31l189 -450l187 450h30l-304 -728h-29zM364 645l-198 -105l-13 23l195 110z" />
    <glyph glyph-name="Ydieresis" unicode="&#xff;" horiz-adv-x="457" 
d="M114 -253l102 245l-206 483h31l189 -450l187 450h30l-304 -728h-29zM172 541c-12 0 -21 9 -21 21c0 13 9 22 21 22c13 0 22 -9 22 -22c0 -12 -9 -21 -22 -21zM289 541c-12 0 -21 9 -21 21c0 13 9 22 21 22c13 0 22 -9 22 -22c0 -12 -9 -21 -22 -21z" />
    <glyph glyph-name="Zcaron" unicode="&#x17d;" horiz-adv-x="647" 
d="M593 0h-553v14l511 699h-500v27h546v-14l-511 -699h507v-27zM475 943l-160 -137l-160 137l19 19l141 -124l141 124z" />
    <glyph glyph-name="zcaron" unicode="&#x17e;" horiz-adv-x="471" 
d="M421 0h-371v24l335 425h-335v26h371v-27l-335 -422h335v-26zM392 678l-160 -137l-160 137l19 19l141 -124l141 124z" />
    </font>
</defs>
</svg>
