<?xml version="1.0" standalone="no"?>
<!DOCTYPE svg PUBLIC "-//W3C//DTD SVG 1.1//EN" "http://www.w3.org/Graphics/SVG/1.1/DTD/svg11.dtd" >
<svg xmlns="http://www.w3.org/2000/svg" xmlns:xlink="http://www.w3.org/1999/xlink" version="1.1">
<metadata>
Created by FontForge 20190801 at Fri Jan  1 00:00:00 1904
 By root
Copyright 2013 (c) Rick Banks / Face37. All rights reserved.
</metadata>
<defs>
<font id="F37Ginger-BoldItalic" horiz-adv-x="617" >
  <font-face 
    font-family="F37 Ginger"
    font-weight="700"
    font-style="italic"
    font-stretch="normal"
    units-per-em="1000"
    panose-1="2 0 5 3 3 0 0 2 0 4"
    ascent="800"
    descent="-200"
    x-height="475"
    cap-height="740"
    bbox="-153 -262 1321 1035"
    underline-thickness="50"
    underline-position="-100"
    slope="-10"
    stemh="118"
    stemv="128"
    unicode-range="U+0020-FB02"
  />
<missing-glyph horiz-adv-x="729" 
d="M629 0h-529l130 740h529zM526 132l84 476h-277l-84 -476h277z" />
    <glyph glyph-name=".notdef" horiz-adv-x="729" 
d="M629 0h-529l130 740h529zM526 132l84 476h-277l-84 -476h277z" />
    <glyph glyph-name="controlHT" unicode=" " horiz-adv-x="270" 
 />
    <glyph glyph-name="nbspace" unicode="&#xa0;" horiz-adv-x="270" 
 />
    <glyph glyph-name="A" unicode="A" horiz-adv-x="724" 
d="M724 0h-142l-34 158h-319l-87 -158h-142l426 740h133zM523 283l-60 294l-165 -294h225z" />
    <glyph glyph-name="B" unicode="B" horiz-adv-x="601" 
d="M305 0h-225l130 740h222c147 0 210 -51 210 -155c0 -98 -55 -167 -138 -195c81 -21 107 -77 107 -146c0 -166 -148 -244 -306 -244zM290 449h113c58 0 104 36 104 99c0 46 -25 67 -78 67h-110zM233 125h105c108 0 144 62 144 118c0 46 -24 82 -111 82h-103z" />
    <glyph glyph-name="C" unicode="C" horiz-adv-x="713" 
d="M638 189l61 -92c-81 -66 -179 -110 -288 -110c-188 0 -322 128 -322 322c0 247 217 444 457 444c114 0 201 -45 259 -117l-99 -92c-39 57 -101 89 -177 89c-165 0 -309 -154 -309 -311c0 -122 88 -215 212 -215c74 0 149 33 206 82z" />
    <glyph glyph-name="D" unicode="D" horiz-adv-x="718" 
d="M290 0h-210l130 740h210c212 0 340 -104 340 -311c0 -269 -216 -429 -470 -429zM233 126h76c158 0 318 91 318 287c0 147 -89 201 -232 201h-76z" />
    <glyph glyph-name="E" unicode="E" horiz-adv-x="599" 
d="M549 0h-469l130 740h469l-22 -126h-338l-29 -165h266l-23 -126h-266l-34 -197h338z" />
    <glyph glyph-name="F" unicode="F" horiz-adv-x="564" 
d="M211 0h-131l130 740h459l-22 -126h-328l-29 -165h256l-23 -126h-256z" />
    <glyph glyph-name="G" unicode="G" horiz-adv-x="817" 
d="M832 427l-15 -85c-37 -210 -180 -355 -395 -355c-202 0 -334 129 -334 322c0 247 219 444 459 444c113 0 203 -44 260 -115l-95 -90c-43 62 -114 85 -180 85c-170 0 -312 -154 -312 -312c0 -124 88 -214 222 -214c108 0 202 58 238 194h-233l22 126h363z" />
    <glyph glyph-name="H" unicode="H" horiz-adv-x="778" 
d="M698 0h-131l57 327h-356l-57 -327h-131l130 740h131l-51 -287h356l51 287h131z" />
    <glyph glyph-name="I" unicode="I" horiz-adv-x="291" 
d="M211 0h-131l130 740h131z" />
    <glyph glyph-name="J" unicode="J" horiz-adv-x="281" 
d="M-85 -223h-6l21 120h7c109 0 128 47 151 177l117 666h131l-116 -655c-17 -98 -30 -161 -74 -216c-45 -57 -113 -92 -231 -92z" />
    <glyph glyph-name="K" unicode="K" horiz-adv-x="682" 
d="M682 0h-174l-242 314l-55 -314h-131l130 740h131l-58 -327l338 327h165l-396 -370z" />
    <glyph glyph-name="L" unicode="L" horiz-adv-x="579" 
d="M554 0h-474l130 740h131l-108 -614h343z" />
    <glyph glyph-name="M" unicode="M" horiz-adv-x="909" 
d="M829 0h-131l98 561l-233 -286h-124l-130 286l-98 -561h-131l130 740h169l146 -326l265 326h169z" />
    <glyph glyph-name="N" unicode="N" horiz-adv-x="836" 
d="M756 0h-138l-308 563l-99 -563h-131l130 740h165l288 -526l93 526h130z" />
    <glyph glyph-name="O" unicode="O" horiz-adv-x="833" 
d="M868 370c-36 -208 -233 -383 -455 -383c-191 0 -324 129 -324 321c0 245 216 445 456 445c195 0 329 -132 329 -315c0 -22 -2 -45 -6 -68zM434 107c157 0 307 144 307 307c0 122 -83 219 -213 219c-161 0 -308 -151 -308 -311c0 -123 88 -215 214 -215z" />
    <glyph glyph-name="P" unicode="P" horiz-adv-x="616" 
d="M211 0h-131l130 740h262c154 0 216 -87 216 -192c0 -156 -107 -301 -303 -301h-131zM276 373h131c96 0 147 67 147 148c0 55 -31 93 -104 93h-131z" />
    <glyph glyph-name="Q" unicode="Q" horiz-adv-x="820" 
d="M820 0h-412c-184 0 -319 121 -319 315c0 248 219 438 458 438c195 0 327 -126 327 -315c0 -109 -44 -229 -168 -312h136zM737 373c3 17 4 34 4 47c0 125 -86 213 -212 213c-159 0 -308 -142 -308 -305c0 -127 90 -208 216 -208c146 0 276 109 300 253z" />
    <glyph glyph-name="R" unicode="R" horiz-adv-x="651" 
d="M626 0h-147l-125 307h-89l-54 -307h-131l130 740h300c131 0 199 -63 199 -174c0 -122 -82 -231 -212 -252zM287 433h171c66 0 118 42 118 105c0 50 -32 76 -86 76h-171z" />
    <glyph glyph-name="S" unicode="S" horiz-adv-x="547" 
d="M30 118l97 85c33 -47 73 -96 155 -96c93 0 136 64 136 113c0 127 -280 71 -280 296c0 154 132 237 278 237c68 0 127 -18 189 -70l-86 -102c-36 37 -82 52 -127 52c-71 0 -120 -37 -120 -92c0 -131 281 -74 281 -293c0 -136 -108 -261 -294 -261c-85 0 -170 26 -229 131z
" />
    <glyph glyph-name="T" unicode="T" horiz-adv-x="656" 
d="M394 0h-131l108 614h-238l22 126h606l-22 -126h-237z" />
    <glyph glyph-name="U" unicode="U" horiz-adv-x="782" 
d="M638 390l62 350h131l-73 -413c-40 -227 -184 -340 -370 -340c-159 0 -259 83 -259 249c0 28 3 58 9 91l73 413h131l-62 -350c-9 -49 -14 -94 -14 -130c0 -99 37 -153 143 -153c145 0 197 101 229 283z" />
    <glyph glyph-name="V" unicode="V" horiz-adv-x="738" 
d="M438 0h-137l-161 740h144l113 -577l317 577h144z" />
    <glyph glyph-name="W" unicode="W" horiz-adv-x="1032" 
d="M792 0h-132l-56 500l-232 -500h-132l-100 740h142l58 -539l249 539h114l58 -539l249 539h142z" />
    <glyph glyph-name="glyph26" horiz-adv-x="1034" 
d="M734 0h-135l-46 207l-117 -207h-135l-161 740h143l113 -577l120 218l-78 359h143l35 -177l97 177h143l-204 -360l42 -217l317 577h143z" />
    <glyph glyph-name="X" unicode="X" horiz-adv-x="693" 
d="M662 0h-155l-119 241l-202 -241h-155l301 358l-187 382h155l129 -266l224 266h155l-321 -382z" />
    <glyph glyph-name="Y" unicode="Y" horiz-adv-x="677" 
d="M404 0h-131l57 328l-195 412h152l130 -289l233 289h152l-340 -411z" />
    <glyph glyph-name="Z" unicode="Z" horiz-adv-x="668" 
d="M633 0h-593l22 126l508 488h-411l22 126h581l-22 -126l-507 -488h422z" />
    <glyph glyph-name="Eth" unicode="&#xd0;" horiz-adv-x="718" 
d="M290 0h-210l55 312h-80l22 126h80l53 302h210c212 0 340 -104 340 -311c0 -269 -216 -429 -470 -429zM233 126h76c158 0 318 91 318 287c0 147 -89 201 -232 201h-76l-31 -176h160l-22 -126h-160z" />
    <glyph glyph-name="Thorn" unicode="&#xde;" horiz-adv-x="616" 
d="M363 122h-131l-21 -122h-131l130 740h131l-22 -125h131c154 0 216 -84 216 -197c0 -148 -107 -296 -303 -296zM254 248h131c96 0 147 69 147 145c0 59 -31 96 -104 96h-131z" />
    <glyph glyph-name="AE" unicode="&#xc6;" horiz-adv-x="1052" 
d="M1002 0h-469l28 164h-292l-130 -164h-149l597 740h545l-22 -126h-338l-29 -165h266l-23 -126h-266l-34 -197h338zM583 289l61 343l-275 -343h214z" />
    <glyph glyph-name="OE" unicode="&#x152;" horiz-adv-x="1241" 
d="M1191 0h-469l14 81c-79 -59 -174 -94 -273 -94c-193 0 -324 131 -324 322c0 245 216 444 457 444c102 0 184 -36 242 -94l14 81h469l-22 -126h-338l-29 -165h266l-23 -126h-266l-34 -197h338zM483 107c158 0 309 146 309 307c0 121 -86 219 -213 219
c-156 0 -309 -147 -309 -309c0 -120 84 -217 213 -217z" />
    <glyph glyph-name="a" unicode="a" 
d="M542 0h-123l5 31c-43 -31 -91 -44 -140 -44c-124 0 -212 84 -212 213c0 166 146 284 298 284c51 0 93 -13 126 -44l6 35h123zM460 236c1 6 2 14 2 23c0 58 -46 107 -111 107c-80 0 -156 -73 -156 -152c0 -61 45 -109 110 -109c71 0 142 57 155 131z" />
    <glyph glyph-name="b" unicode="b" 
d="M198 0h-123l130 740h123l-53 -300c44 31 91 44 140 44c125 0 212 -87 212 -206c0 -173 -146 -291 -301 -291c-48 0 -90 13 -123 44zM240 241l-2 -11c-1 -5 -2 -12 -2 -20c0 -55 47 -105 112 -105c79 0 156 72 156 152c0 61 -45 109 -109 109c-71 0 -143 -60 -155 -125z
" />
    <glyph glyph-name="c" unicode="c" horiz-adv-x="527" 
d="M427 166l93 -62c-57 -70 -145 -117 -237 -117c-124 0 -211 86 -211 213c0 165 146 284 298 284c93 0 162 -45 195 -113l-116 -61c-18 34 -53 56 -97 56c-81 0 -157 -73 -157 -152c0 -61 45 -109 111 -109c46 0 91 24 121 61z" />
    <glyph glyph-name="d" unicode="d" 
d="M542 0h-123l5 31c-43 -31 -91 -44 -140 -44c-124 0 -212 84 -212 213c0 166 146 284 298 284c51 0 93 -13 126 -44l53 300h123zM460 236c1 6 2 14 2 23c0 58 -46 107 -111 107c-80 0 -156 -73 -156 -152c0 -61 45 -109 110 -109c71 0 142 57 155 131z" />
    <glyph glyph-name="e" unicode="e" horiz-adv-x="555" 
d="M551 197h-362c4 -58 44 -99 114 -99c44 0 93 16 127 53l72 -67c-53 -61 -135 -97 -219 -97c-123 0 -211 77 -211 210c0 166 136 287 289 287c129 0 204 -86 204 -200c0 -29 -5 -60 -14 -87zM209 287h237c0 48 -40 85 -101 85c-57 0 -109 -34 -136 -85z" />
    <glyph glyph-name="f" unicode="f" horiz-adv-x="364" 
d="M213 0h-123l62 357h-70l21 118h70l20 111c17 96 73 154 174 154c27 0 67 -4 90 -12l-19 -109s-34 5 -57 5c-38 0 -61 -14 -70 -64l-15 -85h106l-21 -118h-106z" />
    <glyph glyph-name="g" unicode="g" 
d="M420 10l4 21c-43 -31 -91 -44 -140 -44c-124 0 -212 84 -212 213c0 166 146 284 298 284c51 0 93 -13 126 -44l6 35h123l-78 -441c-45 -256 -216 -287 -299 -287c-106 0 -169 51 -199 117l121 49c24 -35 57 -48 98 -48c71 0 132 39 152 145zM460 236c1 6 2 14 2 23
c0 58 -46 107 -111 107c-80 0 -156 -73 -156 -152c0 -61 45 -109 110 -109c71 0 142 57 155 131z" />
    <glyph glyph-name="glyph41" horiz-adv-x="504" 
d="M260 29c106 0 166 -53 166 -123c0 -86 -89 -164 -216 -164c-103 0 -159 52 -159 121c0 40 19 80 52 111c-18 14 -28 35 -28 62c0 41 23 79 58 99c-25 32 -36 74 -36 115c0 152 115 234 240 234c21 0 39 -3 57 -9h151l-16 -94h-35c8 -15 13 -37 13 -64
c0 -131 -114 -238 -244 -238h-49c-16 0 -30 -13 -30 -28c0 -12 9 -22 22 -22h54zM285 191c62 0 104 56 104 109c0 43 -27 73 -72 73c-58 0 -103 -52 -103 -108c0 -41 24 -74 71 -74zM233 -160c49 0 75 24 75 53c0 20 -16 40 -62 40c-55 0 -78 -29 -78 -54
c0 -21 15 -39 65 -39z" />
    <glyph glyph-name="glyph42" horiz-adv-x="541" 
d="M222 -258c-109 0 -185 69 -185 161c0 75 51 146 134 184c-54 35 -78 81 -78 147c0 152 129 250 261 250c23 0 43 -3 62 -9h169l-16 -94h-44c10 -23 16 -50 16 -78c0 -81 -51 -171 -146 -218c55 -30 79 -74 79 -125c0 -112 -116 -218 -252 -218zM299 168
c60 0 119 55 119 115c0 46 -35 83 -84 83c-63 0 -119 -58 -119 -117c0 -46 35 -81 84 -81zM243 -141c49 0 95 39 95 83c0 34 -29 61 -70 61c-49 0 -95 -40 -95 -83c0 -34 29 -61 70 -61z" />
    <glyph glyph-name="h" unicode="h" horiz-adv-x="582" 
d="M517 0h-123l44 254c2 13 3 25 3 35c0 61 -37 77 -82 77c-48 0 -100 -19 -116 -110l-45 -256h-123l130 740h123l-53 -300c31 20 68 44 133 44c90 0 162 -47 162 -156c0 -18 -2 -35 -5 -54z" />
    <glyph glyph-name="i" unicode="i" horiz-adv-x="275" 
d="M199 0h-123l83 475h123zM235 554c-39 0 -65 26 -65 63c0 51 44 92 93 92c39 0 64 -26 64 -62c0 -51 -44 -93 -92 -93z" />
    <glyph glyph-name="dotlessi" unicode="&#x131;" horiz-adv-x="275" 
d="M199 0h-123l83 475h123z" />
    <glyph glyph-name="j" unicode="j" horiz-adv-x="275" 
d="M154 -253h-123l128 728h123zM235 554c-39 0 -65 26 -65 63c0 51 44 92 93 92c39 0 64 -26 64 -62c0 -51 -44 -93 -92 -93z" />
    <glyph glyph-name="k" unicode="k" horiz-adv-x="558" 
d="M548 0h-162l-151 212l-37 -212h-123l130 740h123l-79 -449l204 184h158l-246 -217z" />
    <glyph glyph-name="l" unicode="l" horiz-adv-x="283" 
d="M287 104l-19 -109c-15 -4 -34 -8 -58 -8c-75 0 -117 39 -117 102c0 14 2 25 4 38l108 613h123l-103 -585c-1 -7 -2 -12 -2 -18c0 -22 12 -34 45 -34c4 0 12 0 19 1z" />
    <glyph glyph-name="m" unicode="m" horiz-adv-x="881" 
d="M816 0h-123l44 254c3 16 4 30 4 41c0 60 -33 71 -71 71c-49 0 -102 -19 -118 -110l-45 -256h-123l44 254c3 16 4 30 4 41c0 60 -33 71 -71 71c-49 0 -102 -19 -118 -110l-45 -256h-123l83 475h123l-6 -35c34 22 68 44 131 44c62 0 113 -22 137 -71c55 54 121 71 175 71
c87 0 151 -43 151 -154c0 -14 -1 -35 -5 -56z" />
    <glyph glyph-name="n" unicode="n" horiz-adv-x="582" 
d="M517 0h-123l44 254c2 13 3 25 3 35c0 61 -37 77 -82 77c-48 0 -100 -19 -116 -110l-45 -256h-123l83 475h123l-6 -35c31 20 68 44 133 44c90 0 162 -47 162 -156c0 -18 -2 -35 -5 -54z" />
    <glyph glyph-name="o" unicode="o" horiz-adv-x="575" 
d="M581 236c-22 -137 -158 -249 -299 -249c-123 0 -210 86 -210 213c0 164 145 284 296 284c130 0 217 -88 217 -200c0 -17 -2 -36 -4 -48zM460 236c1 6 2 14 2 23c0 58 -46 107 -111 107c-80 0 -156 -73 -156 -152c0 -61 45 -109 110 -109c71 0 142 57 155 131z" />
    <glyph glyph-name="p" unicode="p" 
d="M153 -253h-123l128 728h123l-6 -35c44 31 91 44 140 44c125 0 212 -84 212 -212c0 -165 -146 -285 -299 -285c-51 0 -92 13 -125 44zM395 366c-79 0 -159 -72 -159 -156c0 -55 47 -105 112 -105c79 0 156 72 156 152c0 61 -45 109 -109 109z" />
    <glyph glyph-name="q" unicode="q" 
d="M497 -253h-123l50 284c-43 -31 -91 -44 -140 -44c-124 0 -212 84 -212 213c0 166 146 284 298 284c51 0 93 -13 126 -44l6 35h123zM460 236c1 6 2 14 2 23c0 58 -46 107 -111 107c-80 0 -156 -73 -156 -152c0 -61 45 -109 110 -109c71 0 142 57 155 131z" />
    <glyph glyph-name="r" unicode="r" horiz-adv-x="406" 
d="M198 0h-123l83 475h123l-6 -35c52 34 99 44 191 44l-21 -118c-157 0 -191 -44 -205 -126z" />
    <glyph glyph-name="s" unicode="s" horiz-adv-x="443" 
d="M36 54l82 94c37 -38 88 -49 122 -49c48 0 64 22 64 40c0 66 -209 16 -209 178c0 102 84 167 197 167c44 0 118 -10 163 -60l-80 -88c-37 29 -75 36 -101 36c-47 0 -55 -24 -55 -35c0 -59 205 -31 205 -177c0 -93 -83 -173 -214 -173c-85 0 -137 34 -174 67z" />
    <glyph glyph-name="t" unicode="t" horiz-adv-x="394" 
d="M350 108l-20 -109s-43 -12 -90 -12c-90 0 -125 43 -125 111c0 12 1 28 4 43l38 216h-75l21 118h75l29 161h123l-29 -161h126l-21 -118h-126c-30 -174 -35 -198 -35 -214c0 -32 20 -40 49 -40c24 0 56 5 56 5z" />
    <glyph glyph-name="u" unicode="u" horiz-adv-x="576" 
d="M428 229l43 246h123l-49 -279c-26 -149 -126 -209 -260 -209c-117 0 -191 46 -191 155c0 18 2 35 5 54l49 279h123l-43 -246c-4 -20 -6 -38 -6 -53c0 -46 20 -71 84 -71c84 0 108 44 122 124z" />
    <glyph glyph-name="v" unicode="v" horiz-adv-x="531" 
d="M330 0h-129l-108 475h134l64 -322l179 322h134z" />
    <glyph glyph-name="w" unicode="w" horiz-adv-x="820" 
d="M639 0h-122l-54 303l-156 -303h-128l-86 475h138l41 -312l167 312h108l55 -312l152 312h139z" />
    <glyph glyph-name="x" unicode="x" horiz-adv-x="482" 
d="M477 0h-132l-78 152l-130 -152h-132l212 249l-113 226h133l65 -128l109 128h133l-194 -226z" />
    <glyph glyph-name="y" unicode="y" horiz-adv-x="514" 
d="M196 -253h-120l128 240l-111 488h136l61 -328l176 328h121z" />
    <glyph glyph-name="z" unicode="z" horiz-adv-x="481" 
d="M431 0h-381l20 116l262 241h-220l21 118h381l-19 -112l-263 -245h219z" />
    <glyph glyph-name="eth" unicode="&#xf0;" horiz-adv-x="575" 
d="M302 520l-50 51l64 59c-46 25 -96 39 -137 43l80 68c52 -4 98 -17 138 -36l70 64l49 -52l-57 -53c89 -74 134 -187 134 -319c0 -274 -193 -358 -313 -358c-121 0 -208 86 -208 212c0 161 144 285 295 285c27 0 55 -4 92 -29c-16 55 -46 99 -83 133zM460 236
c1 6 2 15 2 24c0 59 -48 106 -112 106c-80 0 -155 -74 -155 -152c0 -61 45 -109 111 -109c75 0 143 64 154 131z" />
    <glyph glyph-name="thorn" unicode="&#xfe;" 
d="M153 -253h-123l175 993h123l-53 -300c44 31 91 44 140 44c125 0 212 -84 212 -212c0 -165 -146 -285 -299 -285c-51 0 -92 13 -125 44zM395 366c-78 0 -159 -72 -159 -152c0 -61 47 -109 112 -109c79 0 156 72 156 152c0 61 -45 109 -109 109z" />
    <glyph glyph-name="ae" unicode="&#xe6;" horiz-adv-x="954" 
d="M950 197h-362c4 -58 44 -99 114 -99c44 0 93 16 127 53l72 -67c-53 -61 -136 -97 -217 -97c-57 0 -107 17 -143 46l-5 -33h-117l5 31c-43 -31 -91 -44 -140 -44c-124 0 -212 84 -212 213c0 166 146 284 298 284c51 0 93 -13 126 -44l6 35h117l-6 -35c44 27 96 44 151 44
c124 0 200 -87 200 -201c0 -29 -5 -58 -14 -86zM305 105c78 0 157 70 157 151c0 62 -46 110 -111 110c-80 0 -156 -73 -156 -152c0 -61 45 -109 110 -109zM608 287h237c0 48 -40 85 -101 85c-57 0 -109 -34 -136 -85z" />
    <glyph glyph-name="oe" unicode="&#x153;" horiz-adv-x="941" 
d="M938 196h-356c8 -55 45 -92 111 -92c47 0 87 19 126 61l88 -61c-64 -76 -144 -117 -235 -117c-82 0 -144 33 -181 86c-55 -53 -130 -86 -207 -86c-125 0 -212 85 -212 213c0 165 146 284 298 284c80 0 141 -33 178 -85c52 52 123 85 202 85c128 0 201 -87 201 -213
c0 -15 -1 -32 -13 -75zM305 105c78 0 157 70 157 151c0 62 -46 110 -111 110c-80 0 -156 -73 -156 -152c0 -61 45 -109 110 -109zM602 289h229c-6 44 -32 77 -95 77c-57 0 -96 -28 -134 -77z" />
    <glyph glyph-name="fi" unicode="&#xfb01;" horiz-adv-x="608" 
d="M532 0h-123l62 357h-196l-62 -357h-123l62 357h-70l21 118h70l20 111c17 93 70 154 174 154c27 0 67 -4 90 -12l-19 -109s-34 5 -57 5c-38 0 -61 -14 -70 -64l-15 -85h319zM567 554c-38 0 -64 26 -64 64c0 50 44 91 93 91c39 0 64 -26 64 -63c0 -50 -44 -92 -93 -92z" />
    <glyph glyph-name="fl" unicode="&#xfb02;" 
d="M621 104l-19 -109c-15 -4 -34 -8 -58 -8c-75 0 -116 37 -116 104c0 11 1 23 3 36l40 230h-196l-62 -357h-123l62 357h-70l21 118h70l20 111c17 96 73 154 174 154c27 0 67 -4 90 -12l-19 -109s-34 5 -57 5c-38 0 -61 -14 -70 -64l-15 -85h196l47 265h123l-103 -585
c-1 -7 -2 -12 -2 -18c0 -22 12 -34 45 -34c4 0 12 0 19 1z" />
    <glyph glyph-name="germandbls" unicode="&#xdf;" horiz-adv-x="598" 
d="M287 0h-30l20 117h48c108 0 145 64 145 124c0 49 -24 87 -110 87h-46l20 112h37c57 0 106 39 106 108c0 50 -25 76 -78 76c-73 0 -100 -49 -116 -139l-85 -485h-123l85 483c27 153 93 257 260 257c124 0 184 -57 184 -156c0 -104 -66 -170 -118 -194
c66 -18 107 -63 107 -149c0 -163 -148 -241 -306 -241z" />
    <glyph glyph-name="ampersand" unicode="&#x26;" horiz-adv-x="657" 
d="M607 0h-287c-156 0 -232 65 -232 171c0 86 51 190 169 219c-59 27 -85 78 -85 133c0 124 97 231 253 231c58 0 100 -18 134 -54l-82 -93c-21 20 -47 30 -75 30c-62 0 -103 -49 -103 -100c0 -45 33 -88 106 -88h79l19 109h131l-19 -109h71l-22 -124h-71l-35 -199h71z
M427 125l35 200h-88c-55 0 -152 -17 -152 -118c0 -60 35 -82 123 -82h82z" />
    <glyph glyph-name="glyph71" horiz-adv-x="645" 
d="M664 325h-71l-16 -90c-25 -140 -119 -248 -287 -248c-142 0 -203 76 -203 175c0 104 53 194 168 228c-45 24 -84 65 -84 131c0 164 134 233 255 233c54 0 99 -17 133 -54l-82 -93c-21 20 -46 30 -74 30c-64 0 -104 -52 -104 -101c0 -44 33 -87 106 -87h79l19 109h131
l-19 -109h71zM443 218l19 107h-98c-97 0 -144 -67 -144 -128c0 -50 33 -90 97 -90c53 0 111 27 126 111z" />
    <glyph glyph-name="glyph72" horiz-adv-x="628" 
d="M492 314l114 65c12 -28 18 -60 18 -93c0 -179 -152 -299 -311 -299c-127 0 -219 88 -219 212c0 105 62 195 137 247c-12 23 -18 48 -18 77c0 146 115 231 236 231c67 0 121 -32 148 -82l-114 -68c-11 18 -31 30 -55 30c-47 0 -90 -44 -90 -89c0 -34 25 -63 63 -63
c35 0 69 24 84 55l94 -64c-44 -65 -119 -110 -199 -110c-21 0 -43 3 -61 10c-57 -27 -101 -87 -101 -153s49 -115 116 -115c86 0 168 79 168 160c0 17 -4 34 -10 49z" />
    <glyph glyph-name="numbersign" unicode="#" horiz-adv-x="632" 
d="M447 66h-94l57 178h-133l-57 -178h-94l57 178h-105l16 93h119l37 120h-105l16 93h118l53 167h94l-53 -167h133l53 167h94l-53 -167h93l-16 -93h-106l-37 -120h92l-16 -93h-106zM440 337l37 120h-133l-37 -120h133z" />
    <glyph glyph-name="zero" unicode="0" horiz-adv-x="586" 
d="M616 486l-38 -216c-30 -170 -121 -283 -285 -283c-143 0 -198 87 -198 206c0 23 2 50 7 77l38 216c28 161 128 267 280 267c135 0 202 -83 202 -204c0 -20 -2 -41 -6 -63zM452 273l35 202c3 18 5 36 5 53c0 60 -24 105 -88 105c-78 0 -123 -66 -139 -158l-35 -202
c-4 -25 -7 -47 -7 -68c0 -59 23 -98 88 -98c88 0 124 70 141 166z" />
    <glyph glyph-name="one" unicode="1" horiz-adv-x="400" 
d="M280 0h-131l108 614h-119l22 126h250z" />
    <glyph glyph-name="two" unicode="2" horiz-adv-x="566" 
d="M497 0h-459l22 128l223 179c139 112 182 186 182 254c0 52 -26 86 -81 86s-102 -35 -130 -110h-125c48 148 141 217 274 217c114 0 198 -51 198 -166c0 -94 -56 -207 -179 -306l-193 -156h290z" />
    <glyph glyph-name="three" unicode="3" horiz-adv-x="628" 
d="M374 338h-42l22 122h40c71 0 113 57 113 107c0 36 -22 70 -73 70c-64 0 -99 -53 -110 -100h-127c26 121 114 216 260 216c126 0 179 -71 179 -162c0 -90 -51 -159 -129 -193c68 -32 89 -75 89 -142c0 -171 -138 -269 -285 -269c-139 0 -202 87 -202 193c0 13 1 24 2 34
h128c0 -68 25 -107 91 -107c89 0 137 71 137 135c0 51 -31 96 -93 96z" />
    <glyph glyph-name="four" unicode="4" horiz-adv-x="610" 
d="M489 0h-127l20 118h-327l20 111l425 511h119l-89 -506h76l-21 -116h-76zM403 234l51 288l-238 -288h187z" />
    <glyph glyph-name="five" unicode="5" horiz-adv-x="595" 
d="M619 620h-260l-53 -146c36 15 72 21 103 21c111 0 193 -78 193 -204c0 -178 -146 -304 -306 -304c-130 0 -215 89 -215 209c0 6 0 13 1 19h126c0 -68 39 -108 108 -108c98 0 158 83 158 165c0 76 -52 110 -112 110c-41 0 -86 -16 -121 -43l-79 74l115 327h373z" />
    <glyph glyph-name="six" unicode="6" horiz-adv-x="581" 
d="M163 391l246 349h144l-195 -280c12 2 28 3 39 3c104 0 182 -85 182 -195c0 -169 -141 -281 -291 -281c-121 0 -208 86 -208 197c0 70 34 137 83 207zM351 351c-74 0 -147 -69 -147 -143c0 -56 42 -103 104 -103c75 0 149 69 149 143c0 58 -46 103 -106 103z" />
    <glyph glyph-name="seven" unicode="7" horiz-adv-x="558" 
d="M210 0h-143l406 614h-345l22 126h483l-22 -126z" />
    <glyph glyph-name="eight" unicode="8" horiz-adv-x="633" 
d="M557 446c47 -44 68 -99 68 -163c0 -175 -155 -296 -310 -296c-132 0 -221 88 -221 213c0 104 62 195 139 247c-15 22 -23 45 -23 81c0 141 122 225 236 225c105 0 172 -72 172 -162c0 -46 -18 -102 -61 -145zM334 105c82 0 168 75 168 161c0 65 -50 117 -119 117
c-84 0 -165 -80 -165 -163c0 -64 48 -115 116 -115zM454 496c24 18 40 47 40 73c0 37 -30 65 -67 65c-45 0 -92 -42 -92 -93c0 -20 7 -33 18 -45c16 3 34 5 51 5s33 -2 50 -5z" />
    <glyph glyph-name="nine" unicode="9" horiz-adv-x="581" 
d="M302 0h-144l195 280c-12 -2 -29 -3 -40 -3c-106 0 -182 85 -182 201c0 158 140 275 288 275c127 0 210 -87 210 -200c0 -73 -35 -137 -82 -204zM505 512c1 6 1 11 1 13c0 67 -45 110 -104 110c-74 0 -148 -68 -148 -143c0 -58 43 -103 104 -103c69 0 137 59 147 123z" />
    <glyph glyph-name="glyph84" horiz-adv-x="575" 
d="M585 274c0 -160 -141 -287 -298 -287c-128 0 -215 84 -215 212c0 166 145 285 298 285c128 0 215 -84 215 -210zM460 236c1 6 2 14 2 23c0 58 -46 107 -111 107c-80 0 -156 -73 -156 -152c0 -61 45 -109 110 -109c71 0 142 57 155 131z" />
    <glyph glyph-name="glyph85" horiz-adv-x="336" 
d="M251 0h-123l63 360h-113l20 115h236z" />
    <glyph glyph-name="glyph86" horiz-adv-x="433" 
d="M412 0h-372l19 110c193 92 276 167 276 222c0 22 -13 43 -49 43c-34 0 -74 -18 -86 -78h-109c18 102 89 187 212 187c93 0 155 -49 155 -138c0 -92 -66 -180 -214 -238l187 7z" />
    <glyph glyph-name="glyph87" horiz-adv-x="522" 
d="M268 115h-26l20 116h28c62 0 94 46 94 86c0 29 -18 57 -60 57c-50 0 -80 -40 -87 -77h-120c21 105 99 187 224 187c107 0 167 -59 167 -145c0 -70 -40 -130 -110 -162c55 -26 76 -60 76 -121c0 -153 -130 -234 -257 -234c-122 0 -176 74 -176 166c0 13 1 21 2 30h121
c0 -50 21 -83 76 -83c71 0 110 56 110 104c0 40 -26 76 -82 76z" />
    <glyph glyph-name="glyph88" horiz-adv-x="536" 
d="M389 -168h-123l30 168h-261l20 119l325 358h123l-64 -362h77l-20 -115h-77zM316 115l32 185l-160 -185h128z" />
    <glyph glyph-name="glyph89" horiz-adv-x="517" 
d="M480 360h-179l-34 -89c21 8 37 12 63 12c118 0 167 -81 167 -178c0 -143 -106 -283 -268 -283c-123 0 -200 81 -200 188c0 12 1 20 2 29h107c0 -60 29 -101 94 -101c76 0 140 56 140 134c0 58 -36 95 -94 95c-33 0 -72 -12 -99 -35l-74 49l102 294h293z" />
    <glyph glyph-name="glyph90" horiz-adv-x="522" 
d="M494 662l-177 -235c12 2 23 3 35 3c103 0 175 -80 175 -187c0 -146 -132 -256 -267 -256c-115 0 -192 80 -192 188c0 21 3 41 11 65c25 76 95 171 281 422h134zM278 105c59 0 127 51 127 120c0 51 -38 90 -90 90c-63 0 -124 -59 -124 -122c0 -49 36 -88 87 -88z" />
    <glyph glyph-name="glyph91" horiz-adv-x="423" 
d="M151 -168h-127l316 528h-272l20 115h398l-19 -112z" />
    <glyph glyph-name="glyph92" horiz-adv-x="539" 
d="M485 398c37 -34 60 -84 60 -142c0 -161 -134 -269 -280 -269c-117 0 -196 83 -196 191c0 88 52 172 125 221c-13 20 -20 43 -20 71c0 132 108 204 216 204c89 0 149 -63 149 -146c0 -44 -17 -93 -54 -130zM287 105c62 0 136 48 136 125c0 56 -38 100 -95 100
c-67 0 -136 -62 -136 -131c0 -53 40 -94 95 -94zM383 445c22 14 38 38 38 63c0 30 -22 52 -53 52c-38 0 -75 -34 -75 -74c0 -18 8 -32 19 -41c11 2 23 3 35 3s24 -1 36 -3z" />
    <glyph glyph-name="glyph93" horiz-adv-x="522" 
d="M244 -191h-134l177 235c-12 -2 -23 -3 -35 -3c-102 0 -175 78 -175 188c0 147 131 255 267 255c114 0 192 -77 192 -192c0 -13 -1 -32 -11 -61c-27 -79 -92 -167 -281 -422zM325 366c-63 0 -126 -58 -126 -122c0 -49 37 -88 89 -88c63 0 125 59 125 121
c0 46 -33 89 -88 89z" />
    <glyph glyph-name="ordfeminine" unicode="&#xaa;" horiz-adv-x="453" 
d="M474 407h-91l5 29c-30 -30 -67 -38 -101 -38c-90 0 -140 57 -140 140c0 111 88 200 201 200c33 0 67 -8 87 -39l6 33h91zM307 476c71 0 108 59 108 111c0 42 -24 72 -74 72c-67 0 -104 -55 -104 -113c0 -44 22 -70 70 -70z" />
    <glyph glyph-name="ordmasculine" unicode="&#xba;" horiz-adv-x="448" 
d="M498 570c-19 -97 -107 -171 -204 -171c-85 0 -147 56 -147 143c0 108 97 199 206 199c88 0 148 -60 148 -141c0 -10 -1 -20 -3 -30zM308 487c51 0 99 42 99 98c0 40 -25 68 -68 68c-54 0 -99 -47 -99 -99c0 -39 26 -67 68 -67z" />
    <glyph glyph-name="onesuperior" unicode="&#xb9;" horiz-adv-x="271" 
d="M273 296h-96l63 358h-85l15 86h181z" />
    <glyph glyph-name="twosuperior" unicode="&#xb2;" horiz-adv-x="390" 
d="M394 296h-298l14 80l185 148c35 28 59 67 59 97c0 24 -15 42 -45 42c-47 0 -64 -42 -70 -71h-95c18 102 94 155 182 155c85 0 128 -50 128 -111c0 -51 -30 -118 -96 -168l-114 -86h165z" />
    <glyph glyph-name="threesuperior" unicode="&#xb3;" horiz-adv-x="428" 
d="M273 505l14 84h15c33 0 84 7 84 55c0 33 -24 41 -43 41c-26 0 -55 -14 -63 -56h-90l2 8c24 98 108 126 168 126c63 0 122 -31 122 -99c0 -43 -24 -96 -81 -119c40 -17 56 -45 56 -85c0 -96 -89 -170 -183 -170c-72 0 -147 42 -147 132c0 10 1 18 2 28h88
c-1 -3 -1 -6 -1 -9c0 -40 38 -65 73 -65c40 0 72 32 72 79c0 42 -26 50 -88 50z" />
    <glyph glyph-name="onequarter" unicode="&#xbc;" horiz-adv-x="814" 
d="M696 0h-90l11 65h-203l14 77l243 292h101l-51 -287h58l-14 -82h-58zM631 147l30 167l-132 -167h102zM273 296h-96l63 358h-85l15 86h181zM233 0h-97l536 740h97z" />
    <glyph glyph-name="onehalf" unicode="&#xbd;" horiz-adv-x="863" 
d="M273 296h-96l63 358h-85l15 86h181zM233 0h-97l536 740h97zM800 0h-298l14 80l185 148c35 28 59 67 59 97c0 24 -15 42 -45 42c-47 0 -64 -42 -70 -71h-95c18 102 94 155 182 155c85 0 128 -50 128 -111c0 -51 -30 -118 -96 -168l-114 -86h165z" />
    <glyph glyph-name="threequarters" unicode="&#xbe;" horiz-adv-x="915" 
d="M797 0h-90l11 65h-203l14 77l243 292h101l-51 -287h58l-14 -82h-58zM732 147l30 167l-132 -167h102zM334 0h-97l536 740h97zM263 505l14 84h15c33 0 84 7 84 55c0 33 -24 41 -43 41c-26 0 -55 -14 -63 -56h-90l2 8c24 98 108 126 168 126c63 0 122 -31 122 -99
c0 -43 -24 -96 -81 -119c40 -17 56 -45 56 -85c0 -96 -89 -170 -183 -170c-72 0 -147 42 -147 132c0 10 1 18 2 28h88c-1 -3 -1 -6 -1 -9c0 -40 38 -65 73 -65c40 0 72 32 72 79c0 42 -26 50 -88 50z" />
    <glyph glyph-name="percent" unicode="%" horiz-adv-x="923" 
d="M903 173c-19 -104 -119 -187 -222 -187c-92 0 -159 66 -159 156c0 126 112 218 225 218c92 0 159 -67 159 -155c0 -11 -1 -21 -3 -32zM700 95c47 0 91 43 91 91c0 37 -25 64 -63 64c-47 0 -92 -42 -92 -91c0 -37 26 -64 64 -64zM529 573c-19 -103 -119 -187 -223 -187
c-95 0 -158 70 -158 157c0 125 112 217 225 217c92 0 159 -67 159 -155c0 -11 -1 -21 -3 -32zM325 495c46 0 92 41 92 91c0 37 -26 64 -64 64c-49 0 -91 -44 -91 -91c0 -37 26 -64 63 -64zM315 0h-107l536 740h107z" />
    <glyph glyph-name="perthousand" unicode="&#x2030;" horiz-adv-x="1333" 
d="M903 173c-19 -104 -119 -187 -222 -187c-92 0 -159 66 -159 156c0 126 112 218 225 218c92 0 159 -67 159 -155c0 -11 -1 -21 -3 -32zM700 95c47 0 91 43 91 91c0 37 -25 64 -63 64c-47 0 -92 -42 -92 -91c0 -37 26 -64 64 -64zM529 573c-19 -103 -119 -187 -223 -187
c-95 0 -158 70 -158 157c0 125 112 217 225 217c92 0 159 -67 159 -155c0 -11 -1 -21 -3 -32zM325 495c46 0 92 41 92 91c0 37 -26 64 -64 64c-49 0 -91 -44 -91 -91c0 -37 26 -64 63 -64zM315 0h-107l536 740h107zM1313 173c-19 -104 -119 -187 -222 -187
c-92 0 -159 66 -159 156c0 126 112 218 225 218c92 0 159 -67 159 -155c0 -11 -1 -21 -3 -32zM1110 95c47 0 91 43 91 91c0 37 -25 64 -63 64c-47 0 -92 -42 -92 -91c0 -37 26 -64 64 -64z" />
    <glyph glyph-name="plus" unicode="+" horiz-adv-x="656" 
d="M398 68h-118l39 219h-219l21 118h219l39 219h118l-39 -219h219l-21 -118h-219z" />
    <glyph glyph-name="minus" unicode="&#x2212;" horiz-adv-x="656" 
d="M656 287h-556l21 118h556z" />
    <glyph glyph-name="multiply" unicode="&#xd7;" horiz-adv-x="588" 
d="M468 108l-128 155l-182 -155l-69 83l183 155l-128 155l97 83l128 -155l182 155l69 -83l-182 -155l127 -155z" />
    <glyph glyph-name="divide" unicode="&#xf7;" horiz-adv-x="656" 
d="M342 85c-39 0 -65 26 -65 63c0 51 44 92 93 92c39 0 64 -26 64 -62c0 -51 -44 -93 -92 -93zM407 452c-39 0 -65 26 -65 63c0 51 44 92 93 92c39 0 64 -26 64 -62c0 -51 -44 -93 -92 -93zM656 287h-556l21 118h556z" />
    <glyph glyph-name="plusminus" unicode="&#xb1;" horiz-adv-x="666" 
d="M675 366h-219l-33 -189h-118l33 189h-219l21 118h219l33 189h118l-33 -189h219zM611 0h-556l20 118h556z" />
    <glyph glyph-name="equal" unicode="=" horiz-adv-x="644" 
d="M660 405h-534l21 118h534zM618 169h-534l21 118h534z" />
    <glyph glyph-name="dollar" unicode="$" horiz-adv-x="592" 
d="M345 -80h-121l15 80c-69 11 -131 44 -177 128l97 85c33 -47 73 -96 154 -96c93 0 136 64 136 111c0 121 -283 61 -283 272c0 123 95 210 201 233l15 88h121l-14 -81c49 -7 95 -27 144 -67l-86 -102c-35 37 -82 52 -127 52c-71 0 -120 -38 -120 -92
c0 -129 284 -51 284 -277c0 -128 -92 -231 -224 -252z" />
    <glyph glyph-name="cent" unicode="&#xa2;" horiz-adv-x="607" 
d="M363 0h-106l23 131c-95 25 -154 100 -154 203c0 144 115 256 238 280l22 126h106l-22 -123c68 -12 121 -53 149 -109l-116 -61c-18 34 -53 56 -97 56c-79 0 -157 -72 -157 -152c0 -61 47 -109 111 -109c46 0 91 24 121 61l93 -62c-47 -58 -116 -100 -189 -113z" />
    <glyph glyph-name="sterling" unicode="&#xa3;" horiz-adv-x="568" 
d="M545 0h-520l20 114c137 44 146 124 151 177h-118l22 124h79c-6 23 -11 46 -11 78c0 138 95 260 279 260c146 0 207 -76 207 -183c0 -14 -1 -18 -1 -27h-132c-5 56 -33 90 -99 90c-80 0 -120 -51 -120 -129c0 -30 6 -59 13 -89h238l-22 -124h-206
c0 -62 -39 -127 -122 -167h363z" />
    <glyph glyph-name="Euro" unicode="&#x20ac;" horiz-adv-x="600" 
d="M461 186h120c-31 -114 -123 -199 -260 -199s-196 86 -196 204c0 15 1 29 3 44h-87l49 93h53l13 69h-76l49 93h43c25 139 125 263 286 263c115 0 190 -63 190 -176c0 -7 0 -15 -1 -23h-122c-4 57 -41 79 -88 79c-77 0 -120 -59 -138 -143h260l-49 -93h-227l-13 -69h217
l-49 -93h-183c-1 -9 -2 -18 -2 -30c0 -56 22 -98 87 -98c54 0 107 28 121 79z" />
    <glyph glyph-name="yen" unicode="&#xa5;" horiz-adv-x="687" 
d="M661 139h-228l-24 -139h-131l24 139h-239l18 103h239l14 81h-239l19 103h175l-149 314h152l130 -289l233 289h152l-260 -314h165l-19 -103h-228l-14 -81h228z" />
    <glyph glyph-name="florin" unicode="&#x192;" horiz-adv-x="342" 
d="M2 -200l19 109c7 -1 15 -1 19 -1c43 0 56 20 61 52l70 397h-84l21 118h84l22 125c16 90 76 140 163 140c24 0 41 -4 55 -8l-20 -109c-6 1 -14 1 -18 1c-43 0 -56 -20 -62 -52l-17 -97h85l-21 -118h-85l-74 -425c-16 -90 -76 -140 -163 -140c-24 0 -41 4 -55 8z" />
    <glyph glyph-name="currency" unicode="&#xa4;" horiz-adv-x="612" 
d="M536 58l-69 82c-45 -27 -96 -42 -148 -42c-54 0 -100 16 -137 43l-96 -82l-55 65l97 83c-14 28 -22 61 -22 97c0 67 27 132 72 183l-68 82l78 67l69 -83c45 26 95 42 148 42c52 0 98 -15 133 -41l97 81l54 -66l-94 -80c15 -29 24 -63 24 -100c0 -67 -30 -132 -73 -183
l68 -81zM339 216c78 0 157 69 157 154c0 58 -46 107 -111 107c-78 0 -156 -71 -156 -152c0 -62 46 -109 110 -109z" />
    <glyph glyph-name="exclam" unicode="!" horiz-adv-x="349" 
d="M254 233h-77l21 265l43 242h127l-43 -242zM172 -7c-38 0 -64 26 -64 64c0 50 44 91 93 91c39 0 64 -26 64 -63c0 -50 -44 -92 -93 -92z" />
    <glyph glyph-name="exclamdown" unicode="&#xa1;" horiz-adv-x="309" 
d="M184 -192h-127l42 242l72 265h77l-22 -265zM317 490c0 -44 -41 -90 -93 -90c-39 0 -65 26 -65 62c0 52 44 93 92 93c42 0 66 -30 66 -65z" />
    <glyph glyph-name="question" unicode="?" horiz-adv-x="549" 
d="M241 -7c-39 0 -65 26 -65 63c0 51 44 92 93 92c39 0 64 -26 64 -62c0 -51 -44 -93 -92 -93zM345 211h-127l9 53c26 151 104 133 192 195c35 25 58 54 58 103c0 41 -26 71 -81 71c-61 0 -108 -35 -121 -109h-118c23 133 125 230 268 230c116 0 183 -64 183 -165
c0 -128 -69 -186 -167 -236c-51 -26 -79 -42 -87 -89z" />
    <glyph glyph-name="questiondown" unicode="&#xbf;" horiz-adv-x="514" 
d="M477 475c-8 -45 -48 -77 -91 -77c-39 0 -65 25 -65 63c0 50 44 92 92 92c34 0 65 -21 65 -67c0 -2 0 -6 -1 -11zM379 22h118c-23 -133 -124 -230 -270 -230c-115 0 -181 60 -181 173c0 131 88 185 168 228c55 29 77 43 86 89l10 53h127l-10 -53
c-30 -158 -103 -131 -192 -195c-36 -25 -57 -56 -57 -100c0 -49 27 -74 80 -74c61 0 108 35 121 109z" />
    <glyph glyph-name="quoteright" unicode="'" horiz-adv-x="273" 
d="M267 484h-92l25 256h133z" />
    <glyph glyph-name="quotedbl" unicode="&#x22;" horiz-adv-x="472" 
d="M267 484h-92l25 256h133zM466 484h-92l25 256h133z" />
    <glyph glyph-name="quoteleft" unicode="&#x2018;" horiz-adv-x="256" 
d="M319 742l-11 -63c-30 -5 -73 -38 -86 -84c5 1 13 1 15 1c35 0 61 -25 61 -61c0 -51 -44 -93 -93 -93c-44 0 -65 30 -65 75c0 90 78 221 179 225z" />
    <glyph glyph-name="quoteright" unicode="&#x2019;" horiz-adv-x="256" 
d="M145 445l11 63c30 5 74 38 86 84c-4 -1 -12 -1 -14 -1c-36 0 -62 25 -62 63c0 49 44 91 94 91c43 0 64 -30 64 -76c0 -87 -77 -221 -179 -224z" />
    <glyph glyph-name="quotedblleft" unicode="&#x201c;" horiz-adv-x="463" 
d="M526 742l-11 -63c-30 -5 -73 -38 -86 -84c5 1 13 1 15 1c35 0 61 -24 61 -62c0 -50 -44 -92 -94 -92c-43 0 -64 30 -64 76c0 87 77 220 179 224zM319 742l-11 -63c-30 -5 -73 -38 -86 -84c5 1 13 1 15 1c35 0 61 -24 61 -62c0 -50 -44 -92 -94 -92c-43 0 -64 30 -64 76
c0 87 77 220 179 224z" />
    <glyph glyph-name="quotedblright" unicode="&#x201d;" horiz-adv-x="463" 
d="M145 445l11 63c30 5 74 38 86 84c-4 -1 -12 -1 -14 -1c-36 0 -62 24 -62 63c0 51 45 91 94 91c43 0 64 -30 64 -76c0 -89 -78 -221 -179 -224zM352 445l11 63c30 5 74 38 86 84c-4 -1 -12 -1 -14 -1c-36 0 -62 24 -62 63c0 51 45 91 94 91c43 0 64 -30 64 -76
c0 -89 -78 -221 -179 -224z" />
    <glyph glyph-name="quotesinglbase" unicode="&#x201a;" horiz-adv-x="256" 
d="M40 -152l11 63c30 5 74 38 86 84c-5 -1 -13 -1 -15 -1c-36 0 -61 25 -61 61c0 52 45 93 94 93c43 0 64 -30 64 -76c0 -89 -78 -221 -179 -224z" />
    <glyph glyph-name="quotedblbase" unicode="&#x201e;" horiz-adv-x="463" 
d="M40 -152l11 63c30 5 74 38 86 84c-5 -1 -13 -1 -15 -1c-36 0 -61 25 -61 61c0 52 45 93 94 93c43 0 64 -30 64 -76c0 -89 -78 -221 -179 -224zM247 -152l11 63c30 5 74 38 86 84c-5 -1 -13 -1 -15 -1c-36 0 -61 25 -61 61c0 52 45 93 94 93c43 0 64 -30 64 -76
c0 -89 -78 -221 -179 -224z" />
    <glyph glyph-name="guilsinglleft" unicode="&#x2039;" horiz-adv-x="346" 
d="M315 52h-139l-92 201l162 199h137l-159 -199z" />
    <glyph glyph-name="guilsinglright" unicode="&#x203a;" horiz-adv-x="346" 
d="M188 52h-139l161 201l-89 199h137l92 -199z" />
    <glyph glyph-name="guillemotleft" unicode="&#xab;" horiz-adv-x="579" 
d="M315 52h-139l-92 201l162 199h137l-159 -199zM548 52h-139l-92 201l162 199h137l-159 -199z" />
    <glyph glyph-name="guillemotright" unicode="&#xbb;" horiz-adv-x="579" 
d="M188 52h-139l161 201l-89 199h137l92 -199zM421 52h-139l161 201l-89 199h137l92 -199z" />
    <glyph glyph-name="dagger" unicode="&#x2020;" horiz-adv-x="567" 
d="M302 -253h-127l117 664h-175l20 111h175l38 218h127l-38 -218h175l-20 -111h-175z" />
    <glyph glyph-name="daggerdbl" unicode="&#x2021;" horiz-adv-x="566" 
d="M301 -253h-127l47 265h-174l19 110h174l56 319h-174l20 110h174l33 189h127l-33 -189h175l-20 -110h-175l-56 -319h175l-19 -110h-175z" />
    <glyph glyph-name="parenleft" unicode="(" horiz-adv-x="380" 
d="M350 -110l-72 -91c-94 62 -190 183 -190 370c0 307 207 504 358 583l40 -91c-93 -60 -265 -218 -265 -472c0 -162 84 -261 129 -299z" />
    <glyph glyph-name="parenright" unicode=")" horiz-adv-x="380" 
d="M30 -201l-39 91c77 50 265 216 265 473c0 155 -77 254 -130 298l72 91c94 -61 190 -183 190 -370c0 -308 -207 -503 -358 -583z" />
    <glyph glyph-name="bracketleft" unicode="[" horiz-adv-x="353" 
d="M307 -202h-283l166 942h283l-21 -121h-152l-124 -701h152z" />
    <glyph glyph-name="bracketright" unicode="]" horiz-adv-x="353" 
d="M257 -202h-282l21 120h151l124 701h-152l21 121h283z" />
    <glyph glyph-name="braceleft" unicode="{" horiz-adv-x="384" 
d="M338 -204h-129c-61 0 -86 45 -86 98c0 11 1 22 3 33l29 168c2 11 3 22 3 33c0 43 -21 83 -101 86l19 106c99 3 131 68 140 120l30 168c11 65 55 131 129 131h129l-16 -89h-56c-43 0 -58 -54 -63 -86l-28 -161c-10 -55 -50 -117 -141 -135c70 -9 93 -64 93 -117
c0 -11 -1 -22 -3 -33l-26 -147c-2 -10 -3 -23 -3 -35c0 -26 7 -51 36 -51h56z" />
    <glyph glyph-name="braceright" unicode="}" horiz-adv-x="384" 
d="M103 -204h-128l15 89h55c43 0 57 54 63 86l26 147c10 60 55 139 144 150c-71 15 -96 61 -96 108c0 9 1 18 3 27l28 161c2 10 4 23 4 35c0 26 -8 51 -37 51h-56l16 89h129c61 0 86 -46 86 -99c0 -11 -1 -21 -3 -32l-30 -168c-2 -10 -3 -20 -3 -30c0 -44 20 -88 101 -90
l-19 -106c-100 -3 -131 -66 -140 -119l-29 -168c-11 -65 -57 -131 -129 -131z" />
    <glyph glyph-name="less" unicode="&#x3c;" horiz-adv-x="471" 
d="M446 88l-102 -82l-283 340l402 340l74 -83l-307 -257z" />
    <glyph glyph-name="greater" unicode="&#x3e;" horiz-adv-x="471" 
d="M532 346l-403 -340l-74 82l308 258l-217 257l102 83z" />
    <glyph glyph-name="bar" unicode="|" horiz-adv-x="266" 
d="M171 -140h-126l155 880h126z" />
    <glyph glyph-name="brokenbar" unicode="&#xa6;" horiz-adv-x="267" 
d="M265 390h-127l62 350h127zM172 -140h-127l62 350h127z" />
    <glyph glyph-name="slash" unicode="/" horiz-adv-x="541" 
d="M130 0h-125l536 740h125z" />
    <glyph glyph-name="backslash" unicode="\" horiz-adv-x="541" 
d="M536 0h-125l-276 740h125z" />
    <glyph glyph-name="fraction" unicode="&#x2044;" horiz-adv-x="196" 
d="M-56 0h-97l536 740h97z" />
    <glyph glyph-name="period" unicode="." horiz-adv-x="355" 
d="M176 -7c-39 0 -65 26 -65 63c0 51 44 92 93 92c39 0 64 -26 64 -62c0 -51 -44 -93 -92 -93z" />
    <glyph glyph-name="comma" unicode="," horiz-adv-x="356" 
d="M90 -152l11 63c30 5 74 38 86 84c-5 -1 -13 -1 -15 -1c-36 0 -61 25 -61 61c0 51 43 93 93 93c44 0 65 -30 65 -75c0 -90 -78 -222 -179 -225z" />
    <glyph glyph-name="colon" unicode=":" horiz-adv-x="355" 
d="M176 -7c-39 0 -65 26 -65 63c0 51 44 92 93 92c39 0 64 -26 64 -62c0 -51 -44 -93 -92 -93zM234 320c-39 0 -65 26 -65 63c0 51 43 92 92 92c39 0 65 -27 65 -64c0 -50 -45 -91 -92 -91z" />
    <glyph glyph-name="semicolon" unicode=";" horiz-adv-x="356" 
d="M234 320c-39 0 -65 26 -65 63c0 51 43 92 92 92c39 0 65 -27 65 -64c0 -50 -45 -91 -92 -91zM90 -152l11 63c30 5 74 38 86 84c-5 -1 -13 -1 -15 -1c-36 0 -61 25 -61 61c0 51 43 93 93 93c44 0 65 -30 65 -75c0 -90 -78 -222 -179 -225z" />
    <glyph glyph-name="ellipsis" unicode="&#x2026;" horiz-adv-x="1065" 
d="M176 -7c-39 0 -65 26 -65 63c0 51 44 92 93 92c39 0 64 -26 64 -62c0 -51 -44 -93 -92 -93zM531 -7c-39 0 -65 26 -65 63c0 51 44 92 93 92c39 0 64 -26 64 -62c0 -51 -44 -93 -92 -93zM886 -7c-39 0 -65 26 -65 63c0 51 44 92 93 92c39 0 64 -26 64 -62
c0 -51 -44 -93 -92 -93z" />
    <glyph glyph-name="periodcentered" unicode="&#xb7;" horiz-adv-x="355" 
d="M209 177c-40 0 -66 27 -66 65c0 50 45 90 93 90c39 0 64 -26 64 -62c0 -51 -42 -93 -91 -93z" />
    <glyph glyph-name="bullet" unicode="&#x2022;" horiz-adv-x="515" 
d="M292 197c-88 0 -149 65 -149 149c0 112 104 211 214 211c88 0 147 -66 147 -149c0 -111 -103 -211 -212 -211z" />
    <glyph glyph-name="hyphen" unicode="-" horiz-adv-x="442" 
d="M411 225h-302l21 116h302z" />
    <glyph glyph-name="endash" unicode="&#x2013;" horiz-adv-x="589" 
d="M613 225h-559l21 116h559z" />
    <glyph glyph-name="emdash" unicode="&#x2014;" horiz-adv-x="1034" 
d="M1058 225h-1004l21 116h1004z" />
    <glyph glyph-name="underscore" unicode="_" horiz-adv-x="553" 
d="M518 -112h-522l19 112h523z" />
    <glyph glyph-name="logicalnot" unicode="&#xac;" horiz-adv-x="672" 
d="M623 68h-118l39 220h-444l21 118h562z" />
    <glyph glyph-name="mu" unicode="&#xb5;" horiz-adv-x="586" 
d="M153 -253h-123l128 728h123l-43 -246c-4 -20 -6 -37 -6 -52c0 -47 20 -72 84 -72c84 0 108 44 122 124l43 246h123l-49 -279c-26 -149 -131 -209 -248 -209c-57 0 -78 14 -104 44z" />
    <glyph glyph-name="degree" unicode="&#xb0;" horiz-adv-x="380" 
d="M440 570c-15 -83 -93 -150 -176 -150c-74 0 -127 53 -127 123c0 95 88 177 179 177c74 0 126 -53 126 -124c0 -8 0 -17 -2 -26zM367 570c1 5 1 10 1 14c0 36 -26 63 -64 63c-48 0 -92 -42 -92 -92c0 -36 26 -62 64 -62c43 0 83 34 91 77z" />
    <glyph glyph-name="asterisk" unicode="*" horiz-adv-x="454" 
d="M453 456l-102 60l-14 -102h-87l25 103l-106 -75l-31 72l108 55l-99 43l53 77l98 -57l14 108h89l-26 -108l108 75l33 -72l-109 -56l100 -47z" />
    <glyph glyph-name="asciicircum" unicode="^" horiz-adv-x="602" 
d="M626 336h-130l-84 301l-188 -301h-130l265 404h144z" />
    <glyph glyph-name="asciitilde" unicode="~" horiz-adv-x="634" 
d="M563 410h85c1 -8 2 -15 2 -22c0 -98 -82 -168 -175 -168c-102 0 -129 80 -218 80c-54 0 -69 -28 -76 -79h-85c-1 8 -1 16 -1 23c0 97 77 167 184 167c115 0 132 -80 211 -80c49 0 73 34 73 79z" />
    <glyph glyph-name="section" unicode="&#xa7;" horiz-adv-x="592" 
d="M80 32h125c-1 -7 -2 -14 -2 -20c0 -47 37 -70 84 -70s105 24 105 73c0 101 -293 113 -293 284c0 80 50 133 118 173c-10 22 -16 42 -16 65c0 133 124 196 236 196c111 0 172 -59 172 -170v-18h-125c-1 44 -26 66 -70 66c-43 0 -87 -21 -87 -62c0 -91 269 -102 269 -252
c0 -76 -56 -135 -109 -169c21 -26 32 -54 32 -87c0 -142 -132 -221 -252 -221c-114 0 -190 68 -190 176c0 12 1 24 3 36zM415 192c25 17 53 41 53 76c0 25 -30 44 -188 130c-25 -15 -53 -46 -53 -73c0 -26 32 -51 188 -133z" />
    <glyph glyph-name="at" unicode="@" horiz-adv-x="965" 
d="M678 -100l40 -80c-68 -40 -157 -82 -275 -82c-209 0 -370 129 -370 354c0 31 3 62 9 95c55 302 308 457 534 457c184 0 350 -102 350 -318c0 -175 -110 -352 -245 -352c-60 0 -97 35 -100 89c-56 -67 -133 -77 -172 -77c-104 0 -161 71 -161 167c0 125 98 246 241 246
c37 0 80 -8 114 -45l7 39h111l-44 -248c-2 -10 -2 -13 -2 -15c0 -32 9 -44 27 -44c56 0 108 109 108 212c0 112 -61 232 -246 232c-160 0 -363 -89 -407 -343c-5 -28 -7 -56 -7 -79c0 -184 130 -264 275 -264c72 0 148 20 213 56zM616 193c1 6 2 14 2 23c0 49 -33 88 -95 88
c-80 0 -133 -64 -133 -133c0 -55 33 -90 93 -90c70 0 122 48 133 112z" />
    <glyph glyph-name="copyright" unicode="&#xa9;" horiz-adv-x="864" 
d="M879 370c-37 -210 -239 -382 -450 -382c-187 0 -320 135 -320 314c0 242 224 450 456 450c188 0 320 -137 320 -316c0 -21 -2 -43 -6 -66zM444 73c180 0 350 165 350 349c0 138 -99 245 -245 245c-182 0 -350 -165 -350 -350c0 -138 99 -244 245 -244zM599 309l84 -55
c-51 -66 -131 -110 -213 -110c-109 0 -189 81 -189 187c0 138 130 267 269 267c80 0 144 -44 173 -109l-103 -54c-14 33 -47 56 -89 56c-74 0 -138 -69 -138 -143c0 -55 39 -97 96 -97c44 0 84 26 110 58z" />
    <glyph glyph-name="registered" unicode="&#xae;" horiz-adv-x="864" 
d="M879 370c-37 -210 -239 -382 -450 -382c-187 0 -320 135 -320 314c0 242 224 450 456 450c188 0 320 -137 320 -316c0 -21 -2 -43 -6 -66zM444 73c180 0 350 165 350 349c0 138 -99 245 -245 245c-182 0 -350 -165 -350 -350c0 -138 99 -244 245 -244zM647 158h-105
l-68 166h-50l-30 -166h-91l77 432h191c77 0 127 -27 127 -96c0 -88 -51 -143 -123 -162zM438 404h78c52 0 85 13 85 66c0 31 -23 39 -67 39h-78z" />
    <glyph glyph-name="trademark" unicode="&#x2122;" horiz-adv-x="812" 
d="M808 378h-96l40 228l-88 -105h-32l-53 104l-40 -227h-94l64 362h96l63 -126l113 126h91zM298 378h-94l49 279h-88l15 83h269l-15 -83h-87z" />
    <glyph glyph-name="quoteleft" unicode="`" horiz-adv-x="385" 
d="M374 544l-207 120l77 106l204 -128z" />
    <glyph glyph-name="acute" unicode="&#xb4;" horiz-adv-x="385" 
d="M452 664l-251 -120l-38 98l248 128z" />
    <glyph glyph-name="circumflex" unicode="&#x2c6;" horiz-adv-x="460" 
d="M517 608l-81 -67l-93 97l-130 -97l-56 67l172 137h66z" />
    <glyph glyph-name="tilde" unicode="&#x2dc;" horiz-adv-x="462" 
d="M486 682l30 -88c-36 -33 -75 -53 -113 -53c-55 0 -92 41 -136 41c-25 0 -48 -13 -69 -30l-35 90c33 27 75 48 115 48c57 0 90 -41 134 -41c23 0 49 12 74 33z" />
    <glyph glyph-name="macron" unicode="&#xaf;" horiz-adv-x="458" 
d="M506 558h-358l18 105h358z" />
    <glyph glyph-name="breve" unicode="&#x2d8;" horiz-adv-x="387" 
d="M385 682h72c-14 -77 -62 -141 -168 -141c-90 0 -123 46 -123 105c0 12 2 24 4 36h72c-1 -5 -2 -10 -2 -15c0 -29 20 -46 62 -46c48 0 76 22 83 61z" />
    <glyph glyph-name="dotaccent" unicode="&#x2d9;" horiz-adv-x="255" 
d="M223 541c-39 0 -65 26 -65 63c0 51 43 92 92 92c39 0 65 -27 65 -64c0 -50 -45 -91 -92 -91z" />
    <glyph glyph-name="dieresis" unicode="&#xa8;" horiz-adv-x="465" 
d="M223 541c-39 0 -65 26 -65 63c0 51 43 92 92 92c39 0 65 -27 65 -64c0 -50 -45 -91 -92 -91zM433 541c-39 0 -65 26 -65 63c0 51 43 92 92 92c39 0 65 -27 65 -64c0 -50 -45 -91 -92 -91z" />
    <glyph glyph-name="ring" unicode="&#x2da;" horiz-adv-x="319" 
d="M375 604c-11 -60 -69 -109 -129 -109c-53 0 -92 40 -92 91c0 66 64 128 130 128c54 0 93 -39 93 -91c0 -6 -1 -12 -2 -19zM304 604c0 2 1 5 1 7c0 18 -14 32 -33 32c-23 0 -46 -22 -46 -46c0 -18 13 -31 32 -31c21 0 42 16 46 38z" />
    <glyph glyph-name="cedilla" unicode="&#xb8;" horiz-adv-x="307" 
d="M129 -91h-68l49 91h57l-25 -40h10c56 0 82 -36 82 -78c0 -55 -44 -119 -119 -119c-44 0 -91 21 -91 86c0 5 0 9 1 14h52c0 -33 19 -50 46 -50c31 0 56 31 56 58c0 20 -14 38 -50 38z" />
    <glyph glyph-name="hungarumlaut" unicode="&#x2dd;" horiz-adv-x="631" 
d="M447 693l-229 -164l-59 84l225 172zM703 693l-229 -164l-59 84l225 172z" />
    <glyph glyph-name="ogonek" unicode="&#x2db;" horiz-adv-x="248" 
d="M247 -111l-13 -71c-27 -15 -55 -22 -82 -22c-53 0 -94 26 -94 78c0 50 33 98 70 126h69c-22 -24 -44 -60 -44 -85c0 -26 21 -39 47 -39c15 0 31 4 47 13z" />
    <glyph glyph-name="caron" unicode="&#x2c7;" horiz-adv-x="460" 
d="M529 678l-172 -137h-66l-122 137l81 67l93 -97l130 97z" />
    <glyph glyph-name="paragraph" unicode="&#xb6;" horiz-adv-x="759" 
d="M574 -193h-107l147 833h-103l-147 -833h-107l78 442c-131 13 -228 79 -228 199c0 137 110 292 321 292h416l-18 -100h-105zM353 346l52 296c-128 0 -193 -76 -193 -173c0 -67 44 -116 141 -123z" />
    <glyph glyph-name="Agrave" unicode="&#xc0;" horiz-adv-x="724" 
d="M724 0h-142l-34 158h-319l-87 -158h-142l426 740h133zM523 283l-60 294l-165 -294h225zM569 809l-207 120l77 106l204 -128z" />
    <glyph glyph-name="Aacute" unicode="&#xc1;" horiz-adv-x="724" 
d="M724 0h-142l-34 158h-319l-87 -158h-142l426 740h133zM523 283l-60 294l-165 -294h225zM677 929l-251 -120l-38 98l248 128z" />
    <glyph glyph-name="Acircumflex" unicode="&#xc2;" horiz-adv-x="724" 
d="M724 0h-142l-34 158h-319l-87 -158h-142l426 740h133zM523 283l-60 294l-165 -294h225zM695 873l-81 -67l-93 97l-130 -97l-56 67l172 137h66z" />
    <glyph glyph-name="Atilde" unicode="&#xc3;" horiz-adv-x="724" 
d="M724 0h-142l-34 158h-319l-87 -158h-142l426 740h133zM523 283l-60 294l-165 -294h225zM663 947l30 -88c-36 -33 -75 -53 -113 -53c-55 0 -92 41 -136 41c-25 0 -48 -13 -69 -30l-35 90c33 27 75 48 115 48c57 0 90 -41 134 -41c23 0 49 12 74 33z" />
    <glyph glyph-name="Adieresis" unicode="&#xc4;" horiz-adv-x="724" 
d="M724 0h-142l-34 158h-319l-87 -158h-142l426 740h133zM523 283l-60 294l-165 -294h225zM398 806c-39 0 -65 26 -65 63c0 51 43 92 92 92c39 0 65 -27 65 -64c0 -50 -45 -91 -92 -91zM608 806c-39 0 -65 26 -65 63c0 51 43 92 92 92c39 0 65 -27 65 -64
c0 -50 -45 -91 -92 -91z" />
    <glyph glyph-name="Aring" unicode="&#xc5;" horiz-adv-x="724" 
d="M724 0h-142l-34 158h-319l-87 -158h-142l426 740h133zM523 283l-60 294l-165 -294h225zM623 869c-11 -60 -69 -109 -129 -109c-53 0 -92 40 -92 91c0 66 64 128 130 128c54 0 93 -39 93 -91c0 -6 -1 -12 -2 -19zM552 869c0 2 1 5 1 7c0 18 -14 32 -33 32
c-23 0 -46 -22 -46 -46c0 -18 13 -31 32 -31c21 0 42 16 46 38z" />
    <glyph glyph-name="agrave" unicode="&#xe0;" 
d="M542 0h-123l5 31c-43 -31 -91 -44 -140 -44c-124 0 -212 84 -212 213c0 166 146 284 298 284c51 0 93 -13 126 -44l6 35h123zM460 236c1 6 2 14 2 23c0 58 -46 107 -111 107c-80 0 -156 -73 -156 -152c0 -61 45 -109 110 -109c71 0 142 57 155 131zM470 544l-207 120
l77 106l204 -128z" />
    <glyph glyph-name="aacute" unicode="&#xe1;" 
d="M542 0h-123l5 31c-43 -31 -91 -44 -140 -44c-124 0 -212 84 -212 213c0 166 146 284 298 284c51 0 93 -13 126 -44l6 35h123zM460 236c1 6 2 14 2 23c0 58 -46 107 -111 107c-80 0 -156 -73 -156 -152c0 -61 45 -109 110 -109c71 0 142 57 155 131zM578 664l-251 -120
l-38 98l248 128z" />
    <glyph glyph-name="acircumflex" unicode="&#xe2;" 
d="M542 0h-123l5 31c-43 -31 -91 -44 -140 -44c-124 0 -212 84 -212 213c0 166 146 284 298 284c51 0 93 -13 126 -44l6 35h123zM460 236c1 6 2 14 2 23c0 58 -46 107 -111 107c-80 0 -156 -73 -156 -152c0 -61 45 -109 110 -109c71 0 142 57 155 131zM585 608l-81 -67
l-93 97l-130 -97l-56 67l172 137h66z" />
    <glyph glyph-name="atilde" unicode="&#xe3;" 
d="M542 0h-123l5 31c-43 -31 -91 -44 -140 -44c-124 0 -212 84 -212 213c0 166 146 284 298 284c51 0 93 -13 126 -44l6 35h123zM460 236c1 6 2 14 2 23c0 58 -46 107 -111 107c-80 0 -156 -73 -156 -152c0 -61 45 -109 110 -109c71 0 142 57 155 131zM553 682l30 -88
c-36 -33 -75 -53 -113 -53c-55 0 -92 41 -136 41c-25 0 -48 -13 -69 -30l-35 90c33 27 75 48 115 48c57 0 90 -41 134 -41c23 0 49 12 74 33z" />
    <glyph glyph-name="adieresis" unicode="&#xe4;" 
d="M542 0h-123l5 31c-43 -31 -91 -44 -140 -44c-124 0 -212 84 -212 213c0 166 146 284 298 284c51 0 93 -13 126 -44l6 35h123zM460 236c1 6 2 14 2 23c0 58 -46 107 -111 107c-80 0 -156 -73 -156 -152c0 -61 45 -109 110 -109c71 0 142 57 155 131zM289 541
c-39 0 -65 26 -65 63c0 51 43 92 92 92c39 0 65 -27 65 -64c0 -50 -45 -91 -92 -91zM499 541c-39 0 -65 26 -65 63c0 51 43 92 92 92c39 0 65 -27 65 -64c0 -50 -45 -91 -92 -91z" />
    <glyph glyph-name="aring" unicode="&#xe5;" 
d="M542 0h-123l5 31c-43 -31 -91 -44 -140 -44c-124 0 -212 84 -212 213c0 166 146 284 298 284c51 0 93 -13 126 -44l6 35h123zM460 236c1 6 2 14 2 23c0 58 -46 107 -111 107c-80 0 -156 -73 -156 -152c0 -61 45 -109 110 -109c71 0 142 57 155 131zM505 614
c-11 -60 -69 -109 -129 -109c-53 0 -92 40 -92 91c0 66 64 128 130 128c54 0 93 -39 93 -91c0 -6 -1 -12 -2 -19zM434 614c0 2 1 5 1 7c0 18 -14 32 -33 32c-23 0 -46 -22 -46 -46c0 -18 13 -31 32 -31c21 0 42 16 46 38z" />
    <glyph glyph-name="Ccedilla" unicode="&#xc7;" horiz-adv-x="713" 
d="M384 -93h-68l44 84c-161 22 -271 146 -271 309c0 261 217 453 459 453c111 0 199 -45 257 -117l-99 -92c-39 57 -100 89 -179 89c-159 0 -307 -149 -307 -311c0 -123 88 -215 215 -215c71 0 149 35 203 82l61 -92c-81 -66 -180 -110 -285 -110l-17 -29h10
c56 0 82 -36 82 -78c0 -55 -45 -119 -120 -119c-44 0 -90 21 -90 86c0 4 0 9 1 14h52v-6c0 -29 21 -44 45 -44c31 0 57 31 57 58c0 20 -14 38 -50 38z" />
    <glyph glyph-name="ccedilla" unicode="&#xe7;" horiz-adv-x="527" 
d="M270 -91h-68l43 82c-104 16 -173 97 -173 201c0 178 146 292 300 292c90 0 160 -45 193 -113l-116 -61c-18 34 -53 56 -98 56c-80 0 -156 -73 -156 -152c0 -61 45 -109 110 -109c47 0 92 24 122 61l93 -62c-54 -66 -135 -111 -220 -116l-17 -28h10c56 0 82 -36 82 -78
c0 -55 -44 -119 -119 -119c-44 0 -91 21 -91 86c0 5 0 9 1 14h52c0 -33 19 -50 46 -50c31 0 56 31 56 58c0 20 -14 38 -50 38z" />
    <glyph glyph-name="Egrave" unicode="&#xc8;" horiz-adv-x="599" 
d="M549 0h-469l130 740h469l-22 -126h-338l-29 -165h266l-23 -126h-266l-34 -197h338zM517 809l-207 120l77 106l204 -128z" />
    <glyph glyph-name="Eacute" unicode="&#xc9;" horiz-adv-x="599" 
d="M549 0h-469l130 740h469l-22 -126h-338l-29 -165h266l-23 -126h-266l-34 -197h338zM635 929l-251 -120l-38 98l248 128z" />
    <glyph glyph-name="Ecircumflex" unicode="&#xca;" horiz-adv-x="599" 
d="M549 0h-469l130 740h469l-22 -126h-338l-29 -165h266l-23 -126h-266l-34 -197h338zM652 873l-81 -67l-93 97l-130 -97l-56 67l172 137h66z" />
    <glyph glyph-name="Edieresis" unicode="&#xcb;" horiz-adv-x="599" 
d="M549 0h-469l130 740h469l-22 -126h-338l-29 -165h266l-23 -126h-266l-34 -197h338zM356 806c-39 0 -65 26 -65 63c0 51 43 92 92 92c39 0 65 -27 65 -64c0 -50 -45 -91 -92 -91zM566 806c-39 0 -65 26 -65 63c0 51 43 92 92 92c39 0 65 -27 65 -64c0 -50 -45 -91 -92 -91
z" />
    <glyph glyph-name="egrave" unicode="&#xe8;" horiz-adv-x="555" 
d="M551 197h-362c4 -58 44 -99 114 -99c44 0 93 16 127 53l72 -67c-53 -61 -135 -97 -219 -97c-123 0 -211 77 -211 210c0 166 136 287 289 287c129 0 204 -86 204 -200c0 -29 -5 -60 -14 -87zM209 287h237c0 48 -40 85 -101 85c-57 0 -109 -34 -136 -85zM439 544l-207 120
l77 106l204 -128z" />
    <glyph glyph-name="eacute" unicode="&#xe9;" horiz-adv-x="555" 
d="M551 197h-362c4 -58 44 -99 114 -99c44 0 93 16 127 53l72 -67c-53 -61 -135 -97 -219 -97c-123 0 -211 77 -211 210c0 166 136 287 289 287c129 0 204 -86 204 -200c0 -29 -5 -60 -14 -87zM209 287h237c0 48 -40 85 -101 85c-57 0 -109 -34 -136 -85zM547 664l-251 -120
l-38 98l248 128z" />
    <glyph glyph-name="ecircumflex" unicode="&#xea;" horiz-adv-x="555" 
d="M551 197h-362c4 -58 44 -99 114 -99c44 0 93 16 127 53l72 -67c-53 -61 -135 -97 -219 -97c-123 0 -211 77 -211 210c0 166 136 287 289 287c129 0 204 -86 204 -200c0 -29 -5 -60 -14 -87zM209 287h237c0 48 -40 85 -101 85c-57 0 -109 -34 -136 -85zM564 608l-81 -67
l-93 97l-130 -97l-56 67l172 137h66z" />
    <glyph glyph-name="edieresis" unicode="&#xeb;" horiz-adv-x="555" 
d="M551 197h-362c4 -58 44 -99 114 -99c44 0 93 16 127 53l72 -67c-53 -61 -135 -97 -219 -97c-123 0 -211 77 -211 210c0 166 136 287 289 287c129 0 204 -86 204 -200c0 -29 -5 -60 -14 -87zM209 287h237c0 48 -40 85 -101 85c-57 0 -109 -34 -136 -85zM268 541
c-39 0 -65 26 -65 63c0 51 43 92 92 92c39 0 65 -27 65 -64c0 -50 -45 -91 -92 -91zM478 541c-39 0 -65 26 -65 63c0 51 43 92 92 92c39 0 65 -27 65 -64c0 -50 -45 -91 -92 -91z" />
    <glyph glyph-name="Igrave" unicode="&#xcc;" horiz-adv-x="291" 
d="M211 0h-131l130 740h131zM354 809l-207 120l77 106l204 -128z" />
    <glyph glyph-name="Iacute" unicode="&#xcd;" horiz-adv-x="291" 
d="M211 0h-131l130 740h131zM461 929l-251 -120l-38 98l248 128z" />
    <glyph glyph-name="Icircumflex" unicode="&#xce;" horiz-adv-x="291" 
d="M211 0h-131l130 740h131zM480 873l-81 -67l-93 97l-130 -97l-56 67l172 137h66z" />
    <glyph glyph-name="Idieresis" unicode="&#xcf;" horiz-adv-x="291" 
d="M211 0h-131l130 740h131zM183 806c-39 0 -65 26 -65 63c0 51 43 92 92 92c39 0 65 -27 65 -64c0 -50 -45 -91 -92 -91zM393 806c-39 0 -65 26 -65 63c0 51 43 92 92 92c39 0 65 -27 65 -64c0 -50 -45 -91 -92 -91z" />
    <glyph glyph-name="igrave" unicode="&#xec;" horiz-adv-x="275" 
d="M199 0h-123l83 475h123zM309 544l-207 120l77 106l204 -128z" />
    <glyph glyph-name="iacute" unicode="&#xed;" horiz-adv-x="275" 
d="M199 0h-123l83 475h123zM402 664l-251 -120l-38 98l248 128z" />
    <glyph glyph-name="icircumflex" unicode="&#xee;" horiz-adv-x="275" 
d="M199 0h-123l83 475h123zM425 608l-81 -67l-93 97l-130 -97l-56 67l172 137h66z" />
    <glyph glyph-name="idieresis" unicode="&#xef;" horiz-adv-x="275" 
d="M199 0h-123l83 475h123zM128 541c-39 0 -65 26 -65 63c0 51 43 92 92 92c39 0 65 -27 65 -64c0 -50 -45 -91 -92 -91zM338 541c-39 0 -65 26 -65 63c0 51 43 92 92 92c39 0 65 -27 65 -64c0 -50 -45 -91 -92 -91z" />
    <glyph glyph-name="Lslash" unicode="&#x141;" horiz-adv-x="579" 
d="M455 456l-185 -119l-37 -211h343l-22 -126h-474l42 243l-90 -58l21 121l91 58l66 376h131l-50 -282l185 119z" />
    <glyph glyph-name="lslash" unicode="&#x142;" horiz-adv-x="283" 
d="M336 384l-80 -51l-31 -178c-1 -7 -2 -12 -2 -18c0 -22 12 -34 45 -34c4 0 12 0 19 1l-19 -109c-15 -4 -34 -8 -58 -8c-75 0 -116 37 -116 104c0 10 1 24 3 36l21 117l-70 -44l21 121l70 44l66 375h123l-50 -286l80 51z" />
    <glyph glyph-name="Ntilde" unicode="&#xd1;" horiz-adv-x="836" 
d="M756 0h-138l-308 563l-99 -563h-131l130 740h165l288 -526l93 526h130zM725 947l30 -88c-36 -33 -75 -53 -113 -53c-55 0 -92 41 -136 41c-25 0 -48 -13 -69 -30l-35 90c33 27 75 48 115 48c57 0 90 -41 134 -41c23 0 49 12 74 33z" />
    <glyph glyph-name="ntilde" unicode="&#xf1;" horiz-adv-x="582" 
d="M517 0h-123l44 254c2 13 3 25 3 35c0 61 -37 77 -82 77c-48 0 -100 -19 -116 -110l-45 -256h-123l83 475h123l-6 -35c31 20 68 44 133 44c90 0 162 -47 162 -156c0 -18 -2 -35 -5 -54zM542 682l30 -88c-36 -33 -75 -53 -113 -53c-55 0 -92 41 -136 41
c-25 0 -48 -13 -69 -30l-35 90c33 27 75 48 115 48c57 0 90 -41 134 -41c23 0 49 12 74 33z" />
    <glyph glyph-name="Ograve" unicode="&#xd2;" horiz-adv-x="833" 
d="M868 370c-36 -208 -233 -383 -455 -383c-191 0 -324 129 -324 321c0 245 216 445 456 445c195 0 329 -132 329 -315c0 -22 -2 -45 -6 -68zM434 107c157 0 307 144 307 307c0 122 -83 219 -213 219c-161 0 -308 -151 -308 -311c0 -123 88 -215 214 -215zM595 809l-207 120
l77 106l204 -128z" />
    <glyph glyph-name="Oacute" unicode="&#xd3;" horiz-adv-x="833" 
d="M868 370c-36 -208 -233 -383 -455 -383c-191 0 -324 129 -324 321c0 245 216 445 456 445c195 0 329 -132 329 -315c0 -22 -2 -45 -6 -68zM434 107c157 0 307 144 307 307c0 122 -83 219 -213 219c-161 0 -308 -151 -308 -311c0 -123 88 -215 214 -215zM732 929
l-251 -120l-38 98l248 128z" />
    <glyph glyph-name="Ocircumflex" unicode="&#xd4;" horiz-adv-x="833" 
d="M868 370c-36 -208 -233 -383 -455 -383c-191 0 -324 129 -324 321c0 245 216 445 456 445c195 0 329 -132 329 -315c0 -22 -2 -45 -6 -68zM434 107c157 0 307 144 307 307c0 122 -83 219 -213 219c-161 0 -308 -151 -308 -311c0 -123 88 -215 214 -215zM749 873l-81 -67
l-93 97l-130 -97l-56 67l172 137h66z" />
    <glyph glyph-name="Otilde" unicode="&#xd5;" horiz-adv-x="833" 
d="M868 370c-36 -208 -233 -383 -455 -383c-191 0 -324 129 -324 321c0 245 216 445 456 445c195 0 329 -132 329 -315c0 -22 -2 -45 -6 -68zM434 107c157 0 307 144 307 307c0 122 -83 219 -213 219c-161 0 -308 -151 -308 -311c0 -123 88 -215 214 -215zM717 947l30 -88
c-36 -33 -75 -53 -113 -53c-55 0 -92 41 -136 41c-25 0 -48 -13 -69 -30l-35 90c33 27 75 48 115 48c57 0 90 -41 134 -41c23 0 49 12 74 33z" />
    <glyph glyph-name="Odieresis" unicode="&#xd6;" horiz-adv-x="833" 
d="M868 370c-36 -208 -233 -383 -455 -383c-191 0 -324 129 -324 321c0 245 216 445 456 445c195 0 329 -132 329 -315c0 -22 -2 -45 -6 -68zM434 107c157 0 307 144 307 307c0 122 -83 219 -213 219c-161 0 -308 -151 -308 -311c0 -123 88 -215 214 -215zM453 806
c-39 0 -65 26 -65 63c0 51 43 92 92 92c39 0 65 -27 65 -64c0 -50 -45 -91 -92 -91zM663 806c-39 0 -65 26 -65 63c0 51 43 92 92 92c39 0 65 -27 65 -64c0 -50 -45 -91 -92 -91z" />
    <glyph glyph-name="Oslash" unicode="&#xd8;" horiz-adv-x="833" 
d="M236 -51l-90 45l49 68c-67 55 -106 139 -106 237c0 263 218 454 457 454c50 0 94 -9 132 -24l46 64l91 -46l-50 -68c69 -57 109 -142 109 -242c0 -242 -222 -450 -460 -450c-49 0 -93 9 -134 24zM433 107c157 0 308 142 308 307c0 60 -21 114 -57 153l-326 -448
c24 -8 49 -12 75 -12zM224 368c-3 -16 -4 -31 -4 -46c0 -59 20 -112 56 -150l324 449c-23 8 -47 12 -73 12c-146 0 -279 -125 -303 -265z" />
    <glyph glyph-name="ograve" unicode="&#xf2;" horiz-adv-x="575" 
d="M581 236c-22 -137 -158 -249 -299 -249c-123 0 -210 86 -210 213c0 164 145 284 296 284c130 0 217 -88 217 -200c0 -17 -2 -36 -4 -48zM460 236c1 6 2 14 2 23c0 58 -46 107 -111 107c-80 0 -156 -73 -156 -152c0 -61 45 -109 110 -109c71 0 142 57 155 131zM439 544
l-207 120l77 106l204 -128z" />
    <glyph glyph-name="oacute" unicode="&#xf3;" horiz-adv-x="575" 
d="M581 236c-22 -137 -158 -249 -299 -249c-123 0 -210 86 -210 213c0 164 145 284 296 284c130 0 217 -88 217 -200c0 -17 -2 -36 -4 -48zM460 236c1 6 2 14 2 23c0 58 -46 107 -111 107c-80 0 -156 -73 -156 -152c0 -61 45 -109 110 -109c71 0 142 57 155 131zM567 664
l-251 -120l-38 98l248 128z" />
    <glyph glyph-name="ocircumflex" unicode="&#xf4;" horiz-adv-x="575" 
d="M581 236c-22 -137 -158 -249 -299 -249c-123 0 -210 86 -210 213c0 164 145 284 296 284c130 0 217 -88 217 -200c0 -17 -2 -36 -4 -48zM460 236c1 6 2 14 2 23c0 58 -46 107 -111 107c-80 0 -156 -73 -156 -152c0 -61 45 -109 110 -109c71 0 142 57 155 131zM574 608
l-81 -67l-93 97l-130 -97l-56 67l172 137h66z" />
    <glyph glyph-name="otilde" unicode="&#xf5;" horiz-adv-x="575" 
d="M581 236c-22 -137 -158 -249 -299 -249c-123 0 -210 86 -210 213c0 164 145 284 296 284c130 0 217 -88 217 -200c0 -17 -2 -36 -4 -48zM460 236c1 6 2 14 2 23c0 58 -46 107 -111 107c-80 0 -156 -73 -156 -152c0 -61 45 -109 110 -109c71 0 142 57 155 131zM542 682
l30 -88c-36 -33 -75 -53 -113 -53c-55 0 -92 41 -136 41c-25 0 -48 -13 -69 -30l-35 90c33 27 75 48 115 48c57 0 90 -41 134 -41c23 0 49 12 74 33z" />
    <glyph glyph-name="odieresis" unicode="&#xf6;" horiz-adv-x="575" 
d="M581 236c-22 -137 -158 -249 -299 -249c-123 0 -210 86 -210 213c0 164 145 284 296 284c130 0 217 -88 217 -200c0 -17 -2 -36 -4 -48zM460 236c1 6 2 14 2 23c0 58 -46 107 -111 107c-80 0 -156 -73 -156 -152c0 -61 45 -109 110 -109c71 0 142 57 155 131zM278 541
c-39 0 -65 26 -65 63c0 51 43 92 92 92c39 0 65 -27 65 -64c0 -50 -45 -91 -92 -91zM488 541c-39 0 -65 26 -65 63c0 51 43 92 92 92c39 0 65 -27 65 -64c0 -50 -45 -91 -92 -91z" />
    <glyph glyph-name="oslash" unicode="&#xf8;" horiz-adv-x="575" 
d="M179 -84l-71 29l48 80c-52 37 -84 97 -84 168c0 177 146 291 301 291c19 0 38 -2 57 -7l48 79l71 -30l-49 -80c52 -37 85 -96 85 -167c0 -153 -144 -292 -300 -292c-23 0 -41 3 -60 7zM460 236c1 7 2 15 2 22c0 29 -12 55 -30 75l-139 -228h12c73 0 143 60 155 131z
M197 236c-2 -8 -2 -15 -2 -23c0 -30 11 -56 30 -75l137 227c-3 1 -7 1 -11 1c-72 0 -141 -59 -154 -130z" />
    <glyph glyph-name="Scaron" unicode="&#x160;" horiz-adv-x="547" 
d="M30 118l97 85c33 -47 73 -96 155 -96c93 0 136 64 136 113c0 127 -280 71 -280 296c0 154 132 237 278 237c68 0 127 -18 189 -70l-86 -102c-36 37 -82 52 -127 52c-71 0 -120 -37 -120 -92c0 -131 281 -74 281 -293c0 -136 -108 -261 -294 -261c-85 0 -170 26 -229 131z
M618 943l-172 -137h-66l-122 137l81 67l93 -97l130 97z" />
    <glyph glyph-name="scaron" unicode="&#x161;" horiz-adv-x="443" 
d="M36 54l82 94c37 -38 88 -49 122 -49c48 0 64 22 64 40c0 66 -209 16 -209 178c0 102 84 167 197 167c44 0 118 -10 163 -60l-80 -88c-37 29 -75 36 -101 36c-47 0 -55 -24 -55 -35c0 -59 205 -31 205 -177c0 -93 -83 -173 -214 -173c-85 0 -137 34 -174 67zM521 678
l-172 -137h-66l-122 137l81 67l93 -97l130 97z" />
    <glyph glyph-name="Ugrave" unicode="&#xd9;" horiz-adv-x="782" 
d="M638 390l62 350h131l-73 -413c-40 -227 -184 -340 -370 -340c-159 0 -259 83 -259 249c0 28 3 58 9 91l73 413h131l-62 -350c-9 -49 -14 -94 -14 -130c0 -99 37 -153 143 -153c145 0 197 101 229 283zM588 809l-207 120l77 106l204 -128z" />
    <glyph glyph-name="Uacute" unicode="&#xda;" horiz-adv-x="782" 
d="M638 390l62 350h131l-73 -413c-40 -227 -184 -340 -370 -340c-159 0 -259 83 -259 249c0 28 3 58 9 91l73 413h131l-62 -350c-9 -49 -14 -94 -14 -130c0 -99 37 -153 143 -153c145 0 197 101 229 283zM726 929l-251 -120l-38 98l248 128z" />
    <glyph glyph-name="Ucircumflex" unicode="&#xdb;" horiz-adv-x="782" 
d="M638 390l62 350h131l-73 -413c-40 -227 -184 -340 -370 -340c-159 0 -259 83 -259 249c0 28 3 58 9 91l73 413h131l-62 -350c-9 -49 -14 -94 -14 -130c0 -99 37 -153 143 -153c145 0 197 101 229 283zM724 873l-81 -67l-93 97l-130 -97l-56 67l172 137h66z" />
    <glyph glyph-name="Udieresis" unicode="&#xdc;" horiz-adv-x="782" 
d="M638 390l62 350h131l-73 -413c-40 -227 -184 -340 -370 -340c-159 0 -259 83 -259 249c0 28 3 58 9 91l73 413h131l-62 -350c-9 -49 -14 -94 -14 -130c0 -99 37 -153 143 -153c145 0 197 101 229 283zM427 806c-39 0 -65 26 -65 63c0 51 43 92 92 92c39 0 65 -27 65 -64
c0 -50 -45 -91 -92 -91zM637 806c-39 0 -65 26 -65 63c0 51 43 92 92 92c39 0 65 -27 65 -64c0 -50 -45 -91 -92 -91z" />
    <glyph glyph-name="ugrave" unicode="&#xf9;" horiz-adv-x="576" 
d="M428 229l43 246h123l-49 -279c-26 -149 -126 -209 -260 -209c-117 0 -191 46 -191 155c0 18 2 35 5 54l49 279h123l-43 -246c-4 -20 -6 -38 -6 -53c0 -46 20 -71 84 -71c84 0 108 44 122 124zM435 544l-207 120l77 106l204 -128z" />
    <glyph glyph-name="uacute" unicode="&#xfa;" horiz-adv-x="576" 
d="M428 229l43 246h123l-49 -279c-26 -149 -126 -209 -260 -209c-117 0 -191 46 -191 155c0 18 2 35 5 54l49 279h123l-43 -246c-4 -20 -6 -38 -6 -53c0 -46 20 -71 84 -71c84 0 108 44 122 124zM582 664l-251 -120l-38 98l248 128z" />
    <glyph glyph-name="ucircumflex" unicode="&#xfb;" horiz-adv-x="576" 
d="M428 229l43 246h123l-49 -279c-26 -149 -126 -209 -260 -209c-117 0 -191 46 -191 155c0 18 2 35 5 54l49 279h123l-43 -246c-4 -20 -6 -38 -6 -53c0 -46 20 -71 84 -71c84 0 108 44 122 124zM575 608l-81 -67l-93 97l-130 -97l-56 67l172 137h66z" />
    <glyph glyph-name="udieresis" unicode="&#xfc;" horiz-adv-x="576" 
d="M428 229l43 246h123l-49 -279c-26 -149 -126 -209 -260 -209c-117 0 -191 46 -191 155c0 18 2 35 5 54l49 279h123l-43 -246c-4 -20 -6 -38 -6 -53c0 -46 20 -71 84 -71c84 0 108 44 122 124zM278 541c-39 0 -65 26 -65 63c0 51 43 92 92 92c39 0 65 -27 65 -64
c0 -50 -45 -91 -92 -91zM488 541c-39 0 -65 26 -65 63c0 51 43 92 92 92c39 0 65 -27 65 -64c0 -50 -45 -91 -92 -91z" />
    <glyph glyph-name="Yacute" unicode="&#xdd;" horiz-adv-x="677" 
d="M404 0h-131l57 328l-195 412h152l130 -289l233 289h152l-340 -411zM674 929l-251 -120l-38 98l248 128z" />
    <glyph glyph-name="Ydieresis" unicode="&#x178;" horiz-adv-x="677" 
d="M404 0h-131l57 328l-195 412h152l130 -289l233 289h152l-340 -411zM375 806c-39 0 -65 26 -65 63c0 51 43 92 92 92c39 0 65 -27 65 -64c0 -50 -45 -91 -92 -91zM585 806c-39 0 -65 26 -65 63c0 51 43 92 92 92c39 0 65 -27 65 -64c0 -50 -45 -91 -92 -91z" />
    <glyph glyph-name="yacute" unicode="&#xfd;" horiz-adv-x="514" 
d="M196 -253h-120l128 240l-111 488h136l61 -328l176 328h121zM555 664l-251 -120l-38 98l248 128z" />
    <glyph glyph-name="Ydieresis" unicode="&#xff;" horiz-adv-x="514" 
d="M196 -253h-120l128 240l-111 488h136l61 -328l176 328h121zM256 541c-39 0 -65 26 -65 63c0 51 43 92 92 92c39 0 65 -27 65 -64c0 -50 -45 -91 -92 -91zM466 541c-39 0 -65 26 -65 63c0 51 43 92 92 92c39 0 65 -27 65 -64c0 -50 -45 -91 -92 -91z" />
    <glyph glyph-name="Zcaron" unicode="&#x17d;" horiz-adv-x="668" 
d="M633 0h-593l22 126l508 488h-411l22 126h581l-22 -126l-507 -488h422zM679 943l-172 -137h-66l-122 137l81 67l93 -97l130 97z" />
    <glyph glyph-name="zcaron" unicode="&#x17e;" horiz-adv-x="481" 
d="M431 0h-381l20 116l262 241h-220l21 118h381l-19 -112l-263 -245h219zM539 678l-172 -137h-66l-122 137l81 67l93 -97l130 97z" />
    </font>
</defs>
</svg>
