<?xml version="1.0" standalone="no"?>
<!DOCTYPE svg PUBLIC "-//W3C//DTD SVG 1.1//EN" "http://www.w3.org/Graphics/SVG/1.1/DTD/svg11.dtd" >
<svg xmlns="http://www.w3.org/2000/svg" xmlns:xlink="http://www.w3.org/1999/xlink" version="1.1">
<metadata>
Created by FontForge 20190801 at Fri Jan  1 00:00:00 1904
 By root
Copyright 2013 (c) Rick Banks / Face37. All rights reserved.
</metadata>
<defs>
<font id="F37Ginger-Italic" horiz-adv-x="626" >
  <font-face 
    font-family="F37 Ginger"
    font-weight="400"
    font-style="italic"
    font-stretch="normal"
    units-per-em="1000"
    panose-1="2 0 5 3 3 0 0 2 0 4"
    ascent="800"
    descent="-200"
    x-height="475"
    cap-height="740"
    bbox="-306 -262 1453 1003"
    underline-thickness="50"
    underline-position="-100"
    slope="-10"
    stemh="91"
    stemv="96"
    unicode-range="U+0020-FB02"
  />
<missing-glyph horiz-adv-x="729" 
d="M729 0h-529l130 740h529zM650 102l94 535h-335l-94 -535h335z" />
    <glyph glyph-name=".notdef" horiz-adv-x="729" 
d="M729 0h-529l130 740h529zM650 102l94 535h-335l-94 -535h335z" />
    <glyph glyph-name="controlHT" unicode=" " horiz-adv-x="270" 
 />
    <glyph glyph-name="nbspace" unicode="&#xa0;" horiz-adv-x="270" 
 />
    <glyph glyph-name="A" unicode="A" horiz-adv-x="698" 
d="M698 0h-112l-35 173h-340l-97 -173h-110l421 740h112zM530 269l-70 347l-196 -347h266z" />
    <glyph glyph-name="B" unicode="B" horiz-adv-x="599" 
d="M383 0h-213l130 740h205c140 0 215 -59 215 -161c0 -101 -54 -160 -137 -189c73 -18 106 -78 106 -148c0 -168 -141 -242 -306 -242zM349 435h117c75 0 149 27 149 122c0 59 -44 87 -122 87h-107zM289 96h108c107 0 190 37 190 141c0 69 -54 102 -149 102h-106z" />
    <glyph glyph-name="C" unicode="C" horiz-adv-x="715" 
d="M737 164l55 -67c-82 -68 -180 -110 -286 -110c-188 0 -324 141 -324 327c0 238 218 438 459 438c109 0 199 -43 257 -116l-84 -64c-43 56 -110 87 -187 87c-177 0 -341 -159 -341 -330c0 -137 99 -249 236 -249c78 0 155 34 215 84z" />
    <glyph glyph-name="D" unicode="D" horiz-adv-x="718" 
d="M373 0h-203l130 740h204c202 0 338 -117 338 -309c0 -263 -211 -431 -469 -431zM289 96h95c191 0 355 99 355 323c0 161 -121 224 -271 224h-83z" />
    <glyph glyph-name="E" unicode="E" horiz-adv-x="570" 
d="M602 0h-432l130 740h432l-17 -97h-330l-36 -209h274l-17 -96h-274l-43 -242h330z" />
    <glyph glyph-name="F" unicode="F" horiz-adv-x="552" 
d="M272 0h-102l130 740h435l-17 -97h-333l-36 -209h276l-17 -96h-276z" />
    <glyph glyph-name="G" unicode="G" horiz-adv-x="823" 
d="M924 412l-11 -64c-36 -211 -197 -361 -405 -361c-194 0 -326 141 -326 325c0 241 220 441 460 441c111 0 205 -45 265 -120l-77 -71c-44 66 -124 97 -203 97c-180 0 -342 -155 -342 -336c0 -137 94 -243 240 -243c127 0 246 75 282 236h-263l17 96h363z" />
    <glyph glyph-name="H" unicode="H" horiz-adv-x="774" 
d="M774 0h-102l60 342h-400l-60 -342h-102l130 740h102l-53 -302h400l53 302h102z" />
    <glyph glyph-name="I" unicode="I" horiz-adv-x="272" 
d="M272 0h-102l130 740h102z" />
    <glyph glyph-name="J" unicode="J" horiz-adv-x="267" 
d="M-160 -218h-6l17 94h7c110 0 132 69 151 177l121 687h103l-120 -680c-13 -72 -23 -128 -59 -178c-49 -69 -124 -100 -214 -100z" />
    <glyph glyph-name="K" unicode="K" horiz-adv-x="627" 
d="M709 0h-132l-248 322l-57 -322h-102l130 740h102l-58 -332l343 332h126l-391 -370z" />
    <glyph glyph-name="L" unicode="L" horiz-adv-x="558" 
d="M620 0h-450l130 740h102l-113 -644h348z" />
    <glyph glyph-name="M" unicode="M" horiz-adv-x="902" 
d="M902 0h-103l108 610l-277 -323h-90l-160 323l-108 -610h-102l130 740h139l165 -343l289 343h139z" />
    <glyph glyph-name="N" unicode="N" horiz-adv-x="825" 
d="M825 0h-106l-340 606l-107 -606h-102l130 740h132l321 -569l100 569h102z" />
    <glyph glyph-name="O" unicode="O" horiz-adv-x="838" 
d="M967 426c0 -240 -221 -439 -459 -439c-190 0 -326 140 -326 326c0 236 215 440 460 440c193 0 325 -142 325 -327zM524 80c178 0 340 152 340 332c0 137 -95 247 -239 247c-181 0 -340 -158 -340 -333c0 -138 98 -246 239 -246z" />
    <glyph glyph-name="P" unicode="P" horiz-adv-x="606" 
d="M272 0h-102l130 740h225c140 0 227 -68 227 -195c0 -172 -117 -283 -311 -283h-123zM335 359h121c112 0 192 52 192 168c0 74 -47 116 -142 116h-121z" />
    <glyph glyph-name="Q" unicode="Q" horiz-adv-x="831" 
d="M914 0c-259 -1 -334 -1 -407 -1c-187 0 -323 133 -323 318c0 235 214 436 460 436c192 0 325 -138 325 -324c0 -133 -63 -252 -201 -333h163zM866 416c0 138 -96 243 -238 243c-183 0 -341 -154 -341 -330c0 -138 100 -236 241 -236c179 0 338 139 338 323z" />
    <glyph glyph-name="R" unicode="R" horiz-adv-x="644" 
d="M704 0h-117l-131 322h-127l-57 -322h-102l130 740h272c129 0 213 -52 213 -170c0 -136 -78 -222 -216 -242zM346 419h169c97 0 166 29 166 133c0 63 -43 91 -127 91h-169z" />
    <glyph glyph-name="S" unicode="S" horiz-adv-x="538" 
d="M80 112l77 71c32 -51 76 -103 157 -103c94 0 162 68 162 138c0 136 -286 99 -286 296c0 134 106 239 270 239c68 0 127 -19 180 -70l-71 -78c-35 36 -78 54 -130 54c-90 0 -143 -51 -143 -118c0 -139 285 -95 285 -297c0 -149 -122 -257 -280 -257
c-96 0 -178 43 -221 125z" />
    <glyph glyph-name="T" unicode="T" horiz-adv-x="614" 
d="M492 0h-103l113 643h-236l17 97h574l-17 -97h-235z" />
    <glyph glyph-name="U" unicode="U" horiz-adv-x="787" 
d="M797 363l66 377h103l-73 -413c-40 -225 -189 -340 -373 -340c-183 0 -293 115 -253 340l73 413h102l-66 -377c-32 -182 15 -283 160 -283s229 101 261 283z" />
    <glyph glyph-name="V" unicode="V" horiz-adv-x="714" 
d="M549 0h-105l-164 740h113l126 -613l343 613h112z" />
    <glyph glyph-name="W" unicode="W" horiz-adv-x="1023" 
d="M922 0h-103l-70 560l-267 -560h-102l-100 740h112l64 -594l278 594h94l67 -594l276 594h112z" />
    <glyph glyph-name="glyph26" horiz-adv-x="995" 
d="M840 0h-104l-54 258l-144 -258h-104l-154 740h112l116 -613l145 267l-71 346h112l39 -201l109 201h111l-194 -345l51 -268l334 613h111z" />
    <glyph glyph-name="X" unicode="X" horiz-adv-x="658" 
d="M658 0h-121l-132 267l-224 -267h-121l301 358l-186 382h121l141 -291l245 291h121l-321 -382z" />
    <glyph glyph-name="Y" unicode="Y" horiz-adv-x="644" 
d="M509 0h-102l58 333l-191 407h118l142 -306l253 306h116l-336 -406z" />
    <glyph glyph-name="Z" unicode="Z" horiz-adv-x="658" 
d="M655 0h-575l17 96l541 547h-434l17 97h563l-17 -97l-540 -547h445z" />
    <glyph glyph-name="Eth" unicode="&#xd0;" horiz-adv-x="718" 
d="M354 0h-203l58 329h-77l17 97h77l55 314h204c202 0 338 -117 338 -309c0 -263 -211 -431 -469 -431zM270 96h95c191 0 355 99 355 323c0 161 -121 224 -271 224h-83l-38 -217h185l-17 -97h-185z" />
    <glyph glyph-name="Thorn" unicode="&#xde;" horiz-adv-x="601" 
d="M418 130h-123l-23 -130h-102l130 740h102l-23 -132h90c23 0 46 -1 68 -3c126 -12 193 -76 193 -188c0 -177 -117 -287 -312 -287zM312 227h121c110 0 192 51 192 168c0 73 -48 116 -142 116h-121z" />
    <glyph glyph-name="AE" unicode="&#xc6;" horiz-adv-x="998" 
d="M942 0h-432l32 180h-287l-144 -180h-117l597 740h481l-17 -97h-330l-36 -209h274l-17 -96h-274l-43 -242h330zM559 276l63 361l-290 -361h227z" />
    <glyph glyph-name="OE" unicode="&#x152;" horiz-adv-x="1213" 
d="M1276 0h-432l20 111c-83 -77 -192 -124 -306 -124c-190 0 -326 140 -326 326c0 236 216 440 459 440c114 0 207 -47 264 -125l20 112h432l-18 -97h-330l-36 -209h274l-17 -96h-274l-43 -242h330zM914 412c0 137 -96 247 -239 247c-181 0 -340 -158 -340 -333
c0 -138 98 -246 239 -246c178 0 340 152 340 332z" />
    <glyph glyph-name="a" unicode="a" 
d="M623 0h-96l9 56c-48 -47 -107 -69 -171 -69c-125 0 -211 92 -211 211c0 159 144 286 299 286c64 0 114 -23 147 -70l10 61h96zM569 258c0 75 -52 135 -132 135c-99 0 -187 -83 -187 -182c0 -76 52 -134 131 -134c102 0 188 85 188 181z" />
    <glyph glyph-name="b" unicode="b" 
d="M256 0h-96l130 740h96l-57 -326c48 47 107 70 171 70c124 0 211 -91 211 -212c0 -156 -141 -285 -298 -285c-64 0 -115 22 -147 69zM298 211c0 -74 48 -134 130 -134c100 0 187 82 187 182c0 75 -52 134 -131 134c-99 0 -186 -83 -186 -182z" />
    <glyph glyph-name="c" unicode="c" horiz-adv-x="528" 
d="M528 152l72 -47c-57 -71 -145 -118 -235 -118c-122 0 -209 94 -209 213c0 151 143 284 297 284c89 0 159 -47 191 -117l-89 -46c-19 43 -63 72 -118 72c-97 0 -185 -87 -185 -182c0 -73 53 -134 131 -134c57 0 110 30 145 75z" />
    <glyph glyph-name="d" unicode="d" 
d="M623 0h-96l9 56c-48 -47 -107 -69 -171 -69c-125 0 -211 92 -211 211c0 159 144 286 299 286c64 0 114 -23 147 -70l57 326h96zM569 258c0 75 -52 135 -132 135c-99 0 -187 -83 -187 -182c0 -76 52 -134 131 -134c102 0 188 85 188 181z" />
    <glyph glyph-name="e" unicode="e" horiz-adv-x="563" 
d="M636 203h-389c0 -73 51 -129 132 -129c52 0 107 23 144 65l59 -52c-55 -62 -137 -100 -219 -100c-123 0 -209 91 -209 211c0 149 133 286 291 286c125 0 203 -96 203 -211c0 -28 -5 -46 -12 -70zM264 279h290c0 66 -49 117 -124 117c-74 0 -137 -50 -166 -117z" />
    <glyph glyph-name="f" unicode="f" horiz-adv-x="332" 
d="M269 0h-97l68 384h-70l16 91h70l19 110c16 91 70 155 174 155c26 0 55 -4 77 -11l-15 -86c-10 3 -36 7 -56 7c-51 0 -75 -24 -88 -97l-14 -78h118l-16 -91h-118z" />
    <glyph glyph-name="g" unicode="g" 
d="M506 22l6 34c-48 -47 -107 -69 -171 -69c-126 0 -211 92 -211 211c0 159 144 286 298 286c64 0 114 -23 147 -70l11 61h96l-77 -436c-42 -238 -196 -292 -303 -292c-96 0 -166 44 -198 116l96 38c21 -40 56 -64 116 -64c82 0 165 45 190 185zM544 258
c0 75 -52 135 -132 135c-99 0 -186 -83 -186 -182c0 -76 52 -134 131 -134c101 0 187 85 187 181z" />
    <glyph glyph-name="glyph41" horiz-adv-x="504" 
d="M310 29c109 0 169 -57 169 -126c0 -86 -88 -161 -215 -161c-104 0 -160 55 -160 124c0 39 17 76 52 108c-18 14 -28 38 -28 64c0 41 24 76 58 96c-25 32 -36 79 -36 122c0 127 111 228 240 228c21 0 39 -3 57 -9h151l-13 -76h-48c14 -22 23 -55 23 -90
c0 -128 -115 -230 -239 -230c-34 0 -51 8 -68 8c-30 0 -44 -20 -44 -38c0 -15 12 -28 30 -28c22 5 46 8 71 8zM334 166c76 0 131 65 131 136c0 55 -34 96 -91 96c-73 0 -131 -60 -131 -135c0 -56 34 -97 91 -97zM387 -107c0 31 -28 57 -87 57c-73 0 -105 -36 -105 -74
c0 -29 24 -54 83 -54c71 0 109 33 109 71z" />
    <glyph glyph-name="glyph42" horiz-adv-x="537" 
d="M260 -258c-105 0 -182 72 -182 165c0 76 52 142 130 179c-49 32 -76 89 -76 149c0 133 125 249 259 249c22 0 43 -3 61 -9h163l-14 -76h-53c18 -28 28 -66 28 -104c0 -87 -56 -165 -142 -210c49 -29 76 -78 76 -131c0 -114 -122 -212 -250 -212zM329 130
c77 0 150 68 150 151c0 64 -43 112 -103 112c-78 0 -150 -72 -150 -153c0 -61 41 -110 103 -110zM313 39c-73 0 -138 -48 -138 -118c0 -52 39 -89 101 -89c79 0 138 54 138 119c0 51 -40 88 -101 88z" />
    <glyph glyph-name="h" unicode="h" horiz-adv-x="580" 
d="M590 0h-97l44 249c17 95 -12 144 -91 144c-82 0 -130 -53 -147 -151l-43 -242h-96l130 740h96l-55 -316c38 36 81 60 148 60c113 0 184 -66 158 -215z" />
    <glyph glyph-name="i" unicode="i" horiz-adv-x="257" 
d="M257 0h-97l84 475h97zM309 569c-31 0 -52 23 -52 53c0 39 35 71 74 71c31 0 51 -23 51 -52c0 -40 -33 -72 -73 -72z" />
    <glyph glyph-name="dotlessi" unicode="&#x131;" horiz-adv-x="257" 
d="M257 0h-97l84 475h97z" />
    <glyph glyph-name="j" unicode="j" horiz-adv-x="257" 
d="M167 -253h-97l128 728h97zM264 569c-31 0 -52 23 -52 53c0 39 35 71 74 71c31 0 51 -23 51 -52c0 -40 -34 -72 -73 -72z" />
    <glyph glyph-name="k" unicode="k" horiz-adv-x="512" 
d="M584 0h-126l-162 227l-40 -227h-96l130 740h96l-81 -461l218 196h127l-248 -218z" />
    <glyph glyph-name="l" unicode="l" horiz-adv-x="270" 
d="M370 78l-15 -84c-17 -4 -34 -7 -54 -7c-78 0 -118 47 -103 134l109 619h96l-103 -589c-9 -51 -1 -74 46 -74c6 0 15 0 24 1z" />
    <glyph glyph-name="m" unicode="m" horiz-adv-x="863" 
d="M873 0h-96l44 249c17 94 1 144 -73 144c-75 0 -122 -50 -140 -151l-43 -242h-97l44 249c17 95 1 144 -73 144c-75 0 -122 -51 -140 -151l-43 -242h-96l84 475h96l-9 -51c43 40 83 60 140 60c65 0 119 -26 137 -88c58 70 118 88 173 88c106 0 165 -66 139 -215z" />
    <glyph glyph-name="n" unicode="n" horiz-adv-x="580" 
d="M590 0h-97l44 249c17 95 -12 144 -91 144c-82 0 -130 -53 -147 -151l-43 -242h-96l84 475h96l-9 -51c38 36 81 60 148 60c113 0 184 -66 158 -215z" />
    <glyph glyph-name="o" unicode="o" horiz-adv-x="580" 
d="M664 270c0 -152 -147 -283 -299 -283c-122 0 -209 94 -209 213c0 151 143 284 297 284c123 0 211 -95 211 -214zM567 259c0 74 -53 134 -129 134c-99 0 -186 -88 -186 -182c0 -73 53 -134 130 -134c98 0 185 87 185 182z" />
    <glyph glyph-name="p" unicode="p" 
d="M166 -253h-96l128 728h96l-10 -61c48 47 107 70 171 70c124 0 211 -91 211 -212c0 -156 -142 -285 -299 -285c-64 0 -115 22 -147 69zM252 211c0 -74 49 -134 130 -134c101 0 188 82 188 182c0 75 -52 134 -131 134c-99 0 -187 -83 -187 -182z" />
    <glyph glyph-name="q" unicode="q" 
d="M578 -253h-96l54 309c-48 -47 -107 -69 -171 -69c-125 0 -211 92 -211 211c0 159 144 286 299 286c64 0 114 -23 147 -70l10 61h96zM569 258c0 75 -52 135 -132 135c-99 0 -187 -83 -187 -182c0 -76 52 -134 131 -134c102 0 188 85 188 181z" />
    <glyph glyph-name="r" unicode="r" horiz-adv-x="378" 
d="M256 0h-96l84 475h96l-10 -57c55 55 104 66 196 66l-16 -92c-157 0 -197 -64 -211 -146z" />
    <glyph glyph-name="s" unicode="s" horiz-adv-x="433" 
d="M84 49l65 74c41 -39 90 -49 124 -49c57 0 90 26 90 61c0 80 -214 38 -214 178c0 97 81 171 192 171c40 0 105 -10 151 -54l-63 -71c-37 31 -78 37 -103 37c-53 0 -78 -28 -78 -56c0 -77 211 -43 211 -184c0 -102 -84 -169 -204 -169c-71 0 -129 25 -171 62z" />
    <glyph glyph-name="t" unicode="t" horiz-adv-x="350" 
d="M405 84l-15 -86c-11 -4 -42 -11 -77 -11c-117 0 -124 77 -110 159l42 238h-75l16 91h75l28 161h97l-28 -161h129l-16 -91h-129l-40 -227c-10 -54 -2 -80 49 -80c17 0 43 3 54 7z" />
    <glyph glyph-name="u" unicode="u" horiz-adv-x="575" 
d="M545 220l45 255h96l-50 -282c-26 -149 -119 -206 -252 -206s-206 57 -180 206l50 282h97l-45 -255c-16 -89 -4 -143 94 -143c99 0 129 54 145 143z" />
    <glyph glyph-name="v" unicode="v" horiz-adv-x="514" 
d="M403 0h-103l-112 475h104l79 -355l207 355h104z" />
    <glyph glyph-name="w" unicode="w" horiz-adv-x="818" 
d="M723 0h-100l-59 342l-180 -342h-102l-94 475h106l61 -350l187 350h89l63 -350l185 350h107z" />
    <glyph glyph-name="x" unicode="x" horiz-adv-x="466" 
d="M466 0h-107l-86 172l-146 -172h-107l213 250l-114 225h108l74 -147l126 147h108l-194 -225z" />
    <glyph glyph-name="y" unicode="y" horiz-adv-x="485" 
d="M239 -253h-95l130 244l-109 484h105l73 -357l191 357h96z" />
    <glyph glyph-name="z" unicode="z" horiz-adv-x="476" 
d="M476 0h-376l16 88l305 296h-253l16 91h376l-16 -88l-304 -297h252z" />
    <glyph glyph-name="eth" unicode="&#xf0;" horiz-adv-x="580" 
d="M375 536l-39 45l67 54c-39 23 -82 39 -123 50l68 56c46 -10 89 -26 127 -47l82 65l38 -47l-68 -53c93 -76 145 -202 145 -329c0 -269 -193 -343 -307 -343c-122 0 -209 95 -209 213c0 150 143 284 293 284c42 0 81 -11 118 -45c-21 68 -59 119 -112 161zM567 259
c0 75 -54 134 -130 134c-98 0 -185 -86 -185 -181c0 -74 53 -135 130 -135c99 0 185 88 185 182z" />
    <glyph glyph-name="thorn" unicode="&#xfe;" 
d="M166 -253h-96l175 993h96l-57 -326c48 47 107 70 171 70c125 0 211 -91 211 -211c0 -158 -143 -286 -299 -286c-63 0 -115 22 -147 69zM252 210c0 -74 50 -133 131 -133c101 0 187 82 187 181c0 77 -52 135 -131 135c-100 0 -187 -82 -187 -183z" />
    <glyph glyph-name="ae" unicode="&#xe6;" horiz-adv-x="980" 
d="M1055 203h-389c0 -73 50 -129 131 -129c52 0 108 23 145 65l59 -52c-55 -62 -137 -100 -218 -100c-63 0 -117 22 -153 60l-9 -47h-93l10 56c-48 -47 -108 -69 -171 -69c-125 0 -211 92 -211 212c0 158 144 285 299 285c64 0 114 -23 146 -70l11 61h93l-9 -50
c48 36 107 59 170 59c123 0 201 -96 201 -211c0 -28 -5 -46 -12 -70zM570 259c0 74 -50 134 -131 134c-99 0 -187 -83 -187 -183c0 -76 52 -133 131 -133c101 0 187 85 187 182zM683 279h290c0 66 -49 117 -124 117c-74 0 -138 -50 -166 -117z" />
    <glyph glyph-name="oe" unicode="&#x153;" horiz-adv-x="970" 
d="M1045 202h-386c3 -74 53 -125 130 -125c54 0 104 25 143 69l68 -49c-61 -70 -141 -110 -227 -110c-87 0 -153 41 -187 104c-56 -63 -137 -104 -221 -104c-122 0 -209 94 -209 213c0 151 143 284 296 284c84 0 151 -42 184 -105c56 64 133 105 218 105
c126 0 201 -97 201 -213c0 -49 -7 -59 -10 -69zM567 258c0 74 -52 135 -129 135c-98 0 -186 -87 -186 -182c0 -73 53 -134 130 -134c98 0 185 87 185 181zM676 280h286c-3 64 -43 113 -120 113c-74 0 -133 -47 -166 -113z" />
    <glyph glyph-name="fi" unicode="&#xfb01;" horiz-adv-x="574" 
d="M578 0h-96l68 384h-213l-68 -384h-97l68 384h-70l16 91h70l19 110c16 91 70 155 174 155c26 0 55 -4 77 -11l-15 -86c-10 3 -36 7 -56 7c-45 0 -74 -20 -85 -80l-17 -95h309zM631 569c-31 0 -52 23 -52 53c0 39 34 71 73 71c31 0 53 -23 53 -53c0 -39 -35 -71 -74 -71z
" />
    <glyph glyph-name="fl" unicode="&#xfb02;" horiz-adv-x="587" 
d="M675 78l-15 -84c-16 -4 -34 -7 -54 -7c-78 0 -117 47 -102 134l46 263h-213l-68 -384h-97l68 384h-70l16 91h70l19 110c16 91 70 155 174 155c26 0 55 -4 77 -11l-15 -86c-10 3 -36 7 -56 7c-45 0 -74 -20 -85 -80l-17 -95h213l47 265h96l-104 -589c-9 -51 -1 -74 46 -74
c6 0 15 0 24 1z" />
    <glyph glyph-name="germandbls" unicode="&#xdf;" horiz-adv-x="590" 
d="M383 0h-61l16 89h70c117 0 161 77 161 149c0 60 -37 107 -127 107h-59l15 87h66c64 0 111 54 111 126c0 51 -28 92 -93 92c-93 0 -125 -77 -141 -169l-85 -481h-96l86 485c28 158 105 255 251 255c115 0 178 -65 178 -158c0 -96 -57 -161 -112 -188
c67 -22 102 -81 102 -152c0 -147 -124 -242 -282 -242z" />
    <glyph glyph-name="ampersand" unicode="&#x26;" horiz-adv-x="647" 
d="M686 0h-297c-134 0 -211 75 -211 182c0 90 49 175 155 211c-51 26 -74 80 -74 135c0 119 109 225 246 225c52 0 95 -16 126 -48l-64 -74c-21 20 -49 31 -80 31c-69 0 -127 -53 -127 -124c0 -55 37 -99 104 -99h113l21 119h102l-21 -119h84l-17 -96h-84l-43 -247h84z
M516 95l44 248h-107c-78 0 -170 -30 -170 -141c0 -72 56 -107 132 -107h101z" />
    <glyph glyph-name="glyph71" horiz-adv-x="650" 
d="M754 343h-84l-18 -104c-28 -159 -133 -252 -277 -252c-130 0 -199 83 -199 189c0 95 47 178 155 217c-45 24 -73 74 -73 135c0 134 123 225 245 225c54 0 99 -18 131 -52l-66 -75c-19 23 -47 36 -81 36c-71 0 -128 -54 -128 -125c0 -56 38 -98 105 -98h121l21 119h102
l-21 -119h84zM548 231l20 112h-118c-111 0 -170 -64 -170 -148c0 -63 40 -115 116 -115c68 0 132 39 152 151z" />
    <glyph glyph-name="glyph72" horiz-adv-x="623" 
d="M606 324l91 51c11 -26 17 -62 17 -94c0 -159 -148 -294 -308 -294c-128 0 -218 97 -218 220c0 102 61 191 148 245c-14 23 -21 55 -21 86c0 117 110 215 226 215c67 0 119 -34 144 -85l-87 -52c-13 29 -39 45 -72 45c-62 0 -111 -53 -111 -112c0 -44 27 -80 76 -80
c41 0 77 24 99 61l71 -51c-41 -61 -113 -102 -187 -102c-26 0 -51 5 -71 15c-66 -33 -115 -99 -115 -173c0 -77 53 -140 134 -140c101 0 193 89 193 189c0 19 -3 41 -9 56z" />
    <glyph glyph-name="numbersign" unicode="#" horiz-adv-x="612" 
d="M503 66h-81l57 179h-143l-58 -179h-81l57 179h-108l14 80h120l43 136h-114l14 81h125l56 175h81l-55 -175h143l56 175h81l-55 -175h95l-14 -80h-107l-43 -137h100l-14 -80h-111zM505 325l43 137h-143l-43 -137h143z" />
    <glyph glyph-name="zero" unicode="0" horiz-adv-x="586" 
d="M712 486l-38 -216c-26 -148 -117 -283 -288 -283c-165 0 -216 126 -188 283l38 216c25 141 126 267 285 267c152 0 217 -117 191 -267zM574 277l34 195c17 95 0 187 -104 187c-101 0 -153 -85 -171 -187l-34 -195c-18 -102 -11 -197 103 -197c109 0 152 86 172 197z" />
    <glyph glyph-name="one" unicode="1" horiz-adv-x="375" 
d="M398 0h-102l113 643h-123l17 97h225z" />
    <glyph glyph-name="two" unicode="2" horiz-adv-x="560" 
d="M524 0h-452l17 97l254 215c130 110 182 167 182 248c0 62 -38 106 -105 106c-71 0 -124 -46 -151 -128h-99c39 137 136 215 267 215c115 0 194 -65 194 -174c0 -115 -76 -201 -181 -291l-226 -192h317z" />
    <glyph glyph-name="three" unicode="3" horiz-adv-x="597" 
d="M409 80c73 0 157 46 157 160c0 74 -51 110 -137 110l16 94h35c76 0 132 58 132 128c0 52 -34 90 -91 90c-73 0 -118 -59 -131 -125h-101c24 119 115 216 250 216c113 0 176 -72 176 -166c0 -82 -45 -153 -125 -190c60 -29 84 -83 84 -143c0 -155 -129 -267 -280 -267
c-137 0 -211 97 -193 227h102c-10 -84 31 -134 106 -134z" />
    <glyph glyph-name="four" unicode="4" horiz-adv-x="596" 
d="M532 0h-100l22 126h-340l16 89l429 525h103l-92 -522h76l-16 -92h-76zM470 218l64 362h-1l-291 -362h228z" />
    <glyph glyph-name="five" unicode="5" horiz-adv-x="591" 
d="M692 646h-260l-63 -177c37 18 76 25 111 25c124 0 200 -91 200 -209c0 -168 -142 -298 -302 -298c-135 0 -220 98 -213 228h102c-1 -64 32 -135 125 -135c106 0 186 86 186 193c0 76 -47 131 -127 131c-43 0 -96 -15 -137 -53l-65 54l117 335h347z" />
    <glyph glyph-name="six" unicode="6" horiz-adv-x="582" 
d="M245 391l246 349h110l-198 -284c26 10 47 13 68 13c111 0 191 -93 191 -206c0 -149 -140 -276 -291 -276c-121 0 -209 90 -209 205c0 59 23 114 83 199zM441 380c-93 0 -180 -80 -180 -172c0 -72 52 -129 127 -129c92 0 176 80 176 173c0 71 -50 128 -123 128z" />
    <glyph glyph-name="seven" unicode="7" horiz-adv-x="530" 
d="M254 0h-110l409 643h-348l17 97h455l-17 -97z" />
    <glyph glyph-name="eight" unicode="8" horiz-adv-x="628" 
d="M640 452c46 -39 74 -103 74 -172c0 -158 -148 -293 -308 -293c-128 0 -218 97 -218 220c0 102 61 191 149 246c-15 23 -23 55 -23 85c0 116 110 215 227 215c95 0 160 -71 160 -162c0 -53 -23 -100 -61 -139zM615 268c0 77 -54 140 -135 140c-101 0 -192 -89 -192 -189
c0 -77 53 -140 134 -140c101 0 193 89 193 189zM561 492c25 23 40 54 40 87c0 47 -29 82 -76 82c-61 0 -112 -53 -112 -114c0 -21 6 -41 17 -55c22 6 43 9 64 9c24 0 46 -4 67 -9z" />
    <glyph glyph-name="nine" unicode="9" horiz-adv-x="582" 
d="M433 0h-110l198 283c-26 -10 -47 -12 -64 -12c-115 0 -195 93 -195 205c0 149 139 277 291 277c121 0 209 -90 209 -206c0 -57 -19 -106 -83 -198zM663 531c0 72 -52 130 -127 130c-92 0 -176 -81 -176 -173c0 -71 49 -128 123 -128c93 0 180 80 180 171z" />
    <glyph glyph-name="glyph84" horiz-adv-x="580" 
d="M664 270c0 -152 -147 -283 -299 -283c-122 0 -209 94 -209 213c0 151 143 284 297 284c123 0 211 -95 211 -214zM567 259c0 74 -53 134 -129 134c-99 0 -186 -88 -186 -182c0 -73 53 -134 130 -134c98 0 185 87 185 182z" />
    <glyph glyph-name="glyph85" horiz-adv-x="305" 
d="M303 0h-97l68 386h-108l16 89h205z" />
    <glyph glyph-name="glyph86" horiz-adv-x="414" 
d="M422 0h-342l15 85c234 116 290 202 290 255c0 30 -18 58 -61 58s-87 -25 -101 -86h-89c21 101 95 172 206 172c91 0 139 -51 139 -125c0 -88 -58 -192 -273 -278l231 3z" />
    <glyph glyph-name="glyph87" horiz-adv-x="509" 
d="M315 130h-29l15 89h31c64 0 106 55 106 107c0 41 -28 72 -74 72c-62 0 -101 -51 -110 -101h-95c18 101 103 187 218 187c96 0 158 -63 158 -146c0 -67 -38 -129 -107 -162c49 -24 73 -73 73 -128c0 -135 -122 -226 -247 -226c-121 0 -185 88 -170 196h95
c-7 -62 25 -109 94 -109c77 0 131 55 131 125c0 51 -32 96 -89 96z" />
    <glyph glyph-name="glyph88" horiz-adv-x="522" 
d="M410 -168h-94l30 168h-276l16 93l344 384h94l-68 -388h77l-16 -89h-77zM360 89l43 245h-1l-213 -245h171z" />
    <glyph glyph-name="glyph89" horiz-adv-x="517" 
d="M515 386h-207l-47 -124c27 14 59 21 92 21c116 0 173 -89 173 -186c0 -142 -122 -275 -273 -275c-124 0 -207 95 -191 217h88c-7 -74 33 -128 112 -128c95 0 167 74 167 166c0 67 -42 116 -111 116c-41 0 -87 -16 -119 -47l-61 42l99 287h293z" />
    <glyph glyph-name="glyph90" horiz-adv-x="529" 
d="M543 662l-185 -247c25 10 43 13 63 13c104 0 180 -86 180 -191c0 -134 -131 -250 -267 -250c-109 0 -188 85 -188 191c0 86 8 101 293 484h104zM505 227c0 63 -44 113 -108 113c-82 0 -155 -73 -155 -151c0 -62 44 -112 109 -112c82 0 154 72 154 150z" />
    <glyph glyph-name="glyph91" horiz-adv-x="418" 
d="M162 -168h-100l336 554h-294l15 89h393l-15 -88z" />
    <glyph glyph-name="glyph92" horiz-adv-x="545" 
d="M555 404c41 -35 67 -93 67 -155c0 -142 -135 -262 -277 -262c-114 0 -195 87 -195 197c0 90 54 170 132 220c-13 21 -19 49 -19 76c0 105 99 193 203 193c85 0 144 -63 144 -145c0 -46 -20 -88 -55 -124zM527 238c0 66 -47 121 -116 121c-86 0 -166 -79 -166 -162
c0 -66 47 -120 116 -120c88 0 166 77 166 161zM477 442c24 17 39 44 39 73c0 39 -26 69 -66 69c-49 0 -93 -42 -93 -93c0 -19 6 -37 16 -49c17 4 34 7 52 7s36 -3 52 -7z" />
    <glyph glyph-name="glyph93" horiz-adv-x="529" 
d="M328 -191h-104l186 247c-25 -11 -44 -14 -64 -14c-104 0 -180 86 -180 190c0 135 132 252 266 252c110 0 189 -85 189 -191c0 -89 -14 -110 -293 -484zM416 394c-82 0 -155 -72 -155 -151c0 -62 45 -112 109 -112c82 0 155 72 155 151c0 61 -44 112 -109 112z" />
    <glyph glyph-name="ordfeminine" unicode="&#xaa;" horiz-adv-x="451" 
d="M620 407h-76l7 40c-33 -36 -76 -49 -117 -49c-87 0 -140 62 -140 143c0 106 89 198 200 198c42 0 81 -14 99 -50l8 43h76zM451 465c66 0 124 45 124 120c0 54 -37 86 -90 86c-75 0 -115 -59 -115 -123c0 -49 28 -83 81 -83z" />
    <glyph glyph-name="ordmasculine" unicode="&#xba;" horiz-adv-x="448" 
d="M650 595c0 -106 -99 -196 -207 -196c-85 0 -147 62 -147 145c0 104 97 197 207 197c86 0 147 -63 147 -146zM456 471c65 0 117 53 117 115c0 46 -31 83 -83 83c-65 0 -117 -54 -117 -115c0 -47 33 -83 83 -83z" />
    <glyph glyph-name="onesuperior" unicode="&#xb9;" horiz-adv-x="248" 
d="M408 296h-78l66 374h-80l12 70h158z" />
    <glyph glyph-name="twosuperior" unicode="&#xb2;" horiz-adv-x="387" 
d="M486 296h-298l11 64l184 148c37 30 82 72 82 117c0 32 -23 53 -60 53c-53 0 -79 -42 -88 -86h-77c17 97 90 155 180 155c78 0 126 -47 126 -113c0 -61 -41 -117 -104 -166l-132 -102h188z" />
    <glyph glyph-name="threesuperior" unicode="&#xb3;" horiz-adv-x="413" 
d="M401 509l11 62h15c40 0 86 19 86 73c0 34 -26 46 -50 46c-40 0 -65 -30 -72 -67h-74l1 8c11 75 85 124 160 124c63 0 114 -38 114 -101c0 -47 -25 -92 -76 -115c36 -16 52 -49 52 -86c0 -95 -85 -163 -180 -163c-84 0 -149 55 -134 154h73c-8 -56 28 -85 73 -85
c48 0 89 29 89 91c0 43 -32 59 -88 59z" />
    <glyph glyph-name="onequarter" unicode="&#xbc;" horiz-adv-x="775" 
d="M782 0h-75l12 69h-207l11 63l253 302h83l-53 -297h53l-12 -68h-53zM731 137l34 192l-158 -192h124zM370 296h-78l66 374h-80l12 70h158zM322 0h-82l536 740h82z" />
    <glyph glyph-name="onehalf" unicode="&#xbd;" horiz-adv-x="834" 
d="M370 296h-78l66 374h-80l12 70h158zM322 0h-82l536 740h82zM892 0h-298l11 64l185 148c39 31 81 74 81 117c0 32 -23 53 -60 53c-53 0 -79 -42 -88 -86h-77c17 97 90 155 180 155c78 0 126 -47 126 -114c0 -63 -46 -120 -104 -165l-132 -102h188z" />
    <glyph glyph-name="threequarters" unicode="&#xbe;" horiz-adv-x="891" 
d="M899 0h-74l12 69h-208l11 63l253 302h83l-53 -297h53l-12 -68h-53zM849 137l34 192l-158 -192h124zM440 0h-82l537 740h82zM391 509l11 62h15c40 0 86 19 86 73c0 34 -26 46 -50 46c-40 0 -65 -30 -72 -67h-74l1 8c11 75 85 124 160 124c63 0 114 -38 114 -101
c0 -47 -25 -92 -76 -115c36 -16 52 -49 52 -86c0 -95 -85 -163 -180 -163c-84 0 -149 55 -134 154h73c-8 -56 28 -85 73 -85c48 0 89 29 89 91c0 43 -32 59 -88 59z" />
    <glyph glyph-name="percent" unicode="%" horiz-adv-x="911" 
d="M1043 199c0 -115 -111 -213 -225 -213c-92 0 -159 71 -159 161c0 115 111 213 225 213c92 0 159 -71 159 -161zM832 67c65 0 124 57 124 122c0 49 -35 88 -87 88c-64 0 -123 -54 -123 -120c0 -50 35 -90 86 -90zM680 596c0 -115 -111 -213 -225 -213
c-92 0 -159 71 -159 161c0 115 111 213 225 213c92 0 159 -71 159 -161zM469 465c65 0 124 56 124 121c0 50 -36 89 -87 89c-65 0 -123 -56 -123 -121c0 -50 35 -89 86 -89zM445 0h-87l537 740h87z" />
    <glyph glyph-name="perthousand" unicode="&#x2030;" horiz-adv-x="1321" 
d="M1043 199c0 -115 -111 -213 -225 -213c-92 0 -159 71 -159 161c0 115 111 213 225 213c92 0 159 -71 159 -161zM832 67c65 0 124 57 124 122c0 49 -35 88 -87 88c-64 0 -123 -54 -123 -120c0 -50 35 -90 86 -90zM680 596c0 -115 -111 -213 -225 -213
c-92 0 -159 71 -159 161c0 115 111 213 225 213c92 0 159 -71 159 -161zM469 465c65 0 124 56 124 121c0 50 -36 89 -87 89c-65 0 -123 -56 -123 -121c0 -50 35 -89 86 -89zM445 0h-87l537 740h87zM1453 199c0 -115 -111 -213 -225 -213c-92 0 -159 71 -159 161
c0 115 111 213 225 213c92 0 159 -71 159 -161zM1242 67c65 0 124 57 124 122c0 49 -35 88 -87 88c-64 0 -123 -54 -123 -120c0 -50 35 -90 86 -90z" />
    <glyph glyph-name="plus" unicode="+" horiz-adv-x="630" 
d="M478 80h-93l39 219h-218l16 93h218l39 219h93l-39 -219h219l-16 -93h-219z" />
    <glyph glyph-name="minus" unicode="&#x2212;" horiz-adv-x="630" 
d="M736 299h-530l16 93h530z" />
    <glyph glyph-name="multiply" unicode="&#xd7;" horiz-adv-x="578" 
d="M563 111l-139 168l-197 -168l-55 65l199 169l-139 167l77 66l138 -168l198 168l53 -66l-196 -167l138 -169z" />
    <glyph glyph-name="divide" unicode="&#xf7;" horiz-adv-x="630" 
d="M436 99c-31 0 -52 23 -52 53c0 39 35 71 74 71c31 0 51 -23 51 -52c0 -40 -34 -72 -73 -72zM501 469c-31 0 -52 23 -52 53c0 39 35 70 74 70c31 0 51 -22 51 -51c0 -40 -34 -72 -73 -72zM736 299h-530l16 93h530z" />
    <glyph glyph-name="plusminus" unicode="&#xb1;" horiz-adv-x="640" 
d="M703 360h-219l-35 -204h-93l35 204h-218l17 93h218l36 204h93l-36 -204h219zM640 0h-530l16 93h530z" />
    <glyph glyph-name="equal" unicode="=" horiz-adv-x="629" 
d="M736 409h-519l16 93h519zM697 190h-519l16 93h519z" />
    <glyph glyph-name="dollar" unicode="$" horiz-adv-x="570" 
d="M120 112l77 71c28 -45 65 -91 131 -101l46 260c-72 32 -144 73 -144 172c0 117 83 212 215 234l13 73h89l-12 -70c53 -6 101 -26 145 -68l-71 -78c-26 26 -56 43 -91 50l-42 -238c72 -31 145 -71 145 -173c0 -129 -93 -226 -220 -251l-13 -73h-89l12 69
c-83 8 -153 49 -191 123zM516 218c0 40 -25 66 -60 86l-38 -212c60 23 98 73 98 126zM336 541c0 -41 23 -67 57 -86l35 197c-59 -16 -92 -58 -92 -111z" />
    <glyph glyph-name="cent" unicode="&#xa2;" horiz-adv-x="593" 
d="M474 0h-89l22 128c-93 22 -155 106 -155 207c0 132 110 250 241 278l22 127h89l-22 -123c74 -10 130 -54 158 -115l-89 -46c-16 34 -47 59 -85 68l-54 -309c44 9 84 35 112 72l72 -47c-50 -62 -123 -106 -201 -116zM348 346c0 -55 29 -104 76 -124l52 295
c-72 -26 -128 -95 -128 -171z" />
    <glyph glyph-name="sterling" unicode="&#xa3;" horiz-adv-x="570" 
d="M559 0h-505l16 88c147 54 166 154 166 207v15h-101l16 93h69c-7 28 -13 63 -13 98c0 127 91 252 266 252c141 0 199 -86 190 -210h-102c-2 69 -27 118 -107 118c-104 0 -142 -76 -142 -148c0 -36 7 -76 14 -110h213l-16 -93h-186v-17c0 -64 -37 -145 -139 -200h377z" />
    <glyph glyph-name="Euro" unicode="&#x20ac;" horiz-adv-x="591" 
d="M519 177h97c-27 -108 -116 -190 -248 -190c-156 0 -210 114 -192 266h-86l43 78h57l12 70h-76l43 78h47c27 144 126 274 287 274c120 0 194 -72 182 -191h-100c1 62 -34 97 -98 97c-97 0 -149 -81 -171 -180h268l-43 -78h-239l-12 -70h225l-43 -78h-195
c-11 -96 6 -173 106 -173c69 0 120 38 136 97z" />
    <glyph glyph-name="yen" unicode="&#xa5;" horiz-adv-x="649" 
d="M707 180h-223l-32 -180h-103l32 180h-227l15 83h227l8 47l-4 38h-216l14 83h164l-144 309h118l142 -306l252 306h117l-256 -309h160l-14 -83h-212l-18 -38l-8 -47h223z" />
    <glyph glyph-name="florin" unicode="&#x192;" horiz-adv-x="308" 
d="M-26 -185l15 86c9 0 20 1 26 2c33 5 51 18 60 66l73 415h-72l16 91h73l12 69c3 14 5 28 8 42c21 84 74 132 160 136c19 1 34 -1 48 -3l-15 -86c-11 0 -21 0 -29 -2c-55 -10 -65 -30 -77 -97l-10 -59h91l-16 -91h-92l-75 -425c-15 -83 -59 -127 -132 -141
c-22 -4 -43 -5 -64 -3z" />
    <glyph glyph-name="currency" unicode="&#xa4;" horiz-adv-x="612" 
d="M588 72l-66 80c-46 -29 -97 -45 -149 -45s-99 17 -134 46l-95 -80l-44 53l95 81c-17 29 -26 69 -26 107c0 64 29 123 75 172l-67 81l63 54l68 -82c45 29 97 46 149 46c51 0 97 -16 131 -45l96 81l44 -54l-94 -80c17 -30 26 -70 26 -108c0 -65 -30 -123 -76 -173l67 -80z
M562 366c0 69 -50 125 -122 125c-88 0 -173 -77 -173 -165c0 -69 52 -124 122 -124c87 0 173 77 173 164z" />
    <glyph glyph-name="exclam" unicode="!" horiz-adv-x="320" 
d="M329 203h-50l24 280l46 257h100l-46 -257zM266 -6c-31 0 -52 23 -52 53c0 39 35 70 74 70c31 0 52 -22 52 -52c0 -39 -35 -71 -74 -71z" />
    <glyph glyph-name="exclamdown" unicode="&#xa1;" horiz-adv-x="280" 
d="M210 -192h-100l45 257l75 280h50l-25 -280zM345 501c0 -39 -35 -71 -74 -71c-31 0 -52 23 -52 53c0 39 35 71 74 71c31 0 52 -23 52 -53z" />
    <glyph glyph-name="question" unicode="?" horiz-adv-x="538" 
d="M384 -6c-31 0 -52 23 -52 53c0 39 34 70 73 70c31 0 53 -22 53 -52c0 -39 -35 -71 -74 -71zM470 196h-100l12 68c19 109 78 133 150 165c70 31 121 58 121 136c0 60 -43 93 -102 93c-78 0 -126 -54 -139 -129h-96c21 125 119 224 257 224c112 0 183 -68 183 -173
c0 -133 -82 -178 -176 -222c-53 -25 -89 -44 -99 -100z" />
    <glyph glyph-name="questiondown" unicode="&#xbf;" horiz-adv-x="503" 
d="M518 500c0 -39 -35 -71 -74 -71c-31 0 -52 23 -52 53c0 39 35 71 74 71c31 0 52 -23 52 -53zM437 17h96c-22 -125 -118 -224 -257 -224c-111 0 -182 68 -182 174c0 134 80 174 176 221c57 27 89 46 98 100l11 63h100l-12 -69c-19 -109 -78 -132 -150 -164
c-63 -28 -121 -57 -121 -137c0 -59 43 -92 103 -92c78 0 125 54 138 128z" />
    <glyph glyph-name="quoteright" unicode="'" horiz-adv-x="257" 
d="M426 484h-76l30 256h107z" />
    <glyph glyph-name="quotedbl" unicode="&#x22;" horiz-adv-x="434" 
d="M426 484h-76l30 256h107zM603 484h-76l30 256h107z" />
    <glyph glyph-name="quoteleft" unicode="&#x2018;" horiz-adv-x="224" 
d="M439 741l-9 -51c-24 -4 -59 -30 -68 -67c3 1 9 1 11 1c28 0 49 -22 49 -52c0 -39 -35 -71 -75 -71c-35 0 -51 27 -51 64c0 73 62 173 143 176z" />
    <glyph glyph-name="quoteright" unicode="&#x2019;" horiz-adv-x="224" 
d="M304 505l9 51c25 4 59 30 69 67c-3 -1 -9 -1 -11 -1c-28 0 -50 22 -50 52c0 39 34 71 75 71c35 0 52 -27 52 -65c0 -73 -62 -172 -144 -175z" />
    <glyph glyph-name="quotedblleft" unicode="&#x201c;" horiz-adv-x="399" 
d="M615 741l-9 -51c-25 -4 -60 -30 -69 -67c3 1 9 1 11 1c28 0 49 -22 49 -52c0 -39 -34 -71 -74 -71c-35 0 -52 27 -52 65c0 72 61 172 144 175zM440 741l-9 -51c-25 -4 -60 -30 -69 -67c3 1 9 1 11 1c28 0 49 -22 49 -52c0 -39 -33 -71 -74 -71c-35 0 -52 27 -52 65
c0 72 61 172 144 175z" />
    <glyph glyph-name="quotedblright" unicode="&#x201d;" horiz-adv-x="399" 
d="M304 506l9 51c25 4 59 30 69 67c-3 -1 -9 -1 -11 -1c-29 0 -50 22 -50 52c0 39 34 71 74 71c36 0 53 -27 53 -65c0 -72 -62 -172 -144 -175zM479 506l9 51c25 4 59 30 69 67c-3 -1 -9 -1 -11 -1c-29 0 -50 22 -50 52c0 39 34 71 74 71c36 0 53 -27 53 -65
c0 -72 -62 -172 -144 -175z" />
    <glyph glyph-name="quotesinglbase" unicode="&#x201a;" horiz-adv-x="224" 
d="M82 -122l9 50c25 4 59 30 69 67c-4 -1 -10 -1 -12 -1c-28 0 -49 22 -49 52c0 39 34 71 75 71c35 0 51 -27 51 -65c0 -71 -61 -172 -143 -174z" />
    <glyph glyph-name="quotedblbase" unicode="&#x201e;" horiz-adv-x="399" 
d="M82 -123l9 51c25 4 59 30 69 67c-3 -1 -9 -1 -11 -1c-29 0 -50 22 -50 52c0 39 34 71 74 71c35 0 53 -27 53 -65c0 -72 -62 -172 -144 -175zM257 -123l9 51c25 4 59 30 69 67c-3 -1 -9 -1 -11 -1c-29 0 -50 22 -50 52c0 39 34 71 74 71c36 0 53 -27 53 -65
c0 -72 -62 -172 -144 -175z" />
    <glyph glyph-name="guilsinglleft" unicode="&#x2039;" horiz-adv-x="315" 
d="M370 52h-108l-92 201l162 199h106l-159 -199z" />
    <glyph glyph-name="guilsinglright" unicode="&#x203a;" horiz-adv-x="315" 
d="M206 52h-108l161 201l-88 199h106l91 -199z" />
    <glyph glyph-name="guillemotleft" unicode="&#xab;" horiz-adv-x="517" 
d="M370 52h-108l-92 201l162 199h106l-159 -199zM572 52h-108l-92 201l162 199h106l-159 -199z" />
    <glyph glyph-name="guillemotright" unicode="&#xbb;" horiz-adv-x="517" 
d="M206 52h-108l161 201l-88 199h106l91 -199zM408 52h-108l161 201l-88 199h106l91 -199z" />
    <glyph glyph-name="dagger" unicode="&#x2020;" horiz-adv-x="550" 
d="M403 -253h-100l121 686h-178l16 89h178l38 218h100l-38 -218h178l-16 -89h-178z" />
    <glyph glyph-name="daggerdbl" unicode="&#x2021;" horiz-adv-x="560" 
d="M339 -253h-101l47 265h-177l16 88h177l63 362h-177l16 89h177l33 189h101l-33 -189h177l-16 -89h-177l-63 -362h177l-16 -88h-177z" />
    <glyph glyph-name="parenleft" unicode="(" horiz-adv-x="371" 
d="M428 -125l-60 -76c-95 62 -190 194 -190 389c0 296 199 480 358 564l33 -77c-119 -65 -287 -227 -287 -472c0 -165 79 -281 146 -328z" />
    <glyph glyph-name="parenright" unicode=")" horiz-adv-x="371" 
d="M10 -201l-34 76c114 63 288 227 288 475c0 162 -77 278 -147 325l61 77c94 -61 189 -194 189 -389c0 -296 -198 -479 -357 -564z" />
    <glyph glyph-name="bracketleft" unicode="[" horiz-adv-x="321" 
d="M299 -202h-251l166 942h251l-16 -91h-149l-134 -762h149z" />
    <glyph glyph-name="bracketright" unicode="]" horiz-adv-x="321" 
d="M199 -202h-251l16 89h149l134 762h-149l16 91h251z" />
    <glyph glyph-name="braceleft" unicode="{" horiz-adv-x="352" 
d="M365 -204h-97c-73 0 -94 66 -83 131l31 175c9 53 2 116 -98 119l16 92c100 3 131 68 140 120l31 175c11 65 56 131 129 131h97l-13 -74h-53c-43 0 -57 -54 -63 -86l-31 -176c-10 -55 -50 -117 -141 -135c85 -11 102 -90 91 -150l-29 -161c-6 -32 -10 -86 33 -86h53z" />
    <glyph glyph-name="braceright" unicode="}" horiz-adv-x="352" 
d="M45 -204h-97l13 75h53c43 0 57 54 63 86l29 161c11 60 54 139 143 150c-85 18 -103 80 -93 135l31 176c6 32 10 86 -33 86h-53l13 74h97c73 0 95 -66 83 -131l-31 -175c-9 -52 0 -117 98 -120l-16 -92c-102 -3 -131 -66 -140 -119l-31 -175c-11 -65 -56 -131 -129 -131z
" />
    <glyph glyph-name="less" unicode="&#x3c;" horiz-adv-x="453" 
d="M487 71l-82 -65l-283 340l403 340l57 -66l-327 -274z" />
    <glyph glyph-name="greater" unicode="&#x3e;" horiz-adv-x="453" 
d="M567 346l-402 -340l-59 65l328 275l-231 274l81 66z" />
    <glyph glyph-name="bar" unicode="|" horiz-adv-x="240" 
d="M190 -140h-100l155 880h100z" />
    <glyph glyph-name="brokenbar" unicode="&#xa6;" horiz-adv-x="240" 
d="M283 390h-100l62 350h100zM190 -140h-100l62 350h100z" />
    <glyph glyph-name="slash" unicode="/" horiz-adv-x="507" 
d="M100 0h-96l536 740h96z" />
    <glyph glyph-name="backslash" unicode="\" horiz-adv-x="507" 
d="M637 0h-96l-277 740h96z" />
    <glyph glyph-name="fraction" unicode="&#x2044;" horiz-adv-x="181" 
d="M-224 0h-82l536 740h82z" />
    <glyph glyph-name="period" unicode="." horiz-adv-x="323" 
d="M270 -6c-31 0 -52 23 -52 53c0 39 35 70 74 70c31 0 51 -22 51 -51c0 -40 -34 -72 -73 -72z" />
    <glyph glyph-name="comma" unicode="," horiz-adv-x="324" 
d="M182 -122l9 50c25 4 59 30 69 67c-4 -1 -10 -1 -12 -1c-28 0 -49 22 -49 52c0 39 34 71 75 71c35 0 51 -27 51 -65c0 -71 -61 -172 -143 -174z" />
    <glyph glyph-name="colon" unicode=":" horiz-adv-x="323" 
d="M270 -6c-31 0 -52 23 -52 53c0 39 35 70 74 70c31 0 51 -22 51 -51c0 -40 -34 -72 -73 -72zM333 351c-31 0 -52 23 -52 53c0 39 35 71 74 71c31 0 51 -23 51 -52c0 -40 -34 -72 -73 -72z" />
    <glyph glyph-name="semicolon" unicode=";" horiz-adv-x="324" 
d="M314 351c-31 0 -52 23 -52 53c0 39 35 71 74 71c31 0 51 -23 51 -52c0 -40 -33 -72 -73 -72zM182 -122l9 50c25 4 59 30 69 67c-4 -1 -10 -1 -12 -1c-28 0 -49 22 -49 52c0 39 34 71 75 71c35 0 51 -27 51 -65c0 -71 -61 -172 -143 -174z" />
    <glyph glyph-name="ellipsis" unicode="&#x2026;" horiz-adv-x="970" 
d="M270 -6c-31 0 -52 23 -52 53c0 39 35 70 74 70c31 0 51 -22 51 -51c0 -40 -34 -72 -73 -72zM593 -6c-31 0 -52 23 -52 53c0 39 35 70 74 70c31 0 52 -22 52 -52c0 -39 -35 -71 -74 -71zM917 -6c-31 0 -52 23 -52 53c0 39 35 70 74 70c31 0 51 -22 51 -51
c0 -40 -34 -72 -73 -72z" />
    <glyph glyph-name="periodcentered" unicode="&#xb7;" horiz-adv-x="323" 
d="M340 193c-31 0 -52 23 -52 53c0 39 35 70 74 70c31 0 51 -22 51 -51c0 -40 -34 -72 -73 -72z" />
    <glyph glyph-name="bullet" unicode="&#x2022;" horiz-adv-x="480" 
d="M416 209c-82 0 -138 65 -138 144c0 103 96 191 198 191c83 0 137 -66 137 -143c0 -102 -95 -192 -197 -192z" />
    <glyph glyph-name="hyphen" unicode="-" horiz-adv-x="417" 
d="M495 224h-287l16 92h287z" />
    <glyph glyph-name="endash" unicode="&#x2013;" horiz-adv-x="579" 
d="M656 224h-544l16 92h544z" />
    <glyph glyph-name="emdash" unicode="&#x2014;" horiz-adv-x="1024" 
d="M1101 224h-989l16 92h989z" />
    <glyph glyph-name="underscore" unicode="_" horiz-adv-x="558" 
d="M529 -81h-523l14 81h523z" />
    <glyph glyph-name="logicalnot" unicode="&#xac;" horiz-adv-x="646" 
d="M703 80h-93l39 220h-443l16 93h536z" />
    <glyph glyph-name="mu" unicode="&#xb5;" horiz-adv-x="583" 
d="M166 -253h-96l128 728h96l-45 -255c-16 -89 -4 -143 95 -143c98 0 128 54 144 143l45 255h98l-50 -282c-26 -149 -123 -206 -247 -206c-57 0 -91 12 -117 49z" />
    <glyph glyph-name="degree" unicode="&#xb0;" horiz-adv-x="380" 
d="M581 592c0 -93 -87 -172 -179 -172c-74 0 -126 57 -126 128c0 93 87 172 179 172c74 0 126 -57 126 -128zM517 583c0 42 -30 74 -73 74c-55 0 -105 -45 -105 -100c0 -42 30 -75 74 -75c55 0 104 46 104 101z" />
    <glyph glyph-name="asterisk" unicode="*" horiz-adv-x="416" 
d="M557 464l-91 61l-16 -106h-72l22 107l-105 -69l-25 60l108 60l-89 52l44 62l88 -57l15 106h73l-22 -106l103 66l27 -60l-107 -58l94 -56z" />
    <glyph glyph-name="asciicircum" unicode="^" horiz-adv-x="562" 
d="M680 336h-100l-91 316l-201 -316h-100l265 404h104z" />
    <glyph glyph-name="asciitilde" unicode="~" horiz-adv-x="598" 
d="M639 397h70c0 -4 1 -12 1 -17c0 -85 -73 -148 -160 -148c-95 0 -124 80 -212 80c-45 0 -66 -21 -73 -60c-1 -6 -3 -12 -3 -19h-70v17c0 89 71 148 168 148c110 0 127 -80 206 -80c44 0 65 25 71 61c1 6 2 12 2 18z" />
    <glyph glyph-name="section" unicode="&#xa7;" horiz-adv-x="563" 
d="M150 27h99c-9 -63 27 -109 93 -109c59 0 121 35 121 94c0 118 -290 123 -290 289c0 75 49 122 117 165c-13 22 -20 48 -20 75c0 118 111 186 221 186c106 0 174 -66 161 -178h-99c5 49 -30 84 -79 84c-52 0 -95 -37 -95 -83c0 -108 261 -122 261 -269
c0 -70 -55 -126 -109 -160c24 -25 33 -58 33 -91c0 -130 -120 -206 -237 -206c-122 0 -193 87 -177 203zM474 171c34 19 61 57 61 86c0 69 -123 115 -195 153c-31 -19 -64 -53 -64 -86c0 -71 134 -115 198 -153z" />
    <glyph glyph-name="at" unicode="@" horiz-adv-x="965" 
d="M759 -116l33 -64c-68 -40 -157 -82 -275 -82c-207 0 -369 137 -369 372c0 347 288 530 539 530c187 0 353 -113 353 -326c0 -172 -105 -340 -245 -340c-61 0 -98 34 -100 89c-51 -59 -118 -77 -170 -77c-104 0 -163 75 -163 171c0 132 103 242 239 242
c53 0 98 -18 127 -62l10 55h89l-47 -265c-7 -41 5 -66 36 -66c70 0 130 114 130 227c0 148 -98 264 -270 264c-196 0 -436 -133 -436 -432c0 -190 126 -298 299 -298c78 0 152 21 220 62zM699 212c0 60 -39 107 -105 107c-85 0 -144 -68 -144 -150c0 -60 35 -104 99 -104
c86 0 150 68 150 147z" />
    <glyph glyph-name="copyright" unicode="&#xa9;" horiz-adv-x="864" 
d="M994 425c0 -235 -222 -437 -455 -437c-188 0 -321 144 -321 327c0 238 222 437 456 437c188 0 320 -145 320 -327zM551 56c192 0 370 167 370 359c0 149 -106 269 -261 269c-192 0 -369 -167 -369 -360c0 -149 105 -268 260 -268zM724 298l63 -41
c-49 -64 -127 -106 -205 -106c-106 0 -184 83 -184 188c0 130 126 251 261 251c78 0 139 -43 167 -106l-78 -41c-16 39 -55 66 -104 66c-85 0 -160 -78 -160 -160c0 -65 45 -118 112 -118c51 0 97 28 128 67z" />
    <glyph glyph-name="registered" unicode="&#xae;" horiz-adv-x="864" 
d="M994 425c0 -235 -222 -437 -455 -437c-188 0 -321 144 -321 327c0 238 222 437 456 437c188 0 320 -145 320 -327zM551 56c192 0 370 167 370 359c0 149 -106 269 -261 269c-192 0 -369 -167 -369 -360c0 -149 105 -268 260 -268zM747 153h-87l-73 177h-65l-31 -176h-73
l77 435h133c90 0 177 -7 177 -99c0 -89 -53 -136 -134 -154zM533 395h79c62 0 115 10 115 77c0 43 -37 51 -92 51h-79z" />
    <glyph glyph-name="trademark" unicode="&#x2122;" horiz-adv-x="780" 
d="M946 388h-74l43 244l-100 -105h-32l-62 104l-43 -243h-73l62 352h75l73 -126l124 126h69zM447 388h-73l50 284h-88l12 68h248l-12 -68h-87z" />
    <glyph glyph-name="quoteleft" unicode="`" horiz-adv-x="358" 
d="M523 542l-193 112l61 84l190 -120z" />
    <glyph glyph-name="acute" unicode="&#xb4;" horiz-adv-x="358" 
d="M583 656l-234 -114l-31 75l233 121z" />
    <glyph glyph-name="circumflex" unicode="&#x2c6;" horiz-adv-x="440" 
d="M650 594l-63 -53l-96 112l-137 -112l-44 53l162 137h66z" />
    <glyph glyph-name="tilde" unicode="&#x2dc;" horiz-adv-x="457" 
d="M641 659l30 -65c-36 -33 -76 -53 -114 -53c-55 0 -92 41 -136 41c-25 0 -48 -13 -69 -30l-34 67c34 27 75 48 115 48c57 0 90 -41 134 -41c23 0 49 12 74 33z" />
    <glyph glyph-name="macron" unicode="&#xaf;" horiz-adv-x="448" 
d="M644 558h-348l15 86h348z" />
    <glyph glyph-name="breve" unicode="&#x2d8;" horiz-adv-x="420" 
d="M580 663h62c-12 -67 -64 -122 -155 -122c-92 0 -124 56 -112 122h62c-6 -33 13 -56 61 -56s76 22 82 56z" />
    <glyph glyph-name="dotaccent" unicode="&#x2d9;" horiz-adv-x="223" 
d="M362 541c-31 0 -52 23 -52 53c0 39 35 70 74 70c31 0 51 -22 51 -51c0 -40 -33 -72 -73 -72z" />
    <glyph glyph-name="dieresis" unicode="&#xa8;" horiz-adv-x="405" 
d="M362 541c-31 0 -52 23 -52 53c0 39 35 70 74 70c31 0 51 -22 51 -51c0 -40 -33 -72 -73 -72zM544 541c-31 0 -52 23 -52 53c0 39 35 70 74 70c31 0 51 -22 51 -51c0 -40 -33 -72 -73 -72z" />
    <glyph glyph-name="ring" unicode="&#x2da;" horiz-adv-x="313" 
d="M526 617c0 -66 -63 -121 -127 -121c-52 0 -89 41 -89 91c0 64 61 122 126 122c53 0 90 -41 90 -92zM463 609c0 21 -15 38 -37 38c-28 0 -54 -24 -54 -52c0 -21 15 -38 38 -38c26 0 53 22 53 52z" />
    <glyph glyph-name="cedilla" unicode="&#xb8;" horiz-adv-x="303" 
d="M157 -88h-72l47 88h51l-25 -44h15c51 0 83 -28 83 -77c0 -71 -55 -116 -121 -116c-44 0 -92 22 -84 100h47c-4 -43 22 -57 47 -57c35 0 63 28 63 65c0 25 -17 41 -51 41z" />
    <glyph glyph-name="hungarumlaut" unicode="&#x2dd;" horiz-adv-x="554" 
d="M565 684l-208 -150l-45 65l205 154zM781 684l-208 -150l-45 65l205 154z" />
    <glyph glyph-name="ogonek" unicode="&#x2db;" horiz-adv-x="248" 
d="M255 -126l-10 -56c-22 -10 -42 -15 -64 -15c-50 0 -91 28 -91 82c0 43 27 87 58 115h59c-21 -24 -43 -57 -43 -86c0 -27 17 -49 49 -49c10 0 28 2 42 9z" />
    <glyph glyph-name="caron" unicode="&#x2c7;" horiz-adv-x="440" 
d="M680 678l-162 -137h-66l-112 137l63 53l96 -112l137 112z" />
    <glyph glyph-name="paragraph" unicode="&#xb6;" horiz-adv-x="708" 
d="M635 -193h-84l151 855h-116l-151 -855h-85l82 465c-132 13 -208 90 -208 196c0 129 107 272 299 272h396l-14 -78h-119zM445 346l56 318c-131 0 -195 -93 -195 -180c0 -68 41 -131 139 -138z" />
    <glyph glyph-name="Agrave" unicode="&#xc0;" horiz-adv-x="698" 
d="M698 0h-112l-35 173h-340l-97 -173h-110l421 740h112zM530 269l-70 347l-196 -347h266zM557 807l-193 112l61 84l190 -120z" />
    <glyph glyph-name="Aacute" unicode="&#xc1;" horiz-adv-x="698" 
d="M698 0h-112l-35 173h-340l-97 -173h-110l421 740h112zM530 269l-70 347l-196 -347h266zM647 921l-234 -114l-31 75l233 121z" />
    <glyph glyph-name="Acircumflex" unicode="&#xc2;" horiz-adv-x="698" 
d="M698 0h-112l-35 173h-340l-97 -173h-110l421 740h112zM530 269l-70 347l-196 -347h266zM672 859l-63 -53l-96 112l-137 -112l-44 53l162 137h66z" />
    <glyph glyph-name="Atilde" unicode="&#xc3;" horiz-adv-x="698" 
d="M698 0h-112l-35 173h-340l-97 -173h-110l421 740h112zM530 269l-70 347l-196 -347h266zM651 924l30 -65c-36 -33 -76 -53 -114 -53c-55 0 -92 41 -136 41c-25 0 -48 -13 -69 -30l-34 67c34 27 75 48 115 48c57 0 90 -41 134 -41c23 0 49 12 74 33z" />
    <glyph glyph-name="Adieresis" unicode="&#xc4;" horiz-adv-x="698" 
d="M698 0h-112l-35 173h-340l-97 -173h-110l421 740h112zM530 269l-70 347l-196 -347h266zM402 806c-31 0 -52 23 -52 53c0 39 35 70 74 70c31 0 51 -22 51 -51c0 -40 -33 -72 -73 -72zM584 806c-31 0 -52 23 -52 53c0 39 35 70 74 70c31 0 51 -22 51 -51
c0 -40 -33 -72 -73 -72z" />
    <glyph glyph-name="Aring" unicode="&#xc5;" horiz-adv-x="698" 
d="M698 0h-112l-35 173h-340l-97 -173h-110l421 740h112zM530 269l-70 347l-196 -347h266zM611 882c0 -66 -63 -121 -127 -121c-52 0 -89 41 -89 91c0 64 61 122 126 122c53 0 90 -41 90 -92zM548 874c0 21 -15 38 -37 38c-28 0 -54 -24 -54 -52c0 -21 15 -38 38 -38
c26 0 53 22 53 52z" />
    <glyph glyph-name="agrave" unicode="&#xe0;" 
d="M623 0h-96l9 56c-48 -47 -107 -69 -171 -69c-125 0 -211 92 -211 211c0 159 144 286 299 286c64 0 114 -23 147 -70l10 61h96zM569 258c0 75 -52 135 -132 135c-99 0 -187 -83 -187 -182c0 -76 52 -134 131 -134c102 0 188 85 188 181zM544 542l-193 112l61 84l190 -120z
" />
    <glyph glyph-name="aacute" unicode="&#xe1;" 
d="M623 0h-96l9 56c-48 -47 -107 -69 -171 -69c-125 0 -211 92 -211 211c0 159 144 286 299 286c64 0 114 -23 147 -70l10 61h96zM569 258c0 75 -52 135 -132 135c-99 0 -187 -83 -187 -182c0 -76 52 -134 131 -134c102 0 188 85 188 181zM645 656l-234 -114l-31 75l233 121
z" />
    <glyph glyph-name="acircumflex" unicode="&#xe2;" 
d="M623 0h-96l9 56c-48 -47 -107 -69 -171 -69c-125 0 -211 92 -211 211c0 159 144 286 299 286c64 0 114 -23 147 -70l10 61h96zM569 258c0 75 -52 135 -132 135c-99 0 -187 -83 -187 -182c0 -76 52 -134 131 -134c102 0 188 85 188 181zM647 594l-63 -53l-96 112
l-137 -112l-44 53l162 137h66z" />
    <glyph glyph-name="atilde" unicode="&#xe3;" 
d="M623 0h-96l9 56c-48 -47 -107 -69 -171 -69c-125 0 -211 92 -211 211c0 159 144 286 299 286c64 0 114 -23 147 -70l10 61h96zM569 258c0 75 -52 135 -132 135c-99 0 -187 -83 -187 -182c0 -76 52 -134 131 -134c102 0 188 85 188 181zM625 659l30 -65
c-36 -33 -76 -53 -114 -53c-55 0 -92 41 -136 41c-25 0 -48 -13 -69 -30l-34 67c34 27 75 48 115 48c57 0 90 -41 134 -41c23 0 49 12 74 33z" />
    <glyph glyph-name="adieresis" unicode="&#xe4;" 
d="M623 0h-96l9 56c-48 -47 -107 -69 -171 -69c-125 0 -211 92 -211 211c0 159 144 286 299 286c64 0 114 -23 147 -70l10 61h96zM569 258c0 75 -52 135 -132 135c-99 0 -187 -83 -187 -182c0 -76 52 -134 131 -134c102 0 188 85 188 181zM376 541c-31 0 -52 23 -52 53
c0 39 35 70 74 70c31 0 51 -22 51 -51c0 -40 -33 -72 -73 -72zM558 541c-31 0 -52 23 -52 53c0 39 35 70 74 70c31 0 51 -22 51 -51c0 -40 -33 -72 -73 -72z" />
    <glyph glyph-name="aring" unicode="&#xe5;" 
d="M623 0h-96l9 56c-48 -47 -107 -69 -171 -69c-125 0 -211 92 -211 211c0 159 144 286 299 286c64 0 114 -23 147 -70l10 61h96zM569 258c0 75 -52 135 -132 135c-99 0 -187 -83 -187 -182c0 -76 52 -134 131 -134c102 0 188 85 188 181zM585 627c0 -66 -63 -121 -127 -121
c-52 0 -89 41 -89 91c0 64 61 122 126 122c53 0 90 -41 90 -92zM522 619c0 21 -15 38 -37 38c-28 0 -54 -24 -54 -52c0 -21 15 -38 38 -38c26 0 53 22 53 52z" />
    <glyph glyph-name="Ccedilla" unicode="&#xc7;" horiz-adv-x="715" 
d="M489 -89h-73l42 79c-163 20 -276 154 -276 324c0 238 219 438 459 438c109 0 199 -43 257 -116l-84 -64c-43 56 -110 87 -188 87c-176 0 -341 -159 -341 -331c0 -136 100 -248 239 -248c75 0 153 34 213 84l55 -67c-82 -68 -180 -110 -284 -110l-19 -32h16
c51 0 82 -29 82 -76c0 -73 -55 -117 -121 -117c-43 0 -91 22 -84 100h47c-3 -43 21 -57 46 -57c37 0 63 29 63 65c0 25 -16 41 -49 41z" />
    <glyph glyph-name="ccedilla" unicode="&#xe7;" horiz-adv-x="528" 
d="M358 -88h-72l41 78c-102 17 -171 103 -171 210c0 151 143 284 297 284c89 0 159 -47 191 -117l-89 -46c-19 43 -63 72 -118 72c-97 0 -185 -87 -185 -181c0 -74 53 -135 130 -135c58 0 111 30 146 75l72 -47c-55 -68 -138 -114 -224 -118l-17 -31h15c51 0 82 -29 82 -76
c0 -73 -54 -117 -120 -117c-44 0 -92 22 -85 100h47c-3 -43 22 -57 47 -57c35 0 63 28 63 65c0 25 -17 41 -50 41z" />
    <glyph glyph-name="Egrave" unicode="&#xc8;" horiz-adv-x="570" 
d="M602 0h-432l130 740h432l-17 -97h-330l-36 -209h274l-17 -96h-274l-43 -242h330zM591 807l-193 112l61 84l190 -120z" />
    <glyph glyph-name="Eacute" unicode="&#xc9;" horiz-adv-x="570" 
d="M602 0h-432l130 740h432l-17 -97h-330l-36 -209h274l-17 -96h-274l-43 -242h330zM696 921l-234 -114l-31 75l233 121z" />
    <glyph glyph-name="Ecircumflex" unicode="&#xca;" horiz-adv-x="570" 
d="M602 0h-432l130 740h432l-17 -97h-330l-36 -209h274l-17 -96h-274l-43 -242h330zM715 859l-63 -53l-96 112l-137 -112l-44 53l162 137h66z" />
    <glyph glyph-name="Edieresis" unicode="&#xcb;" horiz-adv-x="570" 
d="M602 0h-432l130 740h432l-17 -97h-330l-36 -209h274l-17 -96h-274l-43 -242h330zM443 806c-31 0 -52 23 -52 53c0 39 35 70 74 70c31 0 51 -22 51 -51c0 -40 -33 -72 -73 -72zM625 806c-31 0 -52 23 -52 53c0 39 35 70 74 70c31 0 51 -22 51 -51c0 -40 -33 -72 -73 -72z
" />
    <glyph glyph-name="egrave" unicode="&#xe8;" horiz-adv-x="563" 
d="M636 203h-389c0 -73 51 -129 132 -129c52 0 107 23 144 65l59 -52c-55 -62 -137 -100 -219 -100c-123 0 -209 91 -209 211c0 149 133 286 291 286c125 0 203 -96 203 -211c0 -28 -5 -46 -12 -70zM264 279h290c0 66 -49 117 -124 117c-74 0 -137 -50 -166 -117zM520 542
l-193 112l61 84l190 -120z" />
    <glyph glyph-name="eacute" unicode="&#xe9;" horiz-adv-x="563" 
d="M636 203h-389c0 -73 51 -129 132 -129c52 0 107 23 144 65l59 -52c-55 -62 -137 -100 -219 -100c-123 0 -209 91 -209 211c0 149 133 286 291 286c125 0 203 -96 203 -211c0 -28 -5 -46 -12 -70zM264 279h290c0 66 -49 117 -124 117c-74 0 -137 -50 -166 -117zM613 656
l-234 -114l-31 75l233 121z" />
    <glyph glyph-name="ecircumflex" unicode="&#xea;" horiz-adv-x="563" 
d="M636 203h-389c0 -73 51 -129 132 -129c52 0 107 23 144 65l59 -52c-55 -62 -137 -100 -219 -100c-123 0 -209 91 -209 211c0 149 133 286 291 286c125 0 203 -96 203 -211c0 -28 -5 -46 -12 -70zM264 279h290c0 66 -49 117 -124 117c-74 0 -137 -50 -166 -117zM635 594
l-63 -53l-96 112l-137 -112l-44 53l162 137h66z" />
    <glyph glyph-name="edieresis" unicode="&#xeb;" horiz-adv-x="563" 
d="M636 203h-389c0 -73 51 -129 132 -129c52 0 107 23 144 65l59 -52c-55 -62 -137 -100 -219 -100c-123 0 -209 91 -209 211c0 149 133 286 291 286c125 0 203 -96 203 -211c0 -28 -5 -46 -12 -70zM264 279h290c0 66 -49 117 -124 117c-74 0 -137 -50 -166 -117zM364 541
c-31 0 -52 23 -52 53c0 39 35 70 74 70c31 0 51 -22 51 -51c0 -40 -33 -72 -73 -72zM546 541c-31 0 -52 23 -52 53c0 39 35 70 74 70c31 0 51 -22 51 -51c0 -40 -33 -72 -73 -72z" />
    <glyph glyph-name="Igrave" unicode="&#xcc;" horiz-adv-x="272" 
d="M272 0h-102l130 740h102zM419 807l-193 112l61 84l190 -120z" />
    <glyph glyph-name="Iacute" unicode="&#xcd;" horiz-adv-x="272" 
d="M272 0h-102l130 740h102zM518 921l-234 -114l-31 75l233 121z" />
    <glyph glyph-name="Icircumflex" unicode="&#xce;" horiz-adv-x="272" 
d="M272 0h-102l130 740h102zM542 859l-63 -53l-96 112l-137 -112l-44 53l162 137h66z" />
    <glyph glyph-name="Idieresis" unicode="&#xcf;" horiz-adv-x="272" 
d="M272 0h-102l130 740h102zM272 806c-31 0 -52 23 -52 53c0 39 35 70 74 70c31 0 51 -22 51 -51c0 -40 -33 -72 -73 -72zM454 806c-31 0 -52 23 -52 53c0 39 35 70 74 70c31 0 51 -22 51 -51c0 -40 -33 -72 -73 -72z" />
    <glyph glyph-name="igrave" unicode="&#xec;" horiz-adv-x="257" 
d="M380 542l-193 112l61 84l190 -120zM257 0h-97l84 475h97z" />
    <glyph glyph-name="iacute" unicode="&#xed;" horiz-adv-x="257" 
d="M458 656l-234 -114l-31 75l233 121zM257 0h-97l84 475h97z" />
    <glyph glyph-name="icircumflex" unicode="&#xee;" horiz-adv-x="257" 
d="M241 0h-97l84 475h97zM468 594l-63 -53l-96 112l-137 -112l-44 53l162 137h66z" />
    <glyph glyph-name="idieresis" unicode="&#xef;" horiz-adv-x="257" 
d="M213 541c-31 0 -52 23 -52 53c0 39 35 70 74 70c31 0 51 -22 51 -51c0 -40 -33 -72 -73 -72zM395 541c-31 0 -52 23 -52 53c0 39 35 70 74 70c31 0 51 -22 51 -51c0 -40 -33 -72 -73 -72zM257 0h-97l84 475h97z" />
    <glyph glyph-name="Lslash" unicode="&#x141;" horiz-adv-x="558" 
d="M465 442l-179 -116l-41 -230h348l-17 -96h-450l45 253l-89 -57l17 99l90 57l68 388h102l-56 -315l180 116z" />
    <glyph glyph-name="lslash" unicode="&#x142;" horiz-adv-x="270" 
d="M370 387l-83 -53l-32 -183c-9 -51 -2 -74 45 -74c6 0 15 0 25 1l-15 -84c-17 -4 -35 -7 -53 -7c-79 0 -119 46 -104 134l25 143l-74 -48l17 96l74 48l67 380h96l-54 -310l83 53z" />
    <glyph glyph-name="Ntilde" unicode="&#xd1;" horiz-adv-x="825" 
d="M825 0h-106l-340 606l-107 -606h-102l130 740h132l321 -569l100 569h102zM806 924l30 -65c-36 -33 -76 -53 -114 -53c-55 0 -92 41 -136 41c-25 0 -48 -13 -69 -30l-34 67c34 27 75 48 115 48c57 0 90 -41 134 -41c23 0 49 12 74 33z" />
    <glyph glyph-name="ntilde" unicode="&#xf1;" horiz-adv-x="580" 
d="M590 0h-97l44 249c17 95 -12 144 -91 144c-82 0 -130 -53 -147 -151l-43 -242h-96l84 475h96l-9 -51c38 36 81 60 148 60c113 0 184 -66 158 -215zM619 659l30 -65c-36 -33 -76 -53 -114 -53c-55 0 -92 41 -136 41c-25 0 -48 -13 -69 -30l-34 67c34 27 75 48 115 48
c57 0 90 -41 134 -41c23 0 49 12 74 33z" />
    <glyph glyph-name="Ograve" unicode="&#xd2;" horiz-adv-x="838" 
d="M967 426c0 -240 -221 -439 -459 -439c-190 0 -326 140 -326 326c0 236 215 440 460 440c193 0 325 -142 325 -327zM524 80c178 0 340 152 340 332c0 137 -95 247 -239 247c-181 0 -340 -158 -340 -333c0 -138 98 -246 239 -246zM695 807l-193 112l61 84l190 -120z" />
    <glyph glyph-name="Oacute" unicode="&#xd3;" horiz-adv-x="838" 
d="M967 426c0 -240 -221 -439 -459 -439c-190 0 -326 140 -326 326c0 236 215 440 460 440c193 0 325 -142 325 -327zM524 80c178 0 340 152 340 332c0 137 -95 247 -239 247c-181 0 -340 -158 -340 -333c0 -138 98 -246 239 -246zM816 921l-234 -114l-31 75l233 121z" />
    <glyph glyph-name="Ocircumflex" unicode="&#xd4;" horiz-adv-x="838" 
d="M967 426c0 -240 -221 -439 -459 -439c-190 0 -326 140 -326 326c0 236 215 440 460 440c193 0 325 -142 325 -327zM524 80c178 0 340 152 340 332c0 137 -95 247 -239 247c-181 0 -340 -158 -340 -333c0 -138 98 -246 239 -246zM830 859l-63 -53l-96 112l-137 -112
l-44 53l162 137h66z" />
    <glyph glyph-name="Otilde" unicode="&#xd5;" horiz-adv-x="838" 
d="M967 426c0 -240 -221 -439 -459 -439c-190 0 -326 140 -326 326c0 236 215 440 460 440c193 0 325 -142 325 -327zM524 80c178 0 340 152 340 332c0 137 -95 247 -239 247c-181 0 -340 -158 -340 -333c0 -138 98 -246 239 -246zM810 924l30 -65c-36 -33 -76 -53 -114 -53
c-55 0 -92 41 -136 41c-25 0 -48 -13 -69 -30l-34 67c34 27 75 48 115 48c57 0 90 -41 134 -41c23 0 49 12 74 33z" />
    <glyph glyph-name="Odieresis" unicode="&#xd6;" horiz-adv-x="838" 
d="M967 426c0 -240 -221 -439 -459 -439c-190 0 -326 140 -326 326c0 236 215 440 460 440c193 0 325 -142 325 -327zM524 80c178 0 340 152 340 332c0 137 -95 247 -239 247c-181 0 -340 -158 -340 -333c0 -138 98 -246 239 -246zM561 806c-31 0 -52 23 -52 53
c0 39 35 70 74 70c31 0 51 -22 51 -51c0 -40 -33 -72 -73 -72zM743 806c-31 0 -52 23 -52 53c0 39 35 70 74 70c31 0 51 -22 51 -51c0 -40 -33 -72 -73 -72z" />
    <glyph glyph-name="Oslash" unicode="&#xd8;" horiz-adv-x="838" 
d="M319 -46l-68 34l48 66c-73 56 -117 153 -117 259c0 236 215 440 460 440c52 0 100 -11 141 -29l46 63l70 -35l-49 -67c74 -56 117 -153 117 -259c0 -240 -221 -439 -459 -439c-53 0 -102 10 -144 28zM524 80c178 0 340 152 340 331c0 75 -29 145 -76 188l-364 -500
c30 -12 63 -19 100 -19zM285 325c0 -74 28 -143 76 -185l361 500c-29 13 -61 19 -97 19c-181 0 -340 -158 -340 -334z" />
    <glyph glyph-name="ograve" unicode="&#xf2;" horiz-adv-x="580" 
d="M664 270c0 -152 -147 -283 -299 -283c-122 0 -209 94 -209 213c0 151 143 284 297 284c123 0 211 -95 211 -214zM567 259c0 74 -53 134 -129 134c-99 0 -186 -88 -186 -182c0 -73 53 -134 130 -134c98 0 185 87 185 182zM517 542l-193 112l61 84l190 -120z" />
    <glyph glyph-name="oacute" unicode="&#xf3;" horiz-adv-x="580" 
d="M664 270c0 -152 -147 -283 -299 -283c-122 0 -209 94 -209 213c0 151 143 284 297 284c123 0 211 -95 211 -214zM567 259c0 74 -53 134 -129 134c-99 0 -186 -88 -186 -182c0 -73 53 -134 130 -134c98 0 185 87 185 182zM627 656l-234 -114l-31 75l233 121z" />
    <glyph glyph-name="ocircumflex" unicode="&#xf4;" horiz-adv-x="580" 
d="M664 270c0 -152 -147 -283 -299 -283c-122 0 -209 94 -209 213c0 151 143 284 297 284c123 0 211 -95 211 -214zM567 259c0 74 -53 134 -129 134c-99 0 -186 -88 -186 -182c0 -73 53 -134 130 -134c98 0 185 87 185 182zM642 594l-63 -53l-96 112l-137 -112l-44 53
l162 137h66z" />
    <glyph glyph-name="otilde" unicode="&#xf5;" horiz-adv-x="580" 
d="M664 270c0 -152 -147 -283 -299 -283c-122 0 -209 94 -209 213c0 151 143 284 297 284c123 0 211 -95 211 -214zM567 259c0 74 -53 134 -129 134c-99 0 -186 -88 -186 -182c0 -73 53 -134 130 -134c98 0 185 87 185 182zM621 659l30 -65c-36 -33 -76 -53 -114 -53
c-55 0 -92 41 -136 41c-25 0 -48 -13 -69 -30l-34 67c34 27 75 48 115 48c57 0 90 -41 134 -41c23 0 49 12 74 33z" />
    <glyph glyph-name="odieresis" unicode="&#xf6;" horiz-adv-x="580" 
d="M664 270c0 -152 -147 -283 -299 -283c-122 0 -209 94 -209 213c0 151 143 284 297 284c123 0 211 -95 211 -214zM567 259c0 74 -53 134 -129 134c-99 0 -186 -88 -186 -182c0 -73 53 -134 130 -134c98 0 185 87 185 182zM372 541c-31 0 -52 23 -52 53c0 39 35 70 74 70
c31 0 51 -22 51 -51c0 -40 -33 -72 -73 -72zM554 541c-31 0 -52 23 -52 53c0 39 35 70 74 70c31 0 51 -22 51 -51c0 -40 -33 -72 -73 -72z" />
    <glyph glyph-name="oslash" unicode="&#xf8;" horiz-adv-x="580" 
d="M253 -82l-58 25l48 79c-54 36 -87 103 -87 177c0 152 143 285 297 285c22 0 44 -3 64 -10l48 80l59 -26l-50 -80c55 -37 90 -105 90 -179c0 -151 -147 -282 -299 -282c-23 0 -44 3 -65 9zM567 258c0 42 -17 81 -44 104l-171 -281c8 -2 16 -2 25 -2c97 0 190 76 190 179z
M252 212c0 -42 16 -80 43 -104l171 281c-6 2 -11 3 -26 3c-97 0 -188 -79 -188 -180z" />
    <glyph glyph-name="Scaron" unicode="&#x160;" horiz-adv-x="538" 
d="M80 112l77 71c32 -51 76 -103 157 -103c94 0 162 68 162 138c0 136 -286 99 -286 296c0 134 106 239 270 239c68 0 127 -19 180 -70l-71 -78c-35 36 -78 54 -130 54c-90 0 -143 -51 -143 -118c0 -139 285 -95 285 -297c0 -149 -122 -257 -280 -257
c-96 0 -178 43 -221 125zM647 943l-162 -137h-66l-112 137l63 53l96 -112l137 112z" />
    <glyph glyph-name="scaron" unicode="&#x161;" horiz-adv-x="433" 
d="M84 49l65 74c41 -39 90 -49 124 -49c57 0 90 26 90 61c0 80 -214 38 -214 178c0 97 81 171 192 171c40 0 105 -10 151 -54l-63 -71c-37 31 -78 37 -103 37c-53 0 -78 -28 -78 -56c0 -77 211 -43 211 -184c0 -102 -84 -169 -204 -169c-71 0 -129 25 -171 62zM552 678
l-162 -137h-66l-112 137l63 53l96 -112l137 112z" />
    <glyph glyph-name="Ugrave" unicode="&#xd9;" horiz-adv-x="787" 
d="M797 363l66 377h103l-73 -413c-40 -225 -189 -340 -373 -340c-183 0 -293 115 -253 340l73 413h102l-66 -377c-32 -182 15 -283 160 -283s229 101 261 283zM723 807l-193 112l61 84l190 -120z" />
    <glyph glyph-name="Uacute" unicode="&#xda;" horiz-adv-x="787" 
d="M797 363l66 377h103l-73 -413c-40 -225 -189 -340 -373 -340c-183 0 -293 115 -253 340l73 413h102l-66 -377c-32 -182 15 -283 160 -283s229 101 261 283zM844 921l-234 -114l-31 75l233 121z" />
    <glyph glyph-name="Ucircumflex" unicode="&#xdb;" horiz-adv-x="787" 
d="M797 363l66 377h103l-73 -413c-40 -225 -189 -340 -373 -340c-183 0 -293 115 -253 340l73 413h102l-66 -377c-32 -182 15 -283 160 -283s229 101 261 283zM843 859l-63 -53l-96 112l-137 -112l-44 53l162 137h66z" />
    <glyph glyph-name="Udieresis" unicode="&#xdc;" horiz-adv-x="787" 
d="M797 363l66 377h103l-73 -413c-40 -225 -189 -340 -373 -340c-183 0 -293 115 -253 340l73 413h102l-66 -377c-32 -182 15 -283 160 -283s229 101 261 283zM573 806c-31 0 -52 23 -52 53c0 39 35 70 74 70c31 0 51 -22 51 -51c0 -40 -33 -72 -73 -72zM755 806
c-31 0 -52 23 -52 53c0 39 35 70 74 70c31 0 51 -22 51 -51c0 -40 -33 -72 -73 -72z" />
    <glyph glyph-name="ugrave" unicode="&#xf9;" horiz-adv-x="575" 
d="M545 220l45 255h96l-50 -282c-26 -149 -119 -206 -252 -206s-206 57 -180 206l50 282h97l-45 -255c-16 -89 -4 -143 94 -143c99 0 129 54 145 143zM533 542l-193 112l61 84l190 -120z" />
    <glyph glyph-name="uacute" unicode="&#xfa;" horiz-adv-x="575" 
d="M545 220l45 255h96l-50 -282c-26 -149 -119 -206 -252 -206s-206 57 -180 206l50 282h97l-45 -255c-16 -89 -4 -143 94 -143c99 0 129 54 145 143zM663 656l-234 -114l-31 75l233 121z" />
    <glyph glyph-name="ucircumflex" unicode="&#xfb;" horiz-adv-x="575" 
d="M545 220l45 255h96l-50 -282c-26 -149 -119 -206 -252 -206s-206 57 -180 206l50 282h97l-45 -255c-16 -89 -4 -143 94 -143c99 0 129 54 145 143zM661 594l-63 -53l-96 112l-137 -112l-44 53l162 137h66z" />
    <glyph glyph-name="udieresis" unicode="&#xfc;" horiz-adv-x="575" 
d="M545 220l45 255h96l-50 -282c-26 -149 -119 -206 -252 -206s-206 57 -180 206l50 282h97l-45 -255c-16 -89 -4 -143 94 -143c99 0 129 54 145 143zM390 541c-31 0 -52 23 -52 53c0 39 35 70 74 70c31 0 51 -22 51 -51c0 -40 -33 -72 -73 -72zM572 541
c-31 0 -52 23 -52 53c0 39 35 70 74 70c31 0 51 -22 51 -51c0 -40 -33 -72 -73 -72z" />
    <glyph glyph-name="Yacute" unicode="&#xdd;" horiz-adv-x="644" 
d="M509 0h-102l58 333l-191 407h118l142 -306l253 306h116l-336 -406zM780 921l-234 -114l-31 75l233 121z" />
    <glyph glyph-name="Ydieresis" unicode="&#x178;" horiz-adv-x="644" 
d="M509 0h-102l58 333l-191 407h118l142 -306l253 306h116l-336 -406zM510 806c-31 0 -52 23 -52 53c0 39 35 70 74 70c31 0 51 -22 51 -51c0 -40 -33 -72 -73 -72zM692 806c-31 0 -52 23 -52 53c0 39 35 70 74 70c31 0 51 -22 51 -51c0 -40 -33 -72 -73 -72z" />
    <glyph glyph-name="yacute" unicode="&#xfd;" horiz-adv-x="485" 
d="M239 -253h-95l130 244l-109 484h105l73 -357l191 357h96zM598 656l-234 -114l-31 75l233 121z" />
    <glyph glyph-name="Ydieresis" unicode="&#xff;" horiz-adv-x="485" 
d="M239 -253h-95l130 244l-109 484h105l73 -357l191 357h96zM327 541c-31 0 -52 23 -52 53c0 39 35 70 74 70c31 0 51 -22 51 -51c0 -40 -33 -72 -73 -72zM509 541c-31 0 -52 23 -52 53c0 39 35 70 74 70c31 0 51 -22 51 -51c0 -40 -33 -72 -73 -72z" />
    <glyph glyph-name="Zcaron" unicode="&#x17d;" horiz-adv-x="658" 
d="M655 0h-575l17 96l541 547h-434l17 97h563l-17 -97l-540 -547h445zM705 943l-162 -137h-66l-112 137l63 53l96 -112l137 112z" />
    <glyph glyph-name="zcaron" unicode="&#x17e;" horiz-adv-x="476" 
d="M476 0h-376l16 88l305 296h-253l16 91h376l-16 -88l-304 -297h252zM577 678l-162 -137h-66l-112 137l63 53l96 -112l137 112z" />
    </font>
</defs>
</svg>
