<svg id="Calque_1" data-name="Calque 1" xmlns="http://www.w3.org/2000/svg" viewBox="0 0 1650.05 2189.42">
  <g style="opacity: 0.30000001192092896">
    <path d="M1277.69,1643.54a43.66,43.66,0,0,1-1.92,12.89c-.23.65-.44,1.28-.67,1.93a43,43,0,0,1-3.45,7.29v0c-.52.86-1.07,1.7-1.63,2.53s-1.24,1.72-1.91,2.55c0,0,0,0,0,0l-6.35,6.39-.25.23-28.2,28.37a43.17,43.17,0,0,1-29.13,12.67h-3.28l-56.34-.08-192.14,72.3L753.84,2161.44a4.23,4.23,0,0,0-.25.42,43.37,43.37,0,0,1-38.05,22.56H323.78a42.14,42.14,0,0,1-7.52-.67l83.56-27.16.57-.19L548,2063.3s123-44.51,124-45.16l125.17-80.43,117.1-187.32,188.1-141.1,1.27-1a43.35,43.35,0,0,1,25.42-8.2h105.29a43.41,43.41,0,0,1,41.46,30.56A42.74,42.74,0,0,1,1277.69,1643.54Z" transform="translate(0 0)" style="fill: none;stroke: #e7e7e7;stroke-width: 10px"/>
    <path d="M1645.05,1093.71v18.48a43.48,43.48,0,0,1-24.45,39.08l-.54.19-6.38,2.42-.21.1-142.64,53.65L1314,1364l-5.27,5.27a43.36,43.36,0,0,1-14.65,8.07l-2.4.71a.17.17,0,0,0-.1,0l-218.33,89.12c-.52.13-1,.29-1.55.44a43.52,43.52,0,0,0-26.13,22.35l-.73,2c-.51,1.2-1,2.45-1.4,3.72l-.78,2.09-24.08,64c-.06.17-.13.32-.19.5a43.58,43.58,0,0,1-25.72,25.53l-88.5,21.81c-.58.19-1.14.4-1.69.63a43.67,43.67,0,0,0-23.81,23.1s0,.06,0,.08L761.9,1905.57,658.16,1997.5l-118.58,43.55-.48.18-147.4,93L297.15,2165a44.36,44.36,0,0,1-8.28-6.34l-90-90A43.3,43.3,0,0,0,168.16,2056H96.64a43.43,43.43,0,0,1-40-26.42.17.17,0,0,1-.06-.1l-1.15-3.14-47.63-127-.56-1.46A42.22,42.22,0,0,1,5,1886.9V1407.15a43.24,43.24,0,0,1,12.5-30.5l21.35-21.36a43.13,43.13,0,0,0,12.52-30.5V943.56A43.41,43.41,0,0,1,79.15,906.7l.84-.3,73-27.3a43.39,43.39,0,0,0,28.5-40.7V609.55a43.19,43.19,0,0,0-11.27-28.48c-.07-.08-.11-.15-.19-.23-.8-.86-1.63-1.69-2.47-2.45a2.44,2.44,0,0,0-.29-.27L100,510.78l-.27-.27-2.47-2.45-.21-.23A43.09,43.09,0,0,1,85.81,479V443.59A43.25,43.25,0,0,1,97.56,415l1.88-1.88,29.31-29.32.4-.4a43,43,0,0,0,12.38-27.53c.08-1,.12-1.95.12-2.95s0-2-.12-3V48.42A43.42,43.42,0,0,1,184.93,5H341.48A43.3,43.3,0,0,1,370.2,15.87l1,.94L514.48,147.46l.27.23a43.11,43.11,0,0,0,28,11.16c.37,0,.71,0,1.1,0s.76,0,1.15,0l33.14,0h4.31a43.39,43.39,0,0,1,41.14,42.92v.88l-.08,115.51v1.51a43.14,43.14,0,0,0,12.38,29.66l.64.63a43,43,0,0,0,13.13,8.83l2.64,1,1.3.5,145.38,54.68a43.52,43.52,0,0,0,55.74-25.85l36.69-97.51.8-2.13a3.93,3.93,0,0,1,.2-.54,43.43,43.43,0,0,1,79.91-.19l1.24,3.28,63.89,170.29s0,0,0,0c.21.52.4,1,.6,1.55l2,5.43,24.15,29.82,1.92,2.36s0,0,0,.06a43.21,43.21,0,0,1,8.6,25.91V665.64l12.39,12.4q.34.32.63.63L1159.09,750l0,61.3a44.39,44.39,0,0,1-.52,6.61v0c-.15,1-.37,1.92-.56,2.86a2.64,2.64,0,0,1-.15.55c-.17.86-.4,1.69-.65,2.53l-.12.35c-.15.48-.29.94-.44,1.4l.12-.46c-.16.52-.35,1-.52,1.53s-.4,1-.6,1.52-.55,1.28-.84,1.9-.63,1.28-1,1.9l-4.66,6.9a37.31,37.31,0,0,1-2.81,3.08l-3.44,3.09a11.67,11.67,0,0,1-1.3,1c-.53.42-1.09.8-1.68,1.2l-1.73,1.14c-.38.21-.71.42-1.07.59l-3.7,1.88c-.56.27-1.09.5-1.65.71-.4.17-.77.32-1.19.46h0c-.67.25-1.3.48-2,.69a40.07,40.07,0,0,1-6.31,1.45l-6.61.5H968.7a43.39,43.39,0,0,0-30,12.08l-1.28,1.3-22.76,22.74c-.38.36-.72.73-1.07,1.09a43.41,43.41,0,0,0-9.87,44.16,25.38,25.38,0,0,0,1.05,2.84l0,.06L1007,1210.36a43.46,43.46,0,0,0,40.79,28.48h133.56l405-185.78a42.88,42.88,0,0,1,34.12,1.53c.63.31,1.26.64,1.87,1s1.23.69,1.82,1.06,1.15.71,1.71,1.07l.06,0a.2.2,0,0,0,.1.08c.54.36,1.07.74,1.61,1.15s.82.63,1.23,1c0,0,0,0,0,0l.67.58c.2.15.37.3.56.46s.58.5.84.76l.83.79c.11.12.23.21.34.33l.33.32c.82.83,1.63,1.69,2.38,2.59.57.65,1.11,1.34,1.63,2s.8,1.11,1.18,1.67.77,1.17,1.14,1.76c.55.9,1.07,1.8,1.53,2.75a44,44,0,0,1,3,7.34c.15.51.29,1,.42,1.55.17.71.35,1.42.48,2.13s.27,1.42.39,2.13c.21,1.41.36,2.83.44,4.29C1645,1092.16,1645.05,1092.92,1645.05,1093.71Z" transform="translate(0 0)" style="fill: none;stroke: #e7e7e7;stroke-width: 10px"/>
  </g>
</svg>
