<svg id="map" data-name="map" xmlns="http://www.w3.org/2000/svg" viewBox="0 0 1436.93 1907.96">
  <g>
    <g>
      <path d="M765.64,1681.45,689.2,1824.19H684l-38.44,0v-11.75l22.56-60.14h-30l-16.73-16.73L695.48,1688l16.65-26.63Z" transform="translate(0 0)" style="fill: none;stroke: #008884;stroke-width: 9px"/>
      <path d="M555.57,1769.4l28.67,76.44-9.42,9.41v47.52H283.19a36.81,36.81,0,0,1-6.54-.58l72.78-23.66.5-.17,128.52-81.09Z" transform="translate(0 0)" style="fill: none;stroke: #008884;stroke-width: 9px"/>
      <path d="M719.53,362.65V578.93H562.81v300.9L311.73,1365.67H5.54V1225.81a37.68,37.68,0,0,1,10.88-26.57l18.6-18.6a37.53,37.53,0,0,0,10.9-26.56V822a37.81,37.81,0,0,1,24.19-32.1l.74-.27,63.56-23.78a37.79,37.79,0,0,0,24.83-35.44V531.08a37.7,37.7,0,0,0-9.82-24.81l-.16-.2c-.7-.75-1.42-1.47-2.16-2.14a2.73,2.73,0,0,0-.25-.23L88.28,445.05l-.23-.24-2.15-2.13a1.8,1.8,0,0,0-.19-.2,37.57,37.57,0,0,1-9.78-25.11V386.53a37.66,37.66,0,0,1,10.23-24.91L87.8,360l25.53-25.54.35-.35a37.44,37.44,0,0,0,10.78-24c.07-.85.1-1.7.1-2.57s0-1.74-.1-2.59V42.32A37.82,37.82,0,0,1,162.26,4.5H298.62a37.67,37.67,0,0,1,25,9.47l.9.82L449.3,128.59l.24.2a37.62,37.62,0,0,0,24.36,9.71c.31,0,.61,0,1,0s.67,0,1,0l28.87,0h3.75a37.78,37.78,0,0,1,35.83,37.38v.77l-.06,100.61v1.32A37.54,37.54,0,0,0,555,304.38l.55.55a37.72,37.72,0,0,0,11.44,7.7l2.3.87,1.14.43,126.62,47.64a37.93,37.93,0,0,0,22.46,1.08Z" transform="translate(0 0)" style="fill: none;stroke: #008884;stroke-width: 9px"/>
      <path d="M247.87,1365.68v179.26l-95.74,79.38v166.87a35.16,35.16,0,0,0-4.47-.26H85.36a37.83,37.83,0,0,1-34.81-23,.22.22,0,0,1,0-.08l-1-2.74L8,1654.49l-.48-1.27a37,37,0,0,1-2-9.53v-278Z" transform="translate(0 0)" style="fill: none;stroke: #008884;stroke-width: 9px"/>
      <path d="M953.49,1476.86l-59.07,59.07-63.68,24-65.1,121.56-53.51-20.13,85.35-136.53L914,1437.39Z" transform="translate(0 0)" style="fill: none;stroke: #008884;stroke-width: 9px"/>
      <path d="M588.71,1727.41,574.45,1740,472.3,1778.53l-48.61-128.81L407,1605.49v0l-32.84-12.3-126.37-47.38.12-180.15h63.2l147.33,147.77,115.57.22,0,75L541.23,1601Z" transform="translate(0 0)" style="fill: none;stroke: #008884;stroke-width: 9px"/>
      <path d="M743.62,1476l-78.81,184-76.09,67.4L541.36,1601l33.06-12.53v-.6l-.66-74.24,116.69-.74L704.32,1476Z" transform="translate(0 0)" style="fill: none;stroke: #008884;stroke-width: 9px"/>
      <path d="M472.28,1778.52l-.95.35-.33.12L422,1810l-42.86-114.21,17.07-45.08-21.8-57.53,32.84,12.32,16.64,44.23Z" transform="translate(0 0)" style="fill: none;stroke: #008884;stroke-width: 9px"/>
      <path d="M689.07,1824.3l-31.4,58.63c-.07.12-.15.24-.22.37A37.79,37.79,0,0,1,624.31,1903h-49.6v-47.51l9.41-9.42.09.22,21.64-21.79,16.7,0,61.27-.08Z" transform="translate(0 0)" style="fill: none;stroke: #008884;stroke-width: 9px"/>
      <path d="M668.09,1752.35l-22.56,60.14v11.74l-22.83.08-16.81,0-21.6,21.6-28.67-76.43,30.5-11.15L619.23,1737l2.1-1.35,16.73,16.73Z" transform="translate(0 0)" style="fill: none;stroke: #008884;stroke-width: 9px"/>
    </g>
    <g style="opacity: 0.30000001192092896">
      <path d="M1112.3,1432.37a38,38,0,0,1-1.66,11.2l-.59,1.69a37.47,37.47,0,0,1-3,6.34h0c-.45.75-.93,1.49-1.41,2.2s-1.09,1.5-1.67,2.22c0,0,0,0,0,0l-5.52,5.55-.21.21-24.54,24.68a37.52,37.52,0,0,1-25.35,11h-2.85l-49-.07-167.18,62.91L656.53,1883c-.07.11-.15.23-.22.36a37.74,37.74,0,0,1-33.1,19.63H282.35a36.81,36.81,0,0,1-6.54-.58l72.7-23.63.5-.17,128.38-81s107-38.72,107.87-39.29l108.9-70,101.89-163,163.66-122.77c.36-.29.73-.57,1.1-.84a37.65,37.65,0,0,1,22.11-7.14h91.61a37.76,37.76,0,0,1,36.07,26.59A36.9,36.9,0,0,1,1112.3,1432.37Z" transform="translate(0 0)" style="fill: none;stroke: #051c2f;stroke-width: 10px"/>
      <path d="M1431.93,954v16.08a37.84,37.84,0,0,1-21.28,34l-.47.16-5.55,2.1-.19.09-124.1,46.68-136.45,136-4.59,4.59a37.78,37.78,0,0,1-12.74,7l-2.08.61-.09,0-190,77.54-1.35.38a37.88,37.88,0,0,0-22.74,19.45l-.63,1.7c-.45,1-.87,2.13-1.22,3.23l-.68,1.82-21,55.69c0,.15-.11.28-.16.43a37.91,37.91,0,0,1-22.39,22.22l-77,19c-.5.17-1,.35-1.46.56a38,38,0,0,0-20.72,20.1s0,0,0,.06L663.54,1660.35l-90.25,80-103.17,37.89-.42.15-128.25,80.92-82.27,26.77a39,39,0,0,1-7.2-5.52l-78.3-78.3A37.69,37.69,0,0,0,147,1791.18H84.74a37.78,37.78,0,0,1-34.77-23,.14.14,0,0,1,0-.08l-1-2.74L7.47,1654.89,7,1653.62a36.85,36.85,0,0,1-2-9.52V1226.7a37.66,37.66,0,0,1,10.87-26.54l18.58-18.58a37.49,37.49,0,0,0,10.89-26.53V823.35a37.78,37.78,0,0,1,24.17-32.07l.73-.27,63.5-23.75a37.77,37.77,0,0,0,24.8-35.41V532.75A37.65,37.65,0,0,0,148.73,508c-.07-.07-.1-.14-.17-.2-.7-.75-1.42-1.47-2.15-2.14a2.73,2.73,0,0,0-.25-.23l-58.5-58.59-.24-.23-2.15-2.14c0-.07-.12-.13-.18-.2a37.48,37.48,0,0,1-9.77-25.08v-30.8a37.56,37.56,0,0,1,10.22-24.88l1.63-1.64,25.5-25.52L113,336A37.37,37.37,0,0,0,123.8,312c.06-.86.1-1.7.1-2.57s0-1.74-.1-2.59V44.53A37.75,37.75,0,0,1,161.56,6.76h136.2a37.62,37.62,0,0,1,25,9.45l.9.82L448.27,130.7c.07.05.15.14.23.2a37.58,37.58,0,0,0,24.34,9.71h1a8.41,8.41,0,0,0,1,0h32.58a37.73,37.73,0,0,1,35.79,37.34v.76l-.06,100.5v1.32a37.5,37.5,0,0,0,10.77,25.8l.55.55a37.71,37.71,0,0,0,11.43,7.69l2.3.86,1.13.44,126.48,47.58a37.87,37.87,0,0,0,48.5-22.5l31.92-84.84.7-1.85a3,3,0,0,1,.17-.47,37.79,37.79,0,0,1,69.53-.16l1.08,2.85,55.59,148.16s0,0,0,0q.27.68.51,1.35l1.79,4.72,21,25.95,1.67,2.05s0,0,0,0a37.55,37.55,0,0,1,7.48,22.54V581.54l10.78,10.79c.2.19.38.37.55.56l62.05,62.05,0,53.34a38.2,38.2,0,0,1-.45,5.75v0c-.13.84-.32,1.67-.48,2.49a2,2,0,0,1-.14.48c-.15.75-.35,1.47-.56,2.2l-.1.3c-.14.42-.25.82-.39,1.22l.1-.4c-.13.45-.3.9-.45,1.33s-.35.88-.51,1.32-.49,1.12-.74,1.65-.55,1.12-.87,1.65l-4,6A32.83,32.83,0,0,1,998,735l-3,2.68a10.9,10.9,0,0,1-1.14.89c-.46.36-1,.7-1.46,1.05l-1.5,1c-.34.18-.62.37-.94.52l-3.22,1.63c-.48.23-1,.43-1.43.62s-.67.28-1,.4h0c-.59.21-1.14.42-1.75.6a35.81,35.81,0,0,1-5.49,1.27l-5.75.43H843.46a37.65,37.65,0,0,0-26.13,10.51l-1.12,1.13-19.8,19.78c-.33.32-.63.63-.93.95a37.78,37.78,0,0,0-8.59,38.43,19.67,19.67,0,0,0,.92,2.46v0l89,236.09a37.82,37.82,0,0,0,35.49,24.78h116.21L1380.84,918.6a37.33,37.33,0,0,1,29.69,1.34c.55.27,1.1.55,1.63.83s1.07.6,1.59.92,1,.62,1.48.93l0,0a.16.16,0,0,0,.08.06c.47.32.94.65,1.4,1s.72.55,1.07.84h0l.59.5c.16.14.31.27.48.4s.5.44.73.67l.72.68.3.29.28.28c.72.72,1.42,1.47,2.07,2.25.5.57,1,1.17,1.42,1.77s.7,1,1,1.45.67,1,1,1.54c.48.78.93,1.57,1.33,2.38a39.68,39.68,0,0,1,2.57,6.39c.13.45.25.9.37,1.35.15.62.3,1.24.41,1.85s.24,1.24.34,1.85c.18,1.24.31,2.47.38,3.74C1431.91,952.64,1431.93,953.3,1431.93,954Z" transform="translate(0 0)" style="fill: none;stroke: #051c2f;stroke-width: 10px"/>
    </g>
  </g>
</svg>
