<svg xmlns="http://www.w3.org/2000/svg" width="222.583" height="257.489" viewBox="0 0 222.583 257.489">
  <g id="Groupe_756" data-name="Groupe 756" transform="translate(-832 -3488.201)">
    <g id="Groupe_415" data-name="Groupe 415" transform="translate(832 3488.201)">
      <g id="Groupe_397" data-name="Groupe 397" transform="translate(0 0)">
        <path id="Tracé_168" data-name="Tracé 168" d="M17.975,15.24a2.836,2.836,0,0,1-3.914.708l-4.932-2.84,0-.008L4.214,15.963A2.838,2.838,0,0,1,.3,15.291v0a2.835,2.835,0,0,1,1.353-3.739c.116-.064,4.564-2.625,4.911-2.824v.013H6.6l-.016-.027-.022.014V3.048A2.833,2.833,0,0,1,9.112,0a2.833,2.833,0,0,1,2.553,3.048c0,.132-.024,5.167-.027,5.654l-.021.037h.021V8.7l0-.006,4.946,2.816A2.837,2.837,0,0,1,17.975,15.24Z" transform="translate(0 4.744)" fill="#eaeaea"/>
        <path id="Tracé_222" data-name="Tracé 222" d="M17.975,15.24a2.836,2.836,0,0,1-3.914.708l-4.932-2.84,0-.008L4.214,15.963A2.838,2.838,0,0,1,.3,15.291v0a2.835,2.835,0,0,1,1.353-3.739c.116-.064,4.564-2.625,4.911-2.824v.013H6.6l-.016-.027-.022.014V3.048A2.833,2.833,0,0,1,9.112,0a2.833,2.833,0,0,1,2.553,3.048c0,.132-.024,5.167-.027,5.654l-.021.037h.021V8.7l0-.006,4.946,2.816A2.837,2.837,0,0,1,17.975,15.24Z" transform="matrix(-0.309, -0.951, 0.951, -0.309, 84.589, 57.074)" fill="#eaeaea" opacity="0.9"/>
        <path id="Tracé_220" data-name="Tracé 220" d="M17.975,15.24a2.836,2.836,0,0,1-3.914.708l-4.932-2.84,0-.008L4.214,15.963A2.838,2.838,0,0,1,.3,15.291v0a2.835,2.835,0,0,1,1.353-3.739c.116-.064,4.564-2.625,4.911-2.824v.013H6.6l-.016-.027-.022.014V3.048A2.833,2.833,0,0,1,9.112,0a2.833,2.833,0,0,1,2.553,3.048c0,.132-.024,5.167-.027,5.654l-.021.037h.021V8.7l0-.006,4.946,2.816A2.837,2.837,0,0,1,17.975,15.24Z" transform="translate(37.576 13.57) rotate(-48)" fill="#eaeaea" opacity="0.9"/>
        <path id="Tracé_223" data-name="Tracé 223" d="M17.975,15.24a2.836,2.836,0,0,1-3.914.708l-4.932-2.84,0-.008L4.214,15.963A2.838,2.838,0,0,1,.3,15.291v0a2.835,2.835,0,0,1,1.353-3.739c.116-.064,4.564-2.625,4.911-2.824v.013H6.6l-.016-.027-.022.014V3.048A2.833,2.833,0,0,1,9.112,0a2.833,2.833,0,0,1,2.553,3.048c0,.132-.024,5.167-.027,5.654l-.021.037h.021V8.7l0-.006,4.946,2.816A2.837,2.837,0,0,1,17.975,15.24Z" transform="matrix(-0.94, 0.342, -0.342, -0.94, 60.313, 51.132)" fill="#eaeaea" opacity="0.6"/>
        <path id="Tracé_221" data-name="Tracé 221" d="M17.975,15.24a2.836,2.836,0,0,1-3.914.708l-4.932-2.84,0-.008L4.214,15.963A2.838,2.838,0,0,1,.3,15.291v0a2.835,2.835,0,0,1,1.353-3.739c.116-.064,4.564-2.625,4.911-2.824v.013H6.6l-.016-.027-.022.014V3.048A2.833,2.833,0,0,1,9.112,0a2.833,2.833,0,0,1,2.553,3.048c0,.132-.024,5.167-.027,5.654l-.021.037h.021V8.7l0-.006,4.946,2.816A2.837,2.837,0,0,1,17.975,15.24Z" transform="translate(81.958 21.253) rotate(-89)" fill="#eaeaea" opacity="0.4"/>
        <path id="Tracé_224" data-name="Tracé 224" d="M17.975,15.24a2.836,2.836,0,0,1-3.914.708l-4.932-2.84,0-.008L4.214,15.963A2.838,2.838,0,0,1,.3,15.291v0a2.835,2.835,0,0,1,1.353-3.739c.116-.064,4.564-2.625,4.911-2.824v.013H6.6l-.016-.027-.022.014V3.048A2.833,2.833,0,0,1,9.112,0a2.833,2.833,0,0,1,2.553,3.048c0,.132-.024,5.167-.027,5.654l-.021.037h.021V8.7l0-.006,4.946,2.816A2.837,2.837,0,0,1,17.975,15.24Z" transform="translate(16.759 37.563) rotate(91)" fill="#eaeaea" opacity="0.3"/>
      </g>
      <g id="Groupe_405" data-name="Groupe 405" transform="translate(0 135.904)">
        <path id="Tracé_168-2" data-name="Tracé 168" d="M17.975,15.24a2.836,2.836,0,0,1-3.914.708l-4.932-2.84,0-.008L4.214,15.963A2.838,2.838,0,0,1,.3,15.291v0a2.835,2.835,0,0,1,1.353-3.739c.116-.064,4.564-2.625,4.911-2.824v.013H6.6l-.016-.027-.022.014V3.048A2.833,2.833,0,0,1,9.112,0a2.833,2.833,0,0,1,2.553,3.048c0,.132-.024,5.167-.027,5.654l-.021.037h.021V8.7l0-.006,4.946,2.816A2.837,2.837,0,0,1,17.975,15.24Z" transform="translate(0 4.744)" fill="#eaeaea"/>
        <path id="Tracé_222-2" data-name="Tracé 222" d="M17.975,15.24a2.836,2.836,0,0,1-3.914.708l-4.932-2.84,0-.008L4.214,15.963A2.838,2.838,0,0,1,.3,15.291v0a2.835,2.835,0,0,1,1.353-3.739c.116-.064,4.564-2.625,4.911-2.824v.013H6.6l-.016-.027-.022.014V3.048A2.833,2.833,0,0,1,9.112,0a2.833,2.833,0,0,1,2.553,3.048c0,.132-.024,5.167-.027,5.654l-.021.037h.021V8.7l0-.006,4.946,2.816A2.837,2.837,0,0,1,17.975,15.24Z" transform="matrix(-0.309, -0.951, 0.951, -0.309, 84.589, 57.074)" fill="#eaeaea" opacity="0.9"/>
        <path id="Tracé_220-2" data-name="Tracé 220" d="M17.975,15.24a2.836,2.836,0,0,1-3.914.708l-4.932-2.84,0-.008L4.214,15.963A2.838,2.838,0,0,1,.3,15.291v0a2.835,2.835,0,0,1,1.353-3.739c.116-.064,4.564-2.625,4.911-2.824v.013H6.6l-.016-.027-.022.014V3.048A2.833,2.833,0,0,1,9.112,0a2.833,2.833,0,0,1,2.553,3.048c0,.132-.024,5.167-.027,5.654l-.021.037h.021V8.7l0-.006,4.946,2.816A2.837,2.837,0,0,1,17.975,15.24Z" transform="translate(37.576 13.57) rotate(-48)" fill="#eaeaea" opacity="0.9"/>
        <path id="Tracé_223-2" data-name="Tracé 223" d="M17.975,15.24a2.836,2.836,0,0,1-3.914.708l-4.932-2.84,0-.008L4.214,15.963A2.838,2.838,0,0,1,.3,15.291v0a2.835,2.835,0,0,1,1.353-3.739c.116-.064,4.564-2.625,4.911-2.824v.013H6.6l-.016-.027-.022.014V3.048A2.833,2.833,0,0,1,9.112,0a2.833,2.833,0,0,1,2.553,3.048c0,.132-.024,5.167-.027,5.654l-.021.037h.021V8.7l0-.006,4.946,2.816A2.837,2.837,0,0,1,17.975,15.24Z" transform="matrix(-0.94, 0.342, -0.342, -0.94, 60.313, 51.132)" fill="#eaeaea" opacity="0.6"/>
        <path id="Tracé_221-2" data-name="Tracé 221" d="M17.975,15.24a2.836,2.836,0,0,1-3.914.708l-4.932-2.84,0-.008L4.214,15.963A2.838,2.838,0,0,1,.3,15.291v0a2.835,2.835,0,0,1,1.353-3.739c.116-.064,4.564-2.625,4.911-2.824v.013H6.6l-.016-.027-.022.014V3.048A2.833,2.833,0,0,1,9.112,0a2.833,2.833,0,0,1,2.553,3.048c0,.132-.024,5.167-.027,5.654l-.021.037h.021V8.7l0-.006,4.946,2.816A2.837,2.837,0,0,1,17.975,15.24Z" transform="translate(81.958 21.253) rotate(-89)" fill="#eaeaea" opacity="0.4"/>
        <path id="Tracé_224-2" data-name="Tracé 224" d="M17.975,15.24a2.836,2.836,0,0,1-3.914.708l-4.932-2.84,0-.008L4.214,15.963A2.838,2.838,0,0,1,.3,15.291v0a2.835,2.835,0,0,1,1.353-3.739c.116-.064,4.564-2.625,4.911-2.824v.013H6.6l-.016-.027-.022.014V3.048A2.833,2.833,0,0,1,9.112,0a2.833,2.833,0,0,1,2.553,3.048c0,.132-.024,5.167-.027,5.654l-.021.037h.021V8.7l0-.006,4.946,2.816A2.837,2.837,0,0,1,17.975,15.24Z" transform="translate(16.759 37.563) rotate(91)" fill="#eaeaea" opacity="0.3"/>
      </g>
      <g id="Groupe_399" data-name="Groupe 399" transform="translate(0 64.207)">
        <path id="Tracé_168-3" data-name="Tracé 168" d="M17.975,15.24a2.836,2.836,0,0,1-3.914.708l-4.932-2.84,0-.008L4.214,15.963A2.838,2.838,0,0,1,.3,15.291v0a2.835,2.835,0,0,1,1.353-3.739c.116-.064,4.564-2.625,4.911-2.824v.013H6.6l-.016-.027-.022.014V3.048A2.833,2.833,0,0,1,9.112,0a2.833,2.833,0,0,1,2.553,3.048c0,.132-.024,5.167-.027,5.654l-.021.037h.021V8.7l0-.006,4.946,2.816A2.837,2.837,0,0,1,17.975,15.24Z" transform="translate(0 4.744)" fill="#eaeaea"/>
        <path id="Tracé_222-3" data-name="Tracé 222" d="M17.975,15.24a2.836,2.836,0,0,1-3.914.708l-4.932-2.84,0-.008L4.214,15.963A2.838,2.838,0,0,1,.3,15.291v0a2.835,2.835,0,0,1,1.353-3.739c.116-.064,4.564-2.625,4.911-2.824v.013H6.6l-.016-.027-.022.014V3.048A2.833,2.833,0,0,1,9.112,0a2.833,2.833,0,0,1,2.553,3.048c0,.132-.024,5.167-.027,5.654l-.021.037h.021V8.7l0-.006,4.946,2.816A2.837,2.837,0,0,1,17.975,15.24Z" transform="matrix(-0.309, -0.951, 0.951, -0.309, 84.589, 57.074)" fill="#eaeaea" opacity="0.9"/>
        <path id="Tracé_220-3" data-name="Tracé 220" d="M17.975,15.24a2.836,2.836,0,0,1-3.914.708l-4.932-2.84,0-.008L4.214,15.963A2.838,2.838,0,0,1,.3,15.291v0a2.835,2.835,0,0,1,1.353-3.739c.116-.064,4.564-2.625,4.911-2.824v.013H6.6l-.016-.027-.022.014V3.048A2.833,2.833,0,0,1,9.112,0a2.833,2.833,0,0,1,2.553,3.048c0,.132-.024,5.167-.027,5.654l-.021.037h.021V8.7l0-.006,4.946,2.816A2.837,2.837,0,0,1,17.975,15.24Z" transform="translate(37.576 13.57) rotate(-48)" fill="#eaeaea" opacity="0.9"/>
        <path id="Tracé_223-3" data-name="Tracé 223" d="M17.975,15.24a2.836,2.836,0,0,1-3.914.708l-4.932-2.84,0-.008L4.214,15.963A2.838,2.838,0,0,1,.3,15.291v0a2.835,2.835,0,0,1,1.353-3.739c.116-.064,4.564-2.625,4.911-2.824v.013H6.6l-.016-.027-.022.014V3.048A2.833,2.833,0,0,1,9.112,0a2.833,2.833,0,0,1,2.553,3.048c0,.132-.024,5.167-.027,5.654l-.021.037h.021V8.7l0-.006,4.946,2.816A2.837,2.837,0,0,1,17.975,15.24Z" transform="matrix(-0.94, 0.342, -0.342, -0.94, 60.313, 51.132)" fill="#eaeaea" opacity="0.6"/>
        <path id="Tracé_221-3" data-name="Tracé 221" d="M17.975,15.24a2.836,2.836,0,0,1-3.914.708l-4.932-2.84,0-.008L4.214,15.963A2.838,2.838,0,0,1,.3,15.291v0a2.835,2.835,0,0,1,1.353-3.739c.116-.064,4.564-2.625,4.911-2.824v.013H6.6l-.016-.027-.022.014V3.048A2.833,2.833,0,0,1,9.112,0a2.833,2.833,0,0,1,2.553,3.048c0,.132-.024,5.167-.027,5.654l-.021.037h.021V8.7l0-.006,4.946,2.816A2.837,2.837,0,0,1,17.975,15.24Z" transform="translate(81.958 21.253) rotate(-89)" fill="#eaeaea" opacity="0.4"/>
        <path id="Tracé_224-3" data-name="Tracé 224" d="M17.975,15.24a2.836,2.836,0,0,1-3.914.708l-4.932-2.84,0-.008L4.214,15.963A2.838,2.838,0,0,1,.3,15.291v0a2.835,2.835,0,0,1,1.353-3.739c.116-.064,4.564-2.625,4.911-2.824v.013H6.6l-.016-.027-.022.014V3.048A2.833,2.833,0,0,1,9.112,0a2.833,2.833,0,0,1,2.553,3.048c0,.132-.024,5.167-.027,5.654l-.021.037h.021V8.7l0-.006,4.946,2.816A2.837,2.837,0,0,1,17.975,15.24Z" transform="translate(16.759 37.563) rotate(91)" fill="#eaeaea" opacity="0.3"/>
      </g>
      <g id="Groupe_407" data-name="Groupe 407" transform="translate(0 200.111)">
        <path id="Tracé_168-4" data-name="Tracé 168" d="M17.975,15.24a2.836,2.836,0,0,1-3.914.708l-4.932-2.84,0-.008L4.214,15.963A2.838,2.838,0,0,1,.3,15.291v0a2.835,2.835,0,0,1,1.353-3.739c.116-.064,4.564-2.625,4.911-2.824v.013H6.6l-.016-.027-.022.014V3.048A2.833,2.833,0,0,1,9.112,0a2.833,2.833,0,0,1,2.553,3.048c0,.132-.024,5.167-.027,5.654l-.021.037h.021V8.7l0-.006,4.946,2.816A2.837,2.837,0,0,1,17.975,15.24Z" transform="translate(0 4.744)" fill="#eaeaea"/>
        <path id="Tracé_222-4" data-name="Tracé 222" d="M17.975,15.24a2.836,2.836,0,0,1-3.914.708l-4.932-2.84,0-.008L4.214,15.963A2.838,2.838,0,0,1,.3,15.291v0a2.835,2.835,0,0,1,1.353-3.739c.116-.064,4.564-2.625,4.911-2.824v.013H6.6l-.016-.027-.022.014V3.048A2.833,2.833,0,0,1,9.112,0a2.833,2.833,0,0,1,2.553,3.048c0,.132-.024,5.167-.027,5.654l-.021.037h.021V8.7l0-.006,4.946,2.816A2.837,2.837,0,0,1,17.975,15.24Z" transform="matrix(-0.309, -0.951, 0.951, -0.309, 84.589, 57.074)" fill="#eaeaea" opacity="0.9"/>
        <path id="Tracé_220-4" data-name="Tracé 220" d="M17.975,15.24a2.836,2.836,0,0,1-3.914.708l-4.932-2.84,0-.008L4.214,15.963A2.838,2.838,0,0,1,.3,15.291v0a2.835,2.835,0,0,1,1.353-3.739c.116-.064,4.564-2.625,4.911-2.824v.013H6.6l-.016-.027-.022.014V3.048A2.833,2.833,0,0,1,9.112,0a2.833,2.833,0,0,1,2.553,3.048c0,.132-.024,5.167-.027,5.654l-.021.037h.021V8.7l0-.006,4.946,2.816A2.837,2.837,0,0,1,17.975,15.24Z" transform="translate(37.576 13.57) rotate(-48)" fill="#eaeaea" opacity="0.9"/>
        <path id="Tracé_223-4" data-name="Tracé 223" d="M17.975,15.24a2.836,2.836,0,0,1-3.914.708l-4.932-2.84,0-.008L4.214,15.963A2.838,2.838,0,0,1,.3,15.291v0a2.835,2.835,0,0,1,1.353-3.739c.116-.064,4.564-2.625,4.911-2.824v.013H6.6l-.016-.027-.022.014V3.048A2.833,2.833,0,0,1,9.112,0a2.833,2.833,0,0,1,2.553,3.048c0,.132-.024,5.167-.027,5.654l-.021.037h.021V8.7l0-.006,4.946,2.816A2.837,2.837,0,0,1,17.975,15.24Z" transform="matrix(-0.94, 0.342, -0.342, -0.94, 60.313, 51.132)" fill="#eaeaea" opacity="0.6"/>
        <path id="Tracé_221-4" data-name="Tracé 221" d="M17.975,15.24a2.836,2.836,0,0,1-3.914.708l-4.932-2.84,0-.008L4.214,15.963A2.838,2.838,0,0,1,.3,15.291v0a2.835,2.835,0,0,1,1.353-3.739c.116-.064,4.564-2.625,4.911-2.824v.013H6.6l-.016-.027-.022.014V3.048A2.833,2.833,0,0,1,9.112,0a2.833,2.833,0,0,1,2.553,3.048c0,.132-.024,5.167-.027,5.654l-.021.037h.021V8.7l0-.006,4.946,2.816A2.837,2.837,0,0,1,17.975,15.24Z" transform="translate(81.958 21.253) rotate(-89)" fill="#eaeaea" opacity="0.4"/>
        <path id="Tracé_224-4" data-name="Tracé 224" d="M17.975,15.24a2.836,2.836,0,0,1-3.914.708l-4.932-2.84,0-.008L4.214,15.963A2.838,2.838,0,0,1,.3,15.291v0a2.835,2.835,0,0,1,1.353-3.739c.116-.064,4.564-2.625,4.911-2.824v.013H6.6l-.016-.027-.022.014V3.048A2.833,2.833,0,0,1,9.112,0a2.833,2.833,0,0,1,2.553,3.048c0,.132-.024,5.167-.027,5.654l-.021.037h.021V8.7l0-.006,4.946,2.816A2.837,2.837,0,0,1,17.975,15.24Z" transform="translate(16.759 37.563) rotate(91)" fill="#eaeaea" opacity="0.3"/>
      </g>
      <g id="Groupe_398" data-name="Groupe 398" transform="translate(222.583 57.378) rotate(180)">
        <path id="Tracé_168-5" data-name="Tracé 168" d="M17.975,15.24a2.836,2.836,0,0,1-3.914.708l-4.932-2.84,0-.008L4.214,15.963A2.838,2.838,0,0,1,.3,15.291v0a2.835,2.835,0,0,1,1.353-3.739c.116-.064,4.564-2.625,4.911-2.824v.013H6.6l-.016-.027-.022.014V3.048A2.833,2.833,0,0,1,9.112,0a2.833,2.833,0,0,1,2.553,3.048c0,.132-.024,5.167-.027,5.654l-.021.037h.021V8.7l0-.006,4.946,2.816A2.837,2.837,0,0,1,17.975,15.24Z" transform="translate(0 4.744)" fill="#eaeaea"/>
        <path id="Tracé_222-5" data-name="Tracé 222" d="M17.975,15.24a2.836,2.836,0,0,1-3.914.708l-4.932-2.84,0-.008L4.214,15.963A2.838,2.838,0,0,1,.3,15.291v0a2.835,2.835,0,0,1,1.353-3.739c.116-.064,4.564-2.625,4.911-2.824v.013H6.6l-.016-.027-.022.014V3.048A2.833,2.833,0,0,1,9.112,0a2.833,2.833,0,0,1,2.553,3.048c0,.132-.024,5.167-.027,5.654l-.021.037h.021V8.7l0-.006,4.946,2.816A2.837,2.837,0,0,1,17.975,15.24Z" transform="matrix(-0.309, -0.951, 0.951, -0.309, 84.589, 57.074)" fill="#eaeaea" opacity="0.9"/>
        <path id="Tracé_220-5" data-name="Tracé 220" d="M17.975,15.24a2.836,2.836,0,0,1-3.914.708l-4.932-2.84,0-.008L4.214,15.963A2.838,2.838,0,0,1,.3,15.291v0a2.835,2.835,0,0,1,1.353-3.739c.116-.064,4.564-2.625,4.911-2.824v.013H6.6l-.016-.027-.022.014V3.048A2.833,2.833,0,0,1,9.112,0a2.833,2.833,0,0,1,2.553,3.048c0,.132-.024,5.167-.027,5.654l-.021.037h.021V8.7l0-.006,4.946,2.816A2.837,2.837,0,0,1,17.975,15.24Z" transform="translate(37.576 13.57) rotate(-48)" fill="#eaeaea" opacity="0.9"/>
        <path id="Tracé_223-5" data-name="Tracé 223" d="M17.975,15.24a2.836,2.836,0,0,1-3.914.708l-4.932-2.84,0-.008L4.214,15.963A2.838,2.838,0,0,1,.3,15.291v0a2.835,2.835,0,0,1,1.353-3.739c.116-.064,4.564-2.625,4.911-2.824v.013H6.6l-.016-.027-.022.014V3.048A2.833,2.833,0,0,1,9.112,0a2.833,2.833,0,0,1,2.553,3.048c0,.132-.024,5.167-.027,5.654l-.021.037h.021V8.7l0-.006,4.946,2.816A2.837,2.837,0,0,1,17.975,15.24Z" transform="matrix(-0.94, 0.342, -0.342, -0.94, 60.313, 51.132)" fill="#eaeaea" opacity="0.6"/>
        <path id="Tracé_221-5" data-name="Tracé 221" d="M17.975,15.24a2.836,2.836,0,0,1-3.914.708l-4.932-2.84,0-.008L4.214,15.963A2.838,2.838,0,0,1,.3,15.291v0a2.835,2.835,0,0,1,1.353-3.739c.116-.064,4.564-2.625,4.911-2.824v.013H6.6l-.016-.027-.022.014V3.048A2.833,2.833,0,0,1,9.112,0a2.833,2.833,0,0,1,2.553,3.048c0,.132-.024,5.167-.027,5.654l-.021.037h.021V8.7l0-.006,4.946,2.816A2.837,2.837,0,0,1,17.975,15.24Z" transform="translate(81.958 21.253) rotate(-89)" fill="#eaeaea" opacity="0.4"/>
        <path id="Tracé_224-5" data-name="Tracé 224" d="M17.975,15.24a2.836,2.836,0,0,1-3.914.708l-4.932-2.84,0-.008L4.214,15.963A2.838,2.838,0,0,1,.3,15.291v0a2.835,2.835,0,0,1,1.353-3.739c.116-.064,4.564-2.625,4.911-2.824v.013H6.6l-.016-.027-.022.014V3.048A2.833,2.833,0,0,1,9.112,0a2.833,2.833,0,0,1,2.553,3.048c0,.132-.024,5.167-.027,5.654l-.021.037h.021V8.7l0-.006,4.946,2.816A2.837,2.837,0,0,1,17.975,15.24Z" transform="translate(16.759 37.563) rotate(91)" fill="#eaeaea" opacity="0.3"/>
      </g>
      <g id="Groupe_406" data-name="Groupe 406" transform="translate(222.583 193.282) rotate(180)">
        <path id="Tracé_168-6" data-name="Tracé 168" d="M17.975,15.24a2.836,2.836,0,0,1-3.914.708l-4.932-2.84,0-.008L4.214,15.963A2.838,2.838,0,0,1,.3,15.291v0a2.835,2.835,0,0,1,1.353-3.739c.116-.064,4.564-2.625,4.911-2.824v.013H6.6l-.016-.027-.022.014V3.048A2.833,2.833,0,0,1,9.112,0a2.833,2.833,0,0,1,2.553,3.048c0,.132-.024,5.167-.027,5.654l-.021.037h.021V8.7l0-.006,4.946,2.816A2.837,2.837,0,0,1,17.975,15.24Z" transform="translate(0 4.744)" fill="#eaeaea"/>
        <path id="Tracé_222-6" data-name="Tracé 222" d="M17.975,15.24a2.836,2.836,0,0,1-3.914.708l-4.932-2.84,0-.008L4.214,15.963A2.838,2.838,0,0,1,.3,15.291v0a2.835,2.835,0,0,1,1.353-3.739c.116-.064,4.564-2.625,4.911-2.824v.013H6.6l-.016-.027-.022.014V3.048A2.833,2.833,0,0,1,9.112,0a2.833,2.833,0,0,1,2.553,3.048c0,.132-.024,5.167-.027,5.654l-.021.037h.021V8.7l0-.006,4.946,2.816A2.837,2.837,0,0,1,17.975,15.24Z" transform="matrix(-0.309, -0.951, 0.951, -0.309, 84.589, 57.074)" fill="#eaeaea" opacity="0.9"/>
        <path id="Tracé_220-6" data-name="Tracé 220" d="M17.975,15.24a2.836,2.836,0,0,1-3.914.708l-4.932-2.84,0-.008L4.214,15.963A2.838,2.838,0,0,1,.3,15.291v0a2.835,2.835,0,0,1,1.353-3.739c.116-.064,4.564-2.625,4.911-2.824v.013H6.6l-.016-.027-.022.014V3.048A2.833,2.833,0,0,1,9.112,0a2.833,2.833,0,0,1,2.553,3.048c0,.132-.024,5.167-.027,5.654l-.021.037h.021V8.7l0-.006,4.946,2.816A2.837,2.837,0,0,1,17.975,15.24Z" transform="translate(37.576 13.57) rotate(-48)" fill="#eaeaea" opacity="0.9"/>
        <path id="Tracé_223-6" data-name="Tracé 223" d="M17.975,15.24a2.836,2.836,0,0,1-3.914.708l-4.932-2.84,0-.008L4.214,15.963A2.838,2.838,0,0,1,.3,15.291v0a2.835,2.835,0,0,1,1.353-3.739c.116-.064,4.564-2.625,4.911-2.824v.013H6.6l-.016-.027-.022.014V3.048A2.833,2.833,0,0,1,9.112,0a2.833,2.833,0,0,1,2.553,3.048c0,.132-.024,5.167-.027,5.654l-.021.037h.021V8.7l0-.006,4.946,2.816A2.837,2.837,0,0,1,17.975,15.24Z" transform="matrix(-0.94, 0.342, -0.342, -0.94, 60.313, 51.132)" fill="#eaeaea" opacity="0.6"/>
        <path id="Tracé_221-6" data-name="Tracé 221" d="M17.975,15.24a2.836,2.836,0,0,1-3.914.708l-4.932-2.84,0-.008L4.214,15.963A2.838,2.838,0,0,1,.3,15.291v0a2.835,2.835,0,0,1,1.353-3.739c.116-.064,4.564-2.625,4.911-2.824v.013H6.6l-.016-.027-.022.014V3.048A2.833,2.833,0,0,1,9.112,0a2.833,2.833,0,0,1,2.553,3.048c0,.132-.024,5.167-.027,5.654l-.021.037h.021V8.7l0-.006,4.946,2.816A2.837,2.837,0,0,1,17.975,15.24Z" transform="translate(81.958 21.253) rotate(-89)" fill="#eaeaea" opacity="0.4"/>
        <path id="Tracé_224-6" data-name="Tracé 224" d="M17.975,15.24a2.836,2.836,0,0,1-3.914.708l-4.932-2.84,0-.008L4.214,15.963A2.838,2.838,0,0,1,.3,15.291v0a2.835,2.835,0,0,1,1.353-3.739c.116-.064,4.564-2.625,4.911-2.824v.013H6.6l-.016-.027-.022.014V3.048A2.833,2.833,0,0,1,9.112,0a2.833,2.833,0,0,1,2.553,3.048c0,.132-.024,5.167-.027,5.654l-.021.037h.021V8.7l0-.006,4.946,2.816A2.837,2.837,0,0,1,17.975,15.24Z" transform="translate(16.759 37.563) rotate(91)" fill="#eaeaea" opacity="0.3"/>
      </g>
      <g id="Groupe_400" data-name="Groupe 400" transform="translate(222.583 121.585) rotate(180)">
        <path id="Tracé_168-7" data-name="Tracé 168" d="M17.975,15.24a2.836,2.836,0,0,1-3.914.708l-4.932-2.84,0-.008L4.214,15.963A2.838,2.838,0,0,1,.3,15.291v0a2.835,2.835,0,0,1,1.353-3.739c.116-.064,4.564-2.625,4.911-2.824v.013H6.6l-.016-.027-.022.014V3.048A2.833,2.833,0,0,1,9.112,0a2.833,2.833,0,0,1,2.553,3.048c0,.132-.024,5.167-.027,5.654l-.021.037h.021V8.7l0-.006,4.946,2.816A2.837,2.837,0,0,1,17.975,15.24Z" transform="translate(0 4.744)" fill="#eaeaea"/>
        <path id="Tracé_222-7" data-name="Tracé 222" d="M17.975,15.24a2.836,2.836,0,0,1-3.914.708l-4.932-2.84,0-.008L4.214,15.963A2.838,2.838,0,0,1,.3,15.291v0a2.835,2.835,0,0,1,1.353-3.739c.116-.064,4.564-2.625,4.911-2.824v.013H6.6l-.016-.027-.022.014V3.048A2.833,2.833,0,0,1,9.112,0a2.833,2.833,0,0,1,2.553,3.048c0,.132-.024,5.167-.027,5.654l-.021.037h.021V8.7l0-.006,4.946,2.816A2.837,2.837,0,0,1,17.975,15.24Z" transform="matrix(-0.309, -0.951, 0.951, -0.309, 84.589, 57.074)" fill="#eaeaea" opacity="0.9"/>
        <path id="Tracé_220-7" data-name="Tracé 220" d="M17.975,15.24a2.836,2.836,0,0,1-3.914.708l-4.932-2.84,0-.008L4.214,15.963A2.838,2.838,0,0,1,.3,15.291v0a2.835,2.835,0,0,1,1.353-3.739c.116-.064,4.564-2.625,4.911-2.824v.013H6.6l-.016-.027-.022.014V3.048A2.833,2.833,0,0,1,9.112,0a2.833,2.833,0,0,1,2.553,3.048c0,.132-.024,5.167-.027,5.654l-.021.037h.021V8.7l0-.006,4.946,2.816A2.837,2.837,0,0,1,17.975,15.24Z" transform="translate(37.576 13.57) rotate(-48)" fill="#eaeaea" opacity="0.9"/>
        <path id="Tracé_223-7" data-name="Tracé 223" d="M17.975,15.24a2.836,2.836,0,0,1-3.914.708l-4.932-2.84,0-.008L4.214,15.963A2.838,2.838,0,0,1,.3,15.291v0a2.835,2.835,0,0,1,1.353-3.739c.116-.064,4.564-2.625,4.911-2.824v.013H6.6l-.016-.027-.022.014V3.048A2.833,2.833,0,0,1,9.112,0a2.833,2.833,0,0,1,2.553,3.048c0,.132-.024,5.167-.027,5.654l-.021.037h.021V8.7l0-.006,4.946,2.816A2.837,2.837,0,0,1,17.975,15.24Z" transform="matrix(-0.94, 0.342, -0.342, -0.94, 60.313, 51.132)" fill="#eaeaea" opacity="0.6"/>
        <path id="Tracé_221-7" data-name="Tracé 221" d="M17.975,15.24a2.836,2.836,0,0,1-3.914.708l-4.932-2.84,0-.008L4.214,15.963A2.838,2.838,0,0,1,.3,15.291v0a2.835,2.835,0,0,1,1.353-3.739c.116-.064,4.564-2.625,4.911-2.824v.013H6.6l-.016-.027-.022.014V3.048A2.833,2.833,0,0,1,9.112,0a2.833,2.833,0,0,1,2.553,3.048c0,.132-.024,5.167-.027,5.654l-.021.037h.021V8.7l0-.006,4.946,2.816A2.837,2.837,0,0,1,17.975,15.24Z" transform="translate(81.958 21.253) rotate(-89)" fill="#eaeaea" opacity="0.4"/>
        <path id="Tracé_224-7" data-name="Tracé 224" d="M17.975,15.24a2.836,2.836,0,0,1-3.914.708l-4.932-2.84,0-.008L4.214,15.963A2.838,2.838,0,0,1,.3,15.291v0a2.835,2.835,0,0,1,1.353-3.739c.116-.064,4.564-2.625,4.911-2.824v.013H6.6l-.016-.027-.022.014V3.048A2.833,2.833,0,0,1,9.112,0a2.833,2.833,0,0,1,2.553,3.048c0,.132-.024,5.167-.027,5.654l-.021.037h.021V8.7l0-.006,4.946,2.816A2.837,2.837,0,0,1,17.975,15.24Z" transform="translate(16.759 37.563) rotate(91)" fill="#eaeaea" opacity="0.3"/>
      </g>
      <g id="Groupe_408" data-name="Groupe 408" transform="translate(222.583 257.489) rotate(180)">
        <path id="Tracé_168-8" data-name="Tracé 168" d="M17.975,15.24a2.836,2.836,0,0,1-3.914.708l-4.932-2.84,0-.008L4.214,15.963A2.838,2.838,0,0,1,.3,15.291v0a2.835,2.835,0,0,1,1.353-3.739c.116-.064,4.564-2.625,4.911-2.824v.013H6.6l-.016-.027-.022.014V3.048A2.833,2.833,0,0,1,9.112,0a2.833,2.833,0,0,1,2.553,3.048c0,.132-.024,5.167-.027,5.654l-.021.037h.021V8.7l0-.006,4.946,2.816A2.837,2.837,0,0,1,17.975,15.24Z" transform="translate(0 4.744)" fill="#eaeaea"/>
        <path id="Tracé_222-8" data-name="Tracé 222" d="M17.975,15.24a2.836,2.836,0,0,1-3.914.708l-4.932-2.84,0-.008L4.214,15.963A2.838,2.838,0,0,1,.3,15.291v0a2.835,2.835,0,0,1,1.353-3.739c.116-.064,4.564-2.625,4.911-2.824v.013H6.6l-.016-.027-.022.014V3.048A2.833,2.833,0,0,1,9.112,0a2.833,2.833,0,0,1,2.553,3.048c0,.132-.024,5.167-.027,5.654l-.021.037h.021V8.7l0-.006,4.946,2.816A2.837,2.837,0,0,1,17.975,15.24Z" transform="matrix(-0.309, -0.951, 0.951, -0.309, 84.589, 57.074)" fill="#eaeaea" opacity="0.9"/>
        <path id="Tracé_220-8" data-name="Tracé 220" d="M17.975,15.24a2.836,2.836,0,0,1-3.914.708l-4.932-2.84,0-.008L4.214,15.963A2.838,2.838,0,0,1,.3,15.291v0a2.835,2.835,0,0,1,1.353-3.739c.116-.064,4.564-2.625,4.911-2.824v.013H6.6l-.016-.027-.022.014V3.048A2.833,2.833,0,0,1,9.112,0a2.833,2.833,0,0,1,2.553,3.048c0,.132-.024,5.167-.027,5.654l-.021.037h.021V8.7l0-.006,4.946,2.816A2.837,2.837,0,0,1,17.975,15.24Z" transform="translate(37.576 13.57) rotate(-48)" fill="#eaeaea" opacity="0.9"/>
        <path id="Tracé_223-8" data-name="Tracé 223" d="M17.975,15.24a2.836,2.836,0,0,1-3.914.708l-4.932-2.84,0-.008L4.214,15.963A2.838,2.838,0,0,1,.3,15.291v0a2.835,2.835,0,0,1,1.353-3.739c.116-.064,4.564-2.625,4.911-2.824v.013H6.6l-.016-.027-.022.014V3.048A2.833,2.833,0,0,1,9.112,0a2.833,2.833,0,0,1,2.553,3.048c0,.132-.024,5.167-.027,5.654l-.021.037h.021V8.7l0-.006,4.946,2.816A2.837,2.837,0,0,1,17.975,15.24Z" transform="matrix(-0.94, 0.342, -0.342, -0.94, 60.313, 51.132)" fill="#eaeaea" opacity="0.6"/>
        <path id="Tracé_221-8" data-name="Tracé 221" d="M17.975,15.24a2.836,2.836,0,0,1-3.914.708l-4.932-2.84,0-.008L4.214,15.963A2.838,2.838,0,0,1,.3,15.291v0a2.835,2.835,0,0,1,1.353-3.739c.116-.064,4.564-2.625,4.911-2.824v.013H6.6l-.016-.027-.022.014V3.048A2.833,2.833,0,0,1,9.112,0a2.833,2.833,0,0,1,2.553,3.048c0,.132-.024,5.167-.027,5.654l-.021.037h.021V8.7l0-.006,4.946,2.816A2.837,2.837,0,0,1,17.975,15.24Z" transform="translate(81.958 21.253) rotate(-89)" fill="#eaeaea" opacity="0.4"/>
        <path id="Tracé_224-8" data-name="Tracé 224" d="M17.975,15.24a2.836,2.836,0,0,1-3.914.708l-4.932-2.84,0-.008L4.214,15.963A2.838,2.838,0,0,1,.3,15.291v0a2.835,2.835,0,0,1,1.353-3.739c.116-.064,4.564-2.625,4.911-2.824v.013H6.6l-.016-.027-.022.014V3.048A2.833,2.833,0,0,1,9.112,0a2.833,2.833,0,0,1,2.553,3.048c0,.132-.024,5.167-.027,5.654l-.021.037h.021V8.7l0-.006,4.946,2.816A2.837,2.837,0,0,1,17.975,15.24Z" transform="translate(16.759 37.563) rotate(91)" fill="#eaeaea" opacity="0.3"/>
      </g>
    </g>
  </g>
</svg>
