<svg xmlns="http://www.w3.org/2000/svg" xmlns:xlink="http://www.w3.org/1999/xlink" width="786.511" height="708.195" viewBox="0 0 786.511 708.195">
    <path id="mat-napo-ejWJ3a92FEs-unsplash" d="M12.3,656.391c30.132,52.726,105.531,66.393,168.567,30.479,5.2-3.011,212.447-122.342,212.447-122.342l-.213-.346L604.991,687.563c62.77,36.367,138.3,23.392,168.78-28.96v-.133c30.48-52.459,4.4-124.527-58.268-161.027-4.981-2.771-196.594-113.071-211.54-121.623v.559h-1.626l.693-1.146.933.586V131.268C503.963,58.747,454.727,0,394.036,0,333.317,0,284.082,58.747,284.082,131.268c0,5.675,1.039,222.545,1.173,243.512l.905,1.6h-.905v-1.6l-.134-.24L72.087,495.817C9.052,531.731-17.7,603.559,12.3,656.391Z" transform="translate(0)" fill="#fff" />
</svg>
