<?xml version="1.0" encoding="UTF-8"?> <svg xmlns="http://www.w3.org/2000/svg" width="234.667" height="44" viewBox="0 0 234.667 44"><g id="Groupe_163" data-name="Groupe 163" transform="translate(-150.322 -21.855)"><g id="Groupe_121" data-name="Groupe 121" transform="translate(150.322 21.855)"><path id="Tracé_31" data-name="Tracé 31" d="M207.188,21.855c-3.939,0-7.134,3.818-7.134,8.527V46.3H206.5V44.329h-2.207V30.067h.016a2.924,2.924,0,1,1,5.76.029c0,.067,0,.13-.006.2V46.3h4.187s.075-15.524.075-15.915c0-4.709-3.195-8.527-7.136-8.527" transform="translate(-181.707 -21.855)" fill="#00938f"></path><path id="Tracé_32" data-name="Tracé 32" d="M244.255,106.373c1.949-3.427.21-8.092-3.88-10.42l-13.833-7.876-3.187,5.6,1.863,1.031,1.092-1.917,12.239,7-.007.015a2.924,2.924,0,1,1-2.875,4.991c-.059-.031-.111-.068-.167-.1l-13.908-7.919-2.073,3.64s13.453,7.745,13.795,7.94c4.093,2.329,8.99,1.442,10.939-1.98" transform="translate(-193.992 -65.737)" fill="#00938f"></path><path id="Tracé_33" data-name="Tracé 33" d="M151.15,106.587c1.981,3.4,6.885,4.246,10.958,1.88l13.756-8.007-3.239-5.568L170.8,95.986l1.109,1.906-12.2,7.07-.008-.015a2.924,2.924,0,1,1-2.87-5c.057-.034.117-.062.174-.09l13.836-8.05-2.107-3.62s-13.454,7.743-13.794,7.94c-4.07,2.366-5.764,7.047-3.783,10.455" transform="translate(-150.322 -65.81)" fill="#00938f"></path></g><g id="Groupe_122" data-name="Groupe 122" transform="translate(208.538 36.945)"><path id="Tracé_34" data-name="Tracé 34" d="M333.909,73.259c0-4.156-4.028-7.529-9-7.529H308.118v6.8h2.077V70.207h15.05v.014a3.085,3.085,0,1,1-.032,6.077c-.069,0-.134,0-.2-.009H308.118v4.459H324.91c4.971,0,9-3.33,9-7.489" transform="translate(-308.118 -65.73)" fill="#041e36"></path><path id="Tracé_35" data-name="Tracé 35" d="M383.7,88.536V78.085h13.936V80.11h-8.869v2.159h8.16v2.025h-8.16v2.218h8.869v2.025Z" transform="translate(-355.817 -73.527)" fill="#041e36"></path><path id="Tracé_36" data-name="Tracé 36" d="M437.108,80.783a.954.954,0,0,0-.657-.926,4.537,4.537,0,0,0-1.954-.334c-1.165,0-2.178.435-2.178.957,0,.765,1.62,1.013,2.964,1.216,3.068.45,7.524.623,7.524,3.444,0,2.2-3.8,3.243-8.03,3.243-4.257,0-8-.707-8.082-3.545h5.066c-.026.986,1.244,1.52,3.068,1.52,1.164,0,2.661-.349,2.661-1.041,0-1.423-3.752-1.116-7.729-2.115-1.85-.465-2.761-1.419-2.761-2.548.2-2.474,4-3.154,7.829-3.154,3.772,0,7.649.766,7.346,3.284Z" transform="translate(-382.948 -73.157)" fill="#041e36"></path><path id="Tracé_37" data-name="Tracé 37" d="M485.668,80.783a.954.954,0,0,0-.658-.926,4.547,4.547,0,0,0-1.956-.334c-1.164,0-2.176.435-2.176.957,0,.765,1.618,1.013,2.961,1.216,3.07.45,7.527.623,7.527,3.444,0,2.2-3.8,3.243-8.03,3.243-4.258,0-8.009-.707-8.084-3.545h5.068c-.025.986,1.242,1.52,3.065,1.52,1.167,0,2.661-.349,2.661-1.041,0-1.423-3.749-1.116-7.73-2.115-1.847-.465-2.76-1.419-2.76-2.548.2-2.474,4-3.154,7.828-3.154,3.775,0,7.652.766,7.349,3.284Z" transform="translate(-413.592 -73.157)" fill="#041e36"></path><path id="Tracé_38" data-name="Tracé 38" d="M525.6,88.536V78.085h13.938V80.11h-8.87v2.159h8.16v2.025h-8.16v2.218h8.87v2.025Z" transform="translate(-445.363 -73.527)" fill="#041e36"></path><path id="Tracé_39" data-name="Tracé 39" d="M575.175,88.536h-5.066V78.085h8.463c3.093,0,7.1.478,7.1,2.691,0,1.564-2.1,2.389-4.664,2.564V83.4c3.245.044,3.85.982,4.184,2.6a7.939,7.939,0,0,0,.835,2.533h-5.5a11.646,11.646,0,0,1-.556-2.213c-.2-1.259-.3-1.783-2.888-1.783h-1.9Zm1.978-6.02c1.622,0,3.192-.135,3.192-1.2s-1.57-1.2-3.192-1.2h-1.978v2.406Z" transform="translate(-473.453 -73.527)" fill="#041e36"></path><path id="Tracé_40" data-name="Tracé 40" d="M629.444,81c-.13-.938-1.372-1.475-3.448-1.475-2.912,0-3.444,1.954-3.444,3.517,0,1.523.581,3.317,3.444,3.317,2.129,0,3.344-.534,3.448-1.534h5.317c.078,2.633-4.331,3.559-8.766,3.559-5.7,0-8.766-1.953-8.766-5.458s3.064-5.4,8.766-5.426c4.435,0,8.843.866,8.766,3.5Z" transform="translate(-503.189 -73.157)" fill="#041e36"></path><path id="Tracé_41" data-name="Tracé 41" d="M669.564,82.942c0-3.448,3.42-5.443,9.477-5.443s9.475,2,9.475,5.443-3.418,5.441-9.475,5.441-9.477-1.994-9.477-5.441m9.477-3.418c-3.448,0-4.156,1.824-4.156,3.459,0,1.547.708,3.375,4.156,3.375s4.154-1.828,4.154-3.375c0-1.636-.709-3.459-4.154-3.459" transform="translate(-536.216 -73.157)" fill="#041e36"></path><path id="Tracé_42" data-name="Tracé 42" d="M727.193,88.536V78.085h8.032l2.99,7.078h.049l2.889-7.078h7.883V88.536H744.6V79.794l-.052-.03-4.283,8.772h-4.561l-4.028-8.843-.053.03v8.813Z" transform="translate(-572.584 -73.527)" fill="#041e36"></path></g></g></svg> 