<svg id="Calque_1" data-name="Calque 1" xmlns="http://www.w3.org/2000/svg" viewBox="0 0 242.29 321.69">
  <g id="Groupe_1563" data-name="Groupe 1563">
    <g id="Groupe_1374" data-name="Groupe 1374">
      <g id="_08" data-name=" 08" style="isolation: isolate">
        <text transform="translate(32.52 238.46)" style="isolation: isolate;font-size: 6px;fill: #00938f;font-family: F37Ginger-Bold, F37 Ginger;font-weight: 700;letter-spacing: -0.02001953125em">08</text>
      </g>
      <g id="_10" data-name=" 10" style="isolation: isolate">
        <text transform="translate(46.71 224.76)" style="isolation: isolate;font-size: 6px;fill: #00938f;font-family: F37Ginger-Bold, F37 Ginger;font-weight: 700;letter-spacing: -0.02001953125em">10</text>
      </g>
      <g id="_17" data-name=" 17" style="isolation: isolate">
        <text transform="translate(101.46 301.4)" style="isolation: isolate;font-size: 6px;fill: #00938f;font-family: F37Ginger-Bold, F37 Ginger;font-weight: 700;letter-spacing: -0.02001953125em">17</text>
      </g>
      <g id="_05" data-name=" 05" style="isolation: isolate">
        <text transform="translate(102.67 315.4)" style="isolation: isolate;font-size: 6px;fill: #00938f;font-family: F37Ginger-Bold, F37 Ginger;font-weight: 700;letter-spacing: -0.024983723958333332em">0<tspan x="3.37" y="0" style="letter-spacing: -0.02001953125em">5</tspan></text>
      </g>
      <g id="_12" data-name=" 12" style="isolation: isolate">
        <text transform="translate(117.64 290.4)" style="isolation: isolate;font-size: 6px;fill: #00938f;font-family: F37Ginger-Bold, F37 Ginger;font-weight: 700;letter-spacing: -0.02001953125em">1<tspan x="2.28" y="0" style="letter-spacing: -0.039957682291666664em">2</tspan></text>
      </g>
      <g id="_01" data-name=" 01" style="isolation: isolate">
        <text transform="translate(142.64 256.85)" style="isolation: isolate;font-size: 6px;fill: #00938f;font-family: F37Ginger-Bold, F37 Ginger;font-weight: 700;letter-spacing: -0.024983723958333332em">0<tspan x="3.37" y="0" style="letter-spacing: -0.02001953125em">1</tspan></text>
      </g>
      <g id="_16" data-name=" 16" style="isolation: isolate">
        <text transform="translate(87.03 307.4)" style="isolation: isolate;font-size: 6px;fill: #00938f;font-family: F37Ginger-Bold, F37 Ginger;font-weight: 700;letter-spacing: -0.02001953125em">16</text>
      </g>
      <g id="_03" data-name=" 03" style="isolation: isolate">
        <text transform="translate(109.67 262.85)" style="isolation: isolate;font-size: 6px;fill: #00938f;font-family: F37Ginger-Bold, F37 Ginger;font-weight: 700;letter-spacing: -0.0400390625em">0<tspan x="3.28" y="0" style="letter-spacing: -0.02001953125em">3</tspan></text>
      </g>
      <g id="_04" data-name=" 04" style="isolation: isolate">
        <text transform="translate(87.03 262.85)" style="isolation: isolate;font-size: 6px;fill: #00938f;font-family: F37Ginger-Bold, F37 Ginger;font-weight: 700;letter-spacing: -0.02001953125em">04</text>
      </g>
      <g id="_14" data-name=" 14" style="isolation: isolate">
        <text transform="translate(69.6 298.17)" style="isolation: isolate;font-size: 6px;fill: #00938f;font-family: F37Ginger-Bold, F37 Ginger;font-weight: 700;letter-spacing: -0.02001953125em">14</text>
      </g>
      <g id="Groupe_1373" data-name="Groupe 1373">
        <g id="Groupe_1562" data-name="Groupe 1562">
          <g id="Groupe_767" data-name="Groupe 767">
            <path id="Tracé_460" data-name="Tracé 460" d="M129.09,283.39l-12.87,24h-7.36v-2l3.8-10.13H107.6l-2.81-2.81,12.49-8,2.8-4.48Z" transform="translate(0 0)" style="fill: none;stroke: #008884;stroke-width: 2px"/>
            <path id="Tracé_461" data-name="Tracé 461" d="M93.72,298.21l4.82,12.87L97,312.66v8H47.85a5.77,5.77,0,0,1-1.1-.1l12.25-4,.09,0,21.64-13.66Z" transform="translate(0 0)" style="fill: none;stroke: #008884;stroke-width: 2px"/>
            <path id="Tracé_462" data-name="Tracé 462" d="M121.33,61.31V97.73H94.93V148.4L52.65,230.22H1.09V206.66a6.39,6.39,0,0,1,1.83-4.47l3.14-3.13a6.3,6.3,0,0,0,1.83-4.47V138.67A6.36,6.36,0,0,1,12,133.26l.12,0,10.7-4a6.36,6.36,0,0,0,4.18-6V89.68a6.33,6.33,0,0,0-1.65-4.18l0,0q-.18-.19-.36-.36l0,0L15,75.19l0,0-.36-.36,0,0a6.38,6.38,0,0,1-1.65-4.23V65.34a6.32,6.32,0,0,1,1.73-4.2l.27-.28,4.3-4.3.06-.05a6.37,6.37,0,0,0,1.82-4c0-.14,0-.29,0-.43s0-.3,0-.44V7.37A6.37,6.37,0,0,1,27.48,1h23a6.41,6.41,0,0,1,4.21,1.59l.15.14,21,19.17,0,0A6.36,6.36,0,0,0,80,23.57h5.82a6.37,6.37,0,0,1,6,6.3V30l0,16.94v.22a6.37,6.37,0,0,0,1.82,4.35l.09.1a6.31,6.31,0,0,0,1.93,1.3L96,53l.19.08,21.32,8a6.42,6.42,0,0,0,3.78.18Z" transform="translate(0 0)" style="fill: none;stroke: #008884;stroke-width: 2px"/>
            <path id="Tracé_463" data-name="Tracé 463" d="M41.9,230.22V260.4L25.78,273.77v28.1a6.28,6.28,0,0,0-.75,0H14.53A6.38,6.38,0,0,1,8.67,298h0l-.17-.46-7-18.63-.08-.21A5.93,5.93,0,0,1,1.09,277V230.22Z" transform="translate(0 0)" style="fill: none;stroke: #008884;stroke-width: 2px"/>
            <path id="Tracé_464" data-name="Tracé 464" d="M160.72,248.94l-9.94,9.95-10.73,4-11,20.48-9-3.4,14.37-23,19.62-14.72Z" transform="translate(0 0)" style="fill: none;stroke: #008884;stroke-width: 2px"/>
            <path id="Tracé_465" data-name="Tracé 465" d="M99.3,291.13l-2.4,2.13-17.2,6.48-8.19-21.69-2.8-7.45h0l-5.53-2.07-21.28-8,0-30.34H52.56L77.37,255.1l19.47,0v12.62l-5.53,2.09Z" transform="translate(0 0)" style="fill: none;stroke: #008884;stroke-width: 2px"/>
            <path id="Tracé_466" data-name="Tracé 466" d="M125.38,248.8l-13.27,31L99.3,291.13l-8-21.29,5.57-2.11v-.1l-.11-12.5,19.65-.12,2.33-6.2Z" transform="translate(0 0)" style="fill: none;stroke: #008884;stroke-width: 2px"/>
            <path id="Tracé_467" data-name="Tracé 467" d="M79.69,299.74l-.16.06-.06,0L71.21,305,64,285.8l2.87-7.59-3.67-9.69,5.53,2.08,2.8,7.44Z" transform="translate(0 0)" style="fill: none;stroke: #008884;stroke-width: 2px"/>
            <path id="Tracé_468" data-name="Tracé 468" d="M116.2,307.45l-5.29,9.87a.21.21,0,0,0,0,.06,6.37,6.37,0,0,1-5.58,3.31H96.93v-8l1.59-1.58v0l3.65-3.67H105l10.32,0Z" transform="translate(0 0)" style="fill: none;stroke: #008884;stroke-width: 2px"/>
            <path id="Tracé_469" data-name="Tracé 469" d="M112.66,295.33l-3.8,10.13h0v2h-6.67l-3.64,3.64-4.83-12.87,5.14-1.88,5.58-3.6.35-.23,2.82,2.82Z" transform="translate(0 0)" style="fill: none;stroke: #008884;stroke-width: 2px"/>
          </g>
          <g id="Groupe_768" data-name="Groupe 768" style="opacity: 0.30000001192092896">
            <path id="Tracé_458" data-name="Tracé 458" d="M187.47,241.45a6.7,6.7,0,0,1-.28,1.89c0,.1-.07.19-.1.28a7,7,0,0,1-.51,1.07h0l-.24.37a4.5,4.5,0,0,1-.28.37h0l-.93.94,0,0L181,250.57a6.3,6.3,0,0,1-4.27,1.85H168L139.81,263l-29.09,54.32,0,.06a6.35,6.35,0,0,1-5.58,3.3H47.7a5.92,5.92,0,0,1-1.1-.1l12.25-4,.08,0L80.55,303s18-6.52,18.17-6.62l18.33-11.79,17.16-27.44,27.56-20.67a1.33,1.33,0,0,1,.19-.14,6.21,6.21,0,0,1,3.72-1.2h15.43a6.37,6.37,0,0,1,6.36,6.36Z" transform="translate(0 0)" style="fill: none;stroke: #051c2f;stroke-width: 2px"/>
            <path id="Tracé_459" data-name="Tracé 459" d="M241.29,160.89v2.71a6.37,6.37,0,0,1-3.58,5.73l-.08,0-.94.36h0l-20.9,7.86-23,22.91-.77.77a6.33,6.33,0,0,1-2.14,1.18l-.36.1h0l-32,13.06-.23.07a6.35,6.35,0,0,0-3.82,3.27l-.11.29a3.93,3.93,0,0,0-.2.54l-.12.31-3.52,9.38,0,.07a6.41,6.41,0,0,1-3.77,3.74l-13,3.2-.24.09A6.37,6.37,0,0,0,129,240h0l-17.1,39.88L96.7,293.31l-17.37,6.38-.07,0-21.6,13.62L43.8,317.85a6.39,6.39,0,0,1-1.21-.93L29.41,303.73a6.4,6.4,0,0,0-4.5-1.86H14.43A6.37,6.37,0,0,1,8.57,298h0l-.16-.46-7-18.61-.08-.21a5.94,5.94,0,0,1-.34-1.6v-70.3a6.36,6.36,0,0,1,1.83-4.46L6,199.22a6.35,6.35,0,0,0,1.84-4.47V138.89a6.34,6.34,0,0,1,4.06-5.4l.13,0,10.69-4a6.36,6.36,0,0,0,4.17-6V90a6.3,6.3,0,0,0-1.65-4.18l0,0a4.17,4.17,0,0,0-.37-.36s0,0,0,0l-9.85-9.87,0,0-.36-.36,0,0a6.35,6.35,0,0,1-1.65-4.22V65.64a6.36,6.36,0,0,1,1.72-4.19l.28-.28,4.29-4.3.06,0a6.3,6.3,0,0,0,1.81-4,3,3,0,0,0,0-.43,3.24,3.24,0,0,0,0-.44V7.74a6.36,6.36,0,0,1,6.36-6.36H50.3A6.3,6.3,0,0,1,54.51,3l.15.14,21,19.14,0,0a6.36,6.36,0,0,0,4.1,1.64H85.6a6.36,6.36,0,0,1,6,6.29V47.47a6.29,6.29,0,0,0,1.82,4.35l.09.09a6.27,6.27,0,0,0,1.92,1.3l.39.14.19.07,21.3,8a6.38,6.38,0,0,0,8.17-3.79l5.37-14.29.12-.31,0-.08a6.37,6.37,0,0,1,11.71,0l.18.48,9.36,25s0,0,0,0l.09.23.3.79,3.54,4.37.28.35h0a6.33,6.33,0,0,1,1.26,3.8V98.17l1.81,1.82a.76.76,0,0,1,.09.09l10.45,10.45v9a6.24,6.24,0,0,1-.08,1h0c0,.14-.05.28-.08.42a.31.31,0,0,1,0,.08c0,.12-.06.24-.1.37l0,0-.06.2v-.07c0,.08,0,.15-.07.23l-.09.22-.12.28-.15.27-.68,1q-.19.22-.42.45l-.5.45-.19.15-.24.17L167,125l-.15.09-.55.27a1.22,1.22,0,0,1-.24.1l-.17.07h0l-.3.1a5.83,5.83,0,0,1-.92.21l-1,.08H142.2a6.33,6.33,0,0,0-4.4,1.77l-.19.19-3.33,3.33a1.21,1.21,0,0,0-.16.16,6.37,6.37,0,0,0-1.45,6.47c.05.14.1.28.16.41h0l15,39.76a6.36,6.36,0,0,0,6,4.17h19.57l59.33-27.22a6.26,6.26,0,0,1,5,.23l.28.14a2.2,2.2,0,0,1,.26.15l.25.16h0l0,0,.23.16.18.14h0l.1.09.08.07.12.11.13.11,0,0,0,.05c.12.12.24.25.35.38a3.15,3.15,0,0,1,.24.3l.18.24.16.26.23.4a7.15,7.15,0,0,1,.43,1.08l.06.22c0,.1.05.21.07.32l.06.31c0,.21.05.41.06.63Z" transform="translate(0 0)" style="fill: none;stroke: #051c2f;stroke-width: 2px"/>
          </g>
          <path id="Tracé_275" data-name="Tracé 275" d="M83.57,234.91l-.68.54v-1.08Z" transform="translate(0 0)" style="fill: none"/>
          <path id="Tracé_276" data-name="Tracé 276" d="M79.83,234.91l.68-.54v1.08Z" transform="translate(0 0)" style="fill: none"/>
        </g>
      </g>
    </g>
  </g>
</svg>
